  0
SECTION
  2
HEADER
  9
$ACADVER
  1
AC1014
  9
$HANDSEED
  5
FFFF
  9
$MEASUREMENT
 70
     1
  0
ENDSEC
  0
SECTION
  2
TABLES
  0
TABLE
  2
VPORT
  5
8
330
0
100
AcDbSymbolTable
 70
     4
  0
VPORT
  5
2E
330
8
100
AcDbSymbolTableRecord
100
AcDbViewportTableRecord
  2
*ACTIVE
 70
     0
 10
0.0
 20
0.0
 11
1.0
 21
1.0
 12
210.0
 22
148.5
 13
0.0
 23
0.0
 14
10.0
 24
10.0
 15
10.0
 25
10.0
 16
0.0
 26
0.0
 36
1.0
 17
0.0
 27
0.0
 37
0.0
 40
341.0
 41
1.24
 42
50.0
 43
0.0
 44
0.0
 50
0.0
 51
0.0
 71
     0
 72
   100
 73
     1
 74
     3
 75
     0
 76
     0
 77
     0
 78
     0
  0
ENDTAB
  0
TABLE
  2
LTYPE
  5
5
330
0
100
AcDbSymbolTable
 70
     1
  0
LTYPE
  5
14
330
5
100
AcDbSymbolTableRecord
100
AcDbLinetypeTableRecord
  2
BYBLOCK
 70
     0
  3

 72
    65
 73
     0
 40
0.0
  0
LTYPE
  5
15
330
5
100
AcDbSymbolTableRecord
100
AcDbLinetypeTableRecord
  2
BYLAYER
 70
     0
  3

 72
    65
 73
     0
 40
0.0
  0
LTYPE
  5
16
330
5
100
AcDbSymbolTableRecord
100
AcDbLinetypeTableRecord
  2
CONTINUOUS
 70
     0
  3
Solid line
 72
    65
 73
     0
 40
0.0
  0
ENDTAB
  0
TABLE
  2
LAYER
  5
2
100
AcDbSymbolTable
 70
2
  0
LAYER
  5
50
100
AcDbSymbolTableRecord
100
AcDbLayerTableRecord
  2
0
 70
0
  6
CONTINUOUS
  0
LAYER
  5
51
100
AcDbSymbolTableRecord
100
AcDbLayerTableRecord
  2
Layer_1
 70
0
  6
CONTINUOUS
  0
ENDTAB
  0
TABLE
  2
STYLE
  5
3
330
0
100
AcDbSymbolTable
 70
     1
  0
STYLE
  5
11
330
3
100
AcDbSymbolTableRecord
100
AcDbTextStyleTableRecord
  2
STANDARD
 70
     0
 40
0.0
 41
1.0
 50
0.0
 71
     0
 42
2.5
  3
txt
  4

  0
ENDTAB
  0
TABLE
  2
VIEW
  5
6
330
0
100
AcDbSymbolTable
 70
     0
  0
ENDTAB
  0
TABLE
  2
UCS
  5
7
330
0
100
AcDbSymbolTable
 70
     0
  0
ENDTAB
  0
TABLE
  2
APPID
  5
9
330
0
100
AcDbSymbolTable
 70
     2
  0
APPID
  5
12
330
9
100
AcDbSymbolTableRecord
100
AcDbRegAppTableRecord
  2
ACAD
 70
     0
  0
ENDTAB
  0
TABLE
  2
DIMSTYLE
  5
A
330
0
100
AcDbSymbolTable
 70
     1
  0
DIMSTYLE
105
27
330
A
100
AcDbSymbolTableRecord
100
AcDbDimStyleTableRecord
  2
ISO-25
 70
     0
  3

  4

  5

  6

  7

 40
1.0
 41
2.5
 42
0.625
 43
3.75
 44
1.25
 45
0.0
 46
0.0
 47
0.0
 48
0.0
140
2.5
141
2.5
142
0.0
143
0.03937007874016
144
1.0
145
0.0
146
1.0
147
0.625
 71
     0
 72
     0
 73
     0
 74
     0
 75
     0
 76
     0
 77
     1
 78
     8
170
     0
171
     3
172
     1
173
     0
174
     0
175
     0
176
     0
177
     0
178
     0
270
     2
271
     2
272
     2
273
     2
274
     3
340
11
275
     0
280
     0
281
     0
282
     0
283
     0
284
     8
285
     0
286
     0
287
     3
288
     0
  0
ENDTAB
  0
TABLE
  2
BLOCK_RECORD
  5
1
330
0
100
AcDbSymbolTable
 70
     1
  0
BLOCK_RECORD
  5
1F
330
1
100
AcDbSymbolTableRecord
100
AcDbBlockTableRecord
  2
*MODEL_SPACE
  0
BLOCK_RECORD
  5
1B
330
1
100
AcDbSymbolTableRecord
100
AcDbBlockTableRecord
  2
*PAPER_SPACE
  0
ENDTAB
  0
ENDSEC
  0
SECTION
  2
BLOCKS
  0
BLOCK
  5
20
330
1F
100
AcDbEntity
  8
0
100
AcDbBlockBegin
  2
*MODEL_SPACE
 70
     0
 10
0.0
 20
0.0
 30
0.0
  3
*MODEL_SPACE
  1

  0
ENDBLK
  5
21
330
1F
100
AcDbEntity
  8
0
100
AcDbBlockEnd
  0
BLOCK
  5
1C
330
1B
100
AcDbEntity
 67
     1
  8
0
100
AcDbBlockBegin
  2
*PAPER_SPACE
  1

  0
ENDBLK
  5
1D
330
1B
100
AcDbEntity
 67
     1
  8
0
100
AcDbBlockEnd
  0
ENDSEC
  0
SECTION
  2
ENTITIES
  0
SPLINE
  5
100
100
AcDbEntity
  8
Layer_1
 62
1
100
AcDbSpline
 70
8
 71
3
 72
8
 73
4
 74
0
 40
0
 40
0
 40
0
 40
0
 40
1
 40
1
 40
1
 40
1
 10
79.334332
 20
166.548344
 30
0.0
 10
79.334332
 20
166.950267
 30
0.0
 10
79.119909
 20
167.321660
 30
0.0
 10
78.771832
 20
167.522622
 30
0.0
  0
SPLINE
  5
101
100
AcDbEntity
  8
Layer_1
 62
1
100
AcDbSpline
 70
8
 71
3
 72
8
 73
4
 74
0
 40
0
 40
0
 40
0
 40
0
 40
1
 40
1
 40
1
 40
1
 10
78.771832
 20
167.522622
 30
0.0
 10
78.423756
 20
167.723584
 30
0.0
 10
77.994909
 20
167.723584
 30
0.0
 10
77.646832
 20
167.522622
 30
0.0
  0
SPLINE
  5
102
100
AcDbEntity
  8
Layer_1
 62
1
100
AcDbSpline
 70
8
 71
3
 72
8
 73
4
 74
0
 40
0
 40
0
 40
0
 40
0
 40
1
 40
1
 40
1
 40
1
 10
77.646832
 20
167.522622
 30
0.0
 10
77.298756
 20
167.321660
 30
0.0
 10
77.084332
 20
166.950267
 30
0.0
 10
77.084332
 20
166.548344
 30
0.0
  0
SPLINE
  5
103
100
AcDbEntity
  8
Layer_1
 62
1
100
AcDbSpline
 70
8
 71
3
 72
8
 73
4
 74
0
 40
0
 40
0
 40
0
 40
0
 40
1
 40
1
 40
1
 40
1
 10
77.084332
 20
166.548344
 30
0.0
 10
77.084332
 20
166.146420
 30
0.0
 10
77.298756
 20
165.775027
 30
0.0
 10
77.646832
 20
165.574065
 30
0.0
  0
SPLINE
  5
104
100
AcDbEntity
  8
Layer_1
 62
1
100
AcDbSpline
 70
8
 71
3
 72
8
 73
4
 74
0
 40
0
 40
0
 40
0
 40
0
 40
1
 40
1
 40
1
 40
1
 10
77.646832
 20
165.574065
 30
0.0
 10
77.994909
 20
165.373103
 30
0.0
 10
78.423756
 20
165.373103
 30
0.0
 10
78.771832
 20
165.574065
 30
0.0
  0
SPLINE
  5
105
100
AcDbEntity
  8
Layer_1
 62
1
100
AcDbSpline
 70
8
 71
3
 72
8
 73
4
 74
0
 40
0
 40
0
 40
0
 40
0
 40
1
 40
1
 40
1
 40
1
 10
78.771832
 20
165.574065
 30
0.0
 10
79.119909
 20
165.775027
 30
0.0
 10
79.334332
 20
166.146420
 30
0.0
 10
79.334332
 20
166.548344
 30
0.0
  0
SPLINE
  5
106
100
AcDbEntity
  8
Layer_1
 62
1
100
AcDbSpline
 70
8
 71
3
 72
8
 73
4
 74
0
 40
0
 40
0
 40
0
 40
0
 40
1
 40
1
 40
1
 40
1
 10
39.221880
 20
165.184185
 30
0.0
 10
39.221880
 20
165.586109
 30
0.0
 10
39.007456
 20
165.957502
 30
0.0
 10
38.659380
 20
166.158464
 30
0.0
  0
SPLINE
  5
107
100
AcDbEntity
  8
Layer_1
 62
1
100
AcDbSpline
 70
8
 71
3
 72
8
 73
4
 74
0
 40
0
 40
0
 40
0
 40
0
 40
1
 40
1
 40
1
 40
1
 10
38.659380
 20
166.158464
 30
0.0
 10
38.311304
 20
166.359425
 30
0.0
 10
37.882456
 20
166.359425
 30
0.0
 10
37.534380
 20
166.158464
 30
0.0
  0
SPLINE
  5
108
100
AcDbEntity
  8
Layer_1
 62
1
100
AcDbSpline
 70
8
 71
3
 72
8
 73
4
 74
0
 40
0
 40
0
 40
0
 40
0
 40
1
 40
1
 40
1
 40
1
 10
37.534380
 20
166.158464
 30
0.0
 10
37.186304
 20
165.957502
 30
0.0
 10
36.971880
 20
165.586109
 30
0.0
 10
36.971880
 20
165.184185
 30
0.0
  0
SPLINE
  5
109
100
AcDbEntity
  8
Layer_1
 62
1
100
AcDbSpline
 70
8
 71
3
 72
8
 73
4
 74
0
 40
0
 40
0
 40
0
 40
0
 40
1
 40
1
 40
1
 40
1
 10
36.971880
 20
165.184185
 30
0.0
 10
36.971880
 20
164.782261
 30
0.0
 10
37.186304
 20
164.410868
 30
0.0
 10
37.534380
 20
164.209906
 30
0.0
  0
SPLINE
  5
10a
100
AcDbEntity
  8
Layer_1
 62
1
100
AcDbSpline
 70
8
 71
3
 72
8
 73
4
 74
0
 40
0
 40
0
 40
0
 40
0
 40
1
 40
1
 40
1
 40
1
 10
37.534380
 20
164.209906
 30
0.0
 10
37.882456
 20
164.008945
 30
0.0
 10
38.311304
 20
164.008945
 30
0.0
 10
38.659380
 20
164.209906
 30
0.0
  0
SPLINE
  5
10b
100
AcDbEntity
  8
Layer_1
 62
1
100
AcDbSpline
 70
8
 71
3
 72
8
 73
4
 74
0
 40
0
 40
0
 40
0
 40
0
 40
1
 40
1
 40
1
 40
1
 10
38.659380
 20
164.209906
 30
0.0
 10
39.007456
 20
164.410868
 30
0.0
 10
39.221880
 20
164.782261
 30
0.0
 10
39.221880
 20
165.184185
 30
0.0
  0
LWPOLYLINE
  5
10c
100
AcDbEntity
  8
Layer_1
 62
1
100
AcDbPolyline
 90
1
 70
1
 10
79.334332
 20
166.548344
 30
0.0
  0
SPLINE
  5
10d
100
AcDbEntity
  8
Layer_1
 62
1
100
AcDbSpline
 70
8
 71
3
 72
8
 73
4
 74
0
 40
0
 40
0
 40
0
 40
0
 40
1
 40
1
 40
1
 40
1
 10
154.209307
 20
164.632092
 30
0.0
 10
154.209308
 20
166.024479
 30
0.0
 10
153.656185
 20
167.359838
 30
0.0
 10
152.671619
 20
168.344404
 30
0.0
  0
SPLINE
  5
10e
100
AcDbEntity
  8
Layer_1
 62
1
100
AcDbSpline
 70
8
 71
3
 72
8
 73
4
 74
0
 40
0
 40
0
 40
0
 40
0
 40
1
 40
1
 40
1
 40
1
 10
152.671619
 20
168.344404
 30
0.0
 10
151.687053
 20
169.328971
 30
0.0
 10
150.351694
 20
169.882094
 30
0.0
 10
148.959307
 20
169.882094
 30
0.0
  0
SPLINE
  5
10f
100
AcDbEntity
  8
Layer_1
 62
1
100
AcDbSpline
 70
8
 71
3
 72
8
 73
4
 74
0
 40
0
 40
0
 40
0
 40
0
 40
1
 40
1
 40
1
 40
1
 10
38.644208
 20
169.882094
 30
0.0
 10
37.251821
 20
169.882094
 30
0.0
 10
35.916462
 20
169.328971
 30
0.0
 10
34.931896
 20
168.344404
 30
0.0
  0
SPLINE
  5
110
100
AcDbEntity
  8
Layer_1
 62
1
100
AcDbSpline
 70
8
 71
3
 72
8
 73
4
 74
0
 40
0
 40
0
 40
0
 40
0
 40
1
 40
1
 40
1
 40
1
 10
34.931896
 20
168.344404
 30
0.0
 10
33.947330
 20
167.359838
 30
0.0
 10
33.394207
 20
166.024479
 30
0.0
 10
33.394208
 20
164.632092
 30
0.0
  0
SPLINE
  5
111
100
AcDbEntity
  8
Layer_1
 62
1
100
AcDbSpline
 70
8
 71
3
 72
8
 73
4
 74
0
 40
0
 40
0
 40
0
 40
0
 40
1
 40
1
 40
1
 40
1
 10
5.305125
 20
89.023785
 30
0.0
 10
4.043151
 20
88.435366
 30
0.0
 10
3.066619
 20
87.369722
 30
0.0
 10
2.590362
 20
86.061290
 30
0.0
  0
SPLINE
  5
112
100
AcDbEntity
  8
Layer_1
 62
1
100
AcDbSpline
 70
8
 71
3
 72
8
 73
4
 74
0
 40
0
 40
0
 40
0
 40
0
 40
1
 40
1
 40
1
 40
1
 10
2.590362
 20
86.061290
 30
0.0
 10
2.114106
 20
84.752858
 30
0.0
 10
2.177139
 20
83.308822
 30
0.0
 10
2.765595
 20
82.046865
 30
0.0
  0
SPLINE
  5
113
100
AcDbEntity
  8
Layer_1
 62
1
100
AcDbSpline
 70
8
 71
3
 72
8
 73
4
 74
0
 40
0
 40
0
 40
0
 40
0
 40
1
 40
1
 40
1
 40
1
 10
7.915410
 20
84.532448
 30
0.0
 10
7.915410
 20
84.934371
 30
0.0
 10
7.700986
 20
85.305764
 30
0.0
 10
7.352910
 20
85.506726
 30
0.0
  0
SPLINE
  5
114
100
AcDbEntity
  8
Layer_1
 62
1
100
AcDbSpline
 70
8
 71
3
 72
8
 73
4
 74
0
 40
0
 40
0
 40
0
 40
0
 40
1
 40
1
 40
1
 40
1
 10
7.352910
 20
85.506726
 30
0.0
 10
7.004834
 20
85.707688
 30
0.0
 10
6.575986
 20
85.707688
 30
0.0
 10
6.227910
 20
85.506726
 30
0.0
  0
SPLINE
  5
115
100
AcDbEntity
  8
Layer_1
 62
1
100
AcDbSpline
 70
8
 71
3
 72
8
 73
4
 74
0
 40
0
 40
0
 40
0
 40
0
 40
1
 40
1
 40
1
 40
1
 10
6.227910
 20
85.506726
 30
0.0
 10
5.879834
 20
85.305764
 30
0.0
 10
5.665410
 20
84.934371
 30
0.0
 10
5.665410
 20
84.532448
 30
0.0
  0
SPLINE
  5
116
100
AcDbEntity
  8
Layer_1
 62
1
100
AcDbSpline
 70
8
 71
3
 72
8
 73
4
 74
0
 40
0
 40
0
 40
0
 40
0
 40
1
 40
1
 40
1
 40
1
 10
5.665410
 20
84.532448
 30
0.0
 10
5.665410
 20
84.130524
 30
0.0
 10
5.879834
 20
83.759131
 30
0.0
 10
6.227910
 20
83.558169
 30
0.0
  0
SPLINE
  5
117
100
AcDbEntity
  8
Layer_1
 62
1
100
AcDbSpline
 70
8
 71
3
 72
8
 73
4
 74
0
 40
0
 40
0
 40
0
 40
0
 40
1
 40
1
 40
1
 40
1
 10
6.227910
 20
83.558169
 30
0.0
 10
6.575986
 20
83.357207
 30
0.0
 10
7.004834
 20
83.357207
 30
0.0
 10
7.352910
 20
83.558169
 30
0.0
  0
SPLINE
  5
118
100
AcDbEntity
  8
Layer_1
 62
1
100
AcDbSpline
 70
8
 71
3
 72
8
 73
4
 74
0
 40
0
 40
0
 40
0
 40
0
 40
1
 40
1
 40
1
 40
1
 10
7.352910
 20
83.558169
 30
0.0
 10
7.700986
 20
83.759131
 30
0.0
 10
7.915410
 20
84.130524
 30
0.0
 10
7.915410
 20
84.532448
 30
0.0
  0
LWPOLYLINE
  5
119
100
AcDbEntity
  8
Layer_1
 62
1
100
AcDbPolyline
 90
1
 70
1
 10
39.221880
 20
165.184185
 30
0.0
  0
SPLINE
  5
11a
100
AcDbEntity
  8
Layer_1
 62
1
100
AcDbSpline
 70
8
 71
3
 72
8
 73
4
 74
0
 40
0
 40
0
 40
0
 40
0
 40
1
 40
1
 40
1
 40
1
 10
90.331927
 20
69.393262
 30
0.0
 10
90.332957
 20
69.795870
 30
0.0
 10
90.118759
 20
70.168336
 30
0.0
 10
89.770261
 20
70.369937
 30
0.0
  0
SPLINE
  5
11b
100
AcDbEntity
  8
Layer_1
 62
1
100
AcDbSpline
 70
8
 71
3
 72
8
 73
4
 74
0
 40
0
 40
0
 40
0
 40
0
 40
1
 40
1
 40
1
 40
1
 10
89.770261
 20
70.369937
 30
0.0
 10
89.421763
 20
70.571538
 30
0.0
 10
88.992099
 20
70.571538
 30
0.0
 10
88.643601
 20
70.369937
 30
0.0
  0
SPLINE
  5
11c
100
AcDbEntity
  8
Layer_1
 62
1
100
AcDbSpline
 70
8
 71
3
 72
8
 73
4
 74
0
 40
0
 40
0
 40
0
 40
0
 40
1
 40
1
 40
1
 40
1
 10
88.643601
 20
70.369937
 30
0.0
 10
88.295104
 20
70.168336
 30
0.0
 10
88.080906
 20
69.795870
 30
0.0
 10
88.081935
 20
69.393262
 30
0.0
  0
SPLINE
  5
11d
100
AcDbEntity
  8
Layer_1
 62
1
100
AcDbSpline
 70
8
 71
3
 72
8
 73
4
 74
0
 40
0
 40
0
 40
0
 40
0
 40
1
 40
1
 40
1
 40
1
 10
88.081935
 20
69.393262
 30
0.0
 10
88.080906
 20
68.990655
 30
0.0
 10
88.295104
 20
68.618189
 30
0.0
 10
88.643601
 20
68.416588
 30
0.0
  0
SPLINE
  5
11e
100
AcDbEntity
  8
Layer_1
 62
1
100
AcDbSpline
 70
8
 71
3
 72
8
 73
4
 74
0
 40
0
 40
0
 40
0
 40
0
 40
1
 40
1
 40
1
 40
1
 10
88.643601
 20
68.416588
 30
0.0
 10
88.992099
 20
68.214987
 30
0.0
 10
89.421763
 20
68.214987
 30
0.0
 10
89.770261
 20
68.416588
 30
0.0
  0
SPLINE
  5
11f
100
AcDbEntity
  8
Layer_1
 62
1
100
AcDbSpline
 70
8
 71
3
 72
8
 73
4
 74
0
 40
0
 40
0
 40
0
 40
0
 40
1
 40
1
 40
1
 40
1
 10
89.770261
 20
68.416588
 30
0.0
 10
90.118759
 20
68.618189
 30
0.0
 10
90.332957
 20
68.990655
 30
0.0
 10
90.331927
 20
69.393262
 30
0.0
  0
LWPOLYLINE
  5
120
100
AcDbEntity
  8
Layer_1
 62
1
100
AcDbPolyline
 90
1
 70
1
 10
7.915410
 20
84.532448
 30
0.0
  0
SPLINE
  5
121
100
AcDbEntity
  8
Layer_1
 62
1
100
AcDbSpline
 70
8
 71
3
 72
8
 73
4
 74
0
 40
0
 40
0
 40
0
 40
0
 40
1
 40
1
 40
1
 40
1
 10
150.636397
 20
71.948123
 30
0.0
 10
150.636397
 20
72.350046
 30
0.0
 10
150.421974
 20
72.721439
 30
0.0
 10
150.073897
 20
72.922401
 30
0.0
  0
SPLINE
  5
122
100
AcDbEntity
  8
Layer_1
 62
1
100
AcDbSpline
 70
8
 71
3
 72
8
 73
4
 74
0
 40
0
 40
0
 40
0
 40
0
 40
1
 40
1
 40
1
 40
1
 10
150.073897
 20
72.922401
 30
0.0
 10
149.725821
 20
73.123363
 30
0.0
 10
149.296974
 20
73.123363
 30
0.0
 10
148.948897
 20
72.922401
 30
0.0
  0
SPLINE
  5
123
100
AcDbEntity
  8
Layer_1
 62
1
100
AcDbSpline
 70
8
 71
3
 72
8
 73
4
 74
0
 40
0
 40
0
 40
0
 40
0
 40
1
 40
1
 40
1
 40
1
 10
148.948897
 20
72.922401
 30
0.0
 10
148.600821
 20
72.721439
 30
0.0
 10
148.386397
 20
72.350046
 30
0.0
 10
148.386397
 20
71.948123
 30
0.0
  0
SPLINE
  5
124
100
AcDbEntity
  8
Layer_1
 62
1
100
AcDbSpline
 70
8
 71
3
 72
8
 73
4
 74
0
 40
0
 40
0
 40
0
 40
0
 40
1
 40
1
 40
1
 40
1
 10
148.386397
 20
71.948123
 30
0.0
 10
148.386397
 20
71.546199
 30
0.0
 10
148.600821
 20
71.174806
 30
0.0
 10
148.948897
 20
70.973844
 30
0.0
  0
SPLINE
  5
125
100
AcDbEntity
  8
Layer_1
 62
1
100
AcDbSpline
 70
8
 71
3
 72
8
 73
4
 74
0
 40
0
 40
0
 40
0
 40
0
 40
1
 40
1
 40
1
 40
1
 10
148.948897
 20
70.973844
 30
0.0
 10
149.296974
 20
70.772882
 30
0.0
 10
149.725821
 20
70.772882
 30
0.0
 10
150.073897
 20
70.973844
 30
0.0
  0
SPLINE
  5
126
100
AcDbEntity
  8
Layer_1
 62
1
100
AcDbSpline
 70
8
 71
3
 72
8
 73
4
 74
0
 40
0
 40
0
 40
0
 40
0
 40
1
 40
1
 40
1
 40
1
 10
150.073897
 20
70.973844
 30
0.0
 10
150.421974
 20
71.174806
 30
0.0
 10
150.636397
 20
71.546199
 30
0.0
 10
150.636397
 20
71.948123
 30
0.0
  0
LWPOLYLINE
  5
127
100
AcDbEntity
  8
Layer_1
 62
1
100
AcDbPolyline
 90
1
 70
1
 10
90.331927
 20
69.393262
 30
0.0
  0
LWPOLYLINE
  5
128
100
AcDbEntity
  8
Layer_1
 62
1
100
AcDbPolyline
 90
1
 70
1
 10
150.636397
 20
71.948123
 30
0.0
  0
LWPOLYLINE
  5
129
100
AcDbEntity
  8
Layer_1
 62
1
100
AcDbPolyline
 90
2
 70
0
 10
55.138733
 20
166.047328
 30
0.0
 10
60.646283
 20
166.047328
 30
0.0
  0
LWPOLYLINE
  5
12a
100
AcDbEntity
  8
Layer_1
 62
1
100
AcDbPolyline
 90
2
 70
0
 10
44.728958
 20
169.882094
 30
0.0
 10
55.138733
 20
166.047328
 30
0.0
  0
LWPOLYLINE
  5
12b
100
AcDbEntity
  8
Layer_1
 62
1
100
AcDbPolyline
 90
2
 70
0
 10
44.728958
 20
169.882094
 30
0.0
 10
38.644208
 20
169.882094
 30
0.0
  0
LWPOLYLINE
  5
12c
100
AcDbEntity
  8
Layer_1
 62
1
100
AcDbPolyline
 90
2
 70
0
 10
33.394208
 20
164.632092
 30
0.0
 10
33.394208
 20
105.465570
 30
0.0
  0
LWPOLYLINE
  5
12d
100
AcDbEntity
  8
Layer_1
 62
1
100
AcDbPolyline
 90
2
 70
0
 10
148.959307
 20
169.882094
 30
0.0
 10
107.327092
 20
169.882094
 30
0.0
  0
LWPOLYLINE
  5
12e
100
AcDbEntity
  8
Layer_1
 62
1
100
AcDbPolyline
 90
2
 70
0
 10
147.541807
 20
87.697980
 30
0.0
 10
147.541807
 20
143.728985
 30
0.0
  0
LWPOLYLINE
  5
12f
100
AcDbEntity
  8
Layer_1
 62
1
100
AcDbPolyline
 90
2
 70
0
 10
30.362797
 20
100.707375
 30
0.0
 10
5.305125
 20
89.023785
 30
0.0
  0
SPLINE
  5
130
100
AcDbEntity
  8
Layer_1
 62
1
100
AcDbSpline
 70
8
 71
3
 72
8
 73
4
 74
0
 40
0
 40
0
 40
0
 40
0
 40
1
 40
1
 40
1
 40
1
 10
150.636397
 20
165.184185
 30
0.0
 10
150.636397
 20
165.586109
 30
0.0
 10
150.421974
 20
165.957502
 30
0.0
 10
150.073897
 20
166.158464
 30
0.0
  0
SPLINE
  5
131
100
AcDbEntity
  8
Layer_1
 62
1
100
AcDbSpline
 70
8
 71
3
 72
8
 73
4
 74
0
 40
0
 40
0
 40
0
 40
0
 40
1
 40
1
 40
1
 40
1
 10
150.073897
 20
166.158464
 30
0.0
 10
149.725821
 20
166.359425
 30
0.0
 10
149.296974
 20
166.359425
 30
0.0
 10
148.948897
 20
166.158464
 30
0.0
  0
SPLINE
  5
132
100
AcDbEntity
  8
Layer_1
 62
1
100
AcDbSpline
 70
8
 71
3
 72
8
 73
4
 74
0
 40
0
 40
0
 40
0
 40
0
 40
1
 40
1
 40
1
 40
1
 10
148.948897
 20
166.158464
 30
0.0
 10
148.600821
 20
165.957502
 30
0.0
 10
148.386397
 20
165.586109
 30
0.0
 10
148.386397
 20
165.184185
 30
0.0
  0
SPLINE
  5
133
100
AcDbEntity
  8
Layer_1
 62
1
100
AcDbSpline
 70
8
 71
3
 72
8
 73
4
 74
0
 40
0
 40
0
 40
0
 40
0
 40
1
 40
1
 40
1
 40
1
 10
148.386397
 20
165.184185
 30
0.0
 10
148.386397
 20
164.782261
 30
0.0
 10
148.600821
 20
164.410868
 30
0.0
 10
148.948897
 20
164.209906
 30
0.0
  0
SPLINE
  5
134
100
AcDbEntity
  8
Layer_1
 62
1
100
AcDbSpline
 70
8
 71
3
 72
8
 73
4
 74
0
 40
0
 40
0
 40
0
 40
0
 40
1
 40
1
 40
1
 40
1
 10
148.948897
 20
164.209906
 30
0.0
 10
149.296974
 20
164.008945
 30
0.0
 10
149.725821
 20
164.008945
 30
0.0
 10
150.073897
 20
164.209906
 30
0.0
  0
SPLINE
  5
135
100
AcDbEntity
  8
Layer_1
 62
1
100
AcDbSpline
 70
8
 71
3
 72
8
 73
4
 74
0
 40
0
 40
0
 40
0
 40
0
 40
1
 40
1
 40
1
 40
1
 10
150.073897
 20
164.209906
 30
0.0
 10
150.421974
 20
164.410868
 30
0.0
 10
150.636397
 20
164.782261
 30
0.0
 10
150.636397
 20
165.184185
 30
0.0
  0
LWPOLYLINE
  5
136
100
AcDbEntity
  8
Layer_1
 62
1
100
AcDbPolyline
 90
2
 70
0
 10
40.071202
 20
145.145735
 30
0.0
 10
40.061678
 20
96.158588
 30
0.0
  0
SPLINE
  5
137
100
AcDbEntity
  8
Layer_1
 62
1
100
AcDbSpline
 70
8
 71
3
 72
8
 73
4
 74
0
 40
0
 40
0
 40
0
 40
0
 40
1
 40
1
 40
1
 40
1
 10
50.574788
 20
86.924123
 30
0.0
 10
50.898605
 20
87.075120
 30
0.0
 10
51.074024
 20
87.430833
 30
0.0
 10
50.996692
 20
87.779657
 30
0.0
  0
SPLINE
  5
138
100
AcDbEntity
  8
Layer_1
 62
1
100
AcDbSpline
 70
8
 71
3
 72
8
 73
4
 74
0
 40
0
 40
0
 40
0
 40
0
 40
1
 40
1
 40
1
 40
1
 10
50.996692
 20
87.779657
 30
0.0
 10
50.919360
 20
88.128480
 30
0.0
 10
50.610045
 20
88.376731
 30
0.0
 10
50.252753
 20
88.376730
 30
0.0
  0
LWPOLYLINE
  5
139
100
AcDbEntity
  8
Layer_1
 62
1
100
AcDbPolyline
 90
1
 70
1
 10
150.636397
 20
165.184185
 30
0.0
  0
SPLINE
  5
13a
100
AcDbEntity
  8
Layer_1
 62
1
100
AcDbSpline
 70
8
 71
3
 72
8
 73
4
 74
0
 40
0
 40
0
 40
0
 40
0
 40
1
 40
1
 40
1
 40
1
 10
41.209425
 20
83.818140
 30
0.0
 10
41.476208
 20
83.246025
 30
0.0
 10
42.156269
 20
82.998504
 30
0.0
 10
42.728385
 20
83.265285
 30
0.0
  0
LWPOLYLINE
  5
13b
100
AcDbEntity
  8
Layer_1
 62
1
100
AcDbPolyline
 90
2
 70
0
 10
50.574788
 20
86.924123
 30
0.0
 10
42.728385
 20
83.265285
 30
0.0
  0
SPLINE
  5
13c
100
AcDbEntity
  8
Layer_1
 62
1
100
AcDbSpline
 70
8
 71
3
 72
8
 73
4
 74
0
 40
0
 40
0
 40
0
 40
0
 40
1
 40
1
 40
1
 40
1
 10
35.976353
 20
95.040495
 30
0.0
 10
35.890944
 20
95.223656
 30
0.0
 10
35.736273
 20
95.365386
 30
0.0
 10
35.546365
 20
95.434507
 30
0.0
  0
SPLINE
  5
13d
100
AcDbEntity
  8
Layer_1
 62
1
100
AcDbSpline
 70
8
 71
3
 72
8
 73
4
 74
0
 40
0
 40
0
 40
0
 40
0
 40
1
 40
1
 40
1
 40
1
 10
35.546365
 20
95.434507
 30
0.0
 10
35.356458
 20
95.503627
 30
0.0
 10
35.146870
 20
95.494477
 30
0.0
 10
34.963710
 20
95.409068
 30
0.0
  0
LWPOLYLINE
  5
13e
100
AcDbEntity
  8
Layer_1
 62
1
100
AcDbPolyline
 90
2
 70
0
 10
41.209425
 20
83.818140
 30
0.0
 10
35.976353
 20
95.040495
 30
0.0
  0
SPLINE
  5
13f
100
AcDbEntity
  8
Layer_1
 62
1
100
AcDbSpline
 70
8
 71
3
 72
8
 73
4
 74
0
 40
0
 40
0
 40
0
 40
0
 40
1
 40
1
 40
1
 40
1
 10
10.101878
 20
83.815808
 30
0.0
 10
9.918717
 20
83.730399
 30
0.0
 10
9.776987
 20
83.575728
 30
0.0
 10
9.707866
 20
83.385820
 30
0.0
  0
SPLINE
  5
140
100
AcDbEntity
  8
Layer_1
 62
1
100
AcDbSpline
 70
8
 71
3
 72
8
 73
4
 74
0
 40
0
 40
0
 40
0
 40
0
 40
1
 40
1
 40
1
 40
1
 10
9.707866
 20
83.385820
 30
0.0
 10
9.638745
 20
83.195913
 30
0.0
 10
9.647896
 20
82.986325
 30
0.0
 10
9.733305
 20
82.803165
 30
0.0
  0
LWPOLYLINE
  5
141
100
AcDbEntity
  8
Layer_1
 62
1
100
AcDbPolyline
 90
2
 70
0
 10
34.963710
 20
95.409068
 30
0.0
 10
10.101878
 20
83.815808
 30
0.0
  0
SPLINE
  5
142
100
AcDbEntity
  8
Layer_1
 62
1
100
AcDbSpline
 70
8
 71
3
 72
8
 73
4
 74
0
 40
0
 40
0
 40
0
 40
0
 40
1
 40
1
 40
1
 40
1
 10
27.364725
 20
44.992447
 30
0.0
 10
27.542585
 20
44.611041
 30
0.0
 10
27.995960
 20
44.446033
 30
0.0
 10
28.377368
 20
44.623890
 30
0.0
  0
LWPOLYLINE
  5
143
100
AcDbEntity
  8
Layer_1
 62
1
100
AcDbPolyline
 90
2
 70
0
 10
9.733305
 20
82.803165
 30
0.0
 10
27.364725
 20
44.992447
 30
0.0
  0
SPLINE
  5
144
100
AcDbEntity
  8
Layer_1
 62
1
100
AcDbSpline
 70
8
 71
3
 72
8
 73
4
 74
0
 40
0
 40
0
 40
0
 40
0
 40
1
 40
1
 40
1
 40
1
 10
66.188078
 20
62.255310
 30
0.0
 10
66.371238
 20
62.340719
 30
0.0
 10
66.512968
 20
62.495390
 30
0.0
 10
66.582089
 20
62.685297
 30
0.0
  0
SPLINE
  5
145
100
AcDbEntity
  8
Layer_1
 62
1
100
AcDbSpline
 70
8
 71
3
 72
8
 73
4
 74
0
 40
0
 40
0
 40
0
 40
0
 40
1
 40
1
 40
1
 40
1
 10
66.582089
 20
62.685297
 30
0.0
 10
66.651210
 20
62.875205
 30
0.0
 10
66.642059
 20
63.084792
 30
0.0
 10
66.556650
 20
63.267953
 30
0.0
  0
LWPOLYLINE
  5
146
100
AcDbEntity
  8
Layer_1
 62
1
100
AcDbPolyline
 90
2
 70
0
 10
28.377368
 20
44.623890
 30
0.0
 10
66.188078
 20
62.255310
 30
0.0
  0
SPLINE
  5
147
100
AcDbEntity
  8
Layer_1
 62
1
100
AcDbSpline
 70
8
 71
3
 72
8
 73
4
 74
0
 40
0
 40
0
 40
0
 40
0
 40
1
 40
1
 40
1
 40
1
 10
56.642378
 20
88.376730
 30
0.0
 10
56.251790
 20
88.376729
 30
0.0
 10
55.888245
 20
88.177281
 30
0.0
 10
55.678383
 20
87.847863
 30
0.0
  0
SPLINE
  5
148
100
AcDbEntity
  8
Layer_1
 62
1
100
AcDbSpline
 70
8
 71
3
 72
8
 73
4
 74
0
 40
0
 40
0
 40
0
 40
0
 40
1
 40
1
 40
1
 40
1
 10
55.678383
 20
87.847863
 30
0.0
 10
55.468521
 20
87.518444
 30
0.0
 10
55.441401
 20
87.104670
 30
0.0
 10
55.606470
 20
86.750678
 30
0.0
  0
LWPOLYLINE
  5
149
100
AcDbEntity
  8
Layer_1
 62
1
100
AcDbPolyline
 90
2
 70
0
 10
66.556650
 20
63.267953
 30
0.0
 10
55.606470
 20
86.750678
 30
0.0
  0
SPLINE
  5
14a
100
AcDbEntity
  8
Layer_1
 62
1
100
AcDbSpline
 70
8
 71
3
 72
8
 73
4
 74
0
 40
0
 40
0
 40
0
 40
0
 40
1
 40
1
 40
1
 40
1
 10
68.646203
 20
87.233730
 30
0.0
 10
68.646203
 20
87.536872
 30
0.0
 10
68.525780
 20
87.827599
 30
0.0
 10
68.311426
 20
88.041953
 30
0.0
  0
SPLINE
  5
14b
100
AcDbEntity
  8
Layer_1
 62
1
100
AcDbSpline
 70
8
 71
3
 72
8
 73
4
 74
0
 40
0
 40
0
 40
0
 40
0
 40
1
 40
1
 40
1
 40
1
 10
68.311426
 20
88.041953
 30
0.0
 10
68.097071
 20
88.256307
 30
0.0
 10
67.806345
 20
88.376730
 30
0.0
 10
67.503202
 20
88.376730
 30
0.0
  0
LWPOLYLINE
  5
14c
100
AcDbEntity
  8
Layer_1
 62
1
100
AcDbPolyline
 90
2
 70
0
 10
56.642378
 20
88.376730
 30
0.0
 10
67.503202
 20
88.376730
 30
0.0
  0
SPLINE
  5
14d
100
AcDbEntity
  8
Layer_1
 62
1
100
AcDbSpline
 70
8
 71
3
 72
8
 73
4
 74
0
 40
0
 40
0
 40
0
 40
0
 40
1
 40
1
 40
1
 40
1
 10
68.646203
 20
75.803730
 30
0.0
 10
68.646203
 20
75.601635
 30
0.0
 10
68.726484
 20
75.407817
 30
0.0
 10
68.869387
 20
75.264915
 30
0.0
  0
SPLINE
  5
14e
100
AcDbEntity
  8
Layer_1
 62
1
100
AcDbSpline
 70
8
 71
3
 72
8
 73
4
 74
0
 40
0
 40
0
 40
0
 40
0
 40
1
 40
1
 40
1
 40
1
 10
68.869387
 20
75.264915
 30
0.0
 10
69.012290
 20
75.122012
 30
0.0
 10
69.206108
 20
75.041730
 30
0.0
 10
69.408202
 20
75.041730
 30
0.0
  0
LWPOLYLINE
  5
14f
100
AcDbEntity
  8
Layer_1
 62
1
100
AcDbPolyline
 90
2
 70
0
 10
68.646203
 20
87.233730
 30
0.0
 10
68.646203
 20
75.803730
 30
0.0
  0
SPLINE
  5
150
100
AcDbEntity
  8
Layer_1
 62
1
100
AcDbSpline
 70
8
 71
3
 72
8
 73
4
 74
0
 40
0
 40
0
 40
0
 40
0
 40
1
 40
1
 40
1
 40
1
 10
82.691723
 20
75.041730
 30
0.0
 10
83.002225
 20
75.041732
 30
0.0
 10
83.281672
 20
75.230136
 30
0.0
 10
83.398110
 20
75.517980
 30
0.0
  0
SPLINE
  5
151
100
AcDbEntity
  8
Layer_1
 62
1
100
AcDbSpline
 70
8
 71
3
 72
8
 73
4
 74
0
 40
0
 40
0
 40
0
 40
0
 40
1
 40
1
 40
1
 40
1
 10
84.457703
 20
76.232355
 30
0.0
 10
83.991945
 20
76.232356
 30
0.0
 10
83.572769
 20
75.949749
 30
0.0
 10
83.398110
 20
75.517980
 30
0.0
  0
LWPOLYLINE
  5
152
100
AcDbEntity
  8
Layer_1
 62
1
100
AcDbPolyline
 90
2
 70
0
 10
69.408202
 20
75.041730
 30
0.0
 10
82.691723
 20
75.041730
 30
0.0
  0
SPLINE
  5
153
100
AcDbEntity
  8
Layer_1
 62
1
100
AcDbSpline
 70
8
 71
3
 72
8
 73
4
 74
0
 40
0
 40
0
 40
0
 40
0
 40
1
 40
1
 40
1
 40
1
 10
97.137795
 20
75.517980
 30
0.0
 10
96.963136
 20
75.949749
 30
0.0
 10
96.543960
 20
76.232356
 30
0.0
 10
96.078203
 20
76.232355
 30
0.0
  0
SPLINE
  5
154
100
AcDbEntity
  8
Layer_1
 62
1
100
AcDbSpline
 70
8
 71
3
 72
8
 73
4
 74
0
 40
0
 40
0
 40
0
 40
0
 40
1
 40
1
 40
1
 40
1
 10
97.137795
 20
75.517980
 30
0.0
 10
97.254233
 20
75.230136
 30
0.0
 10
97.533680
 20
75.041732
 30
0.0
 10
97.844183
 20
75.041730
 30
0.0
  0
LWPOLYLINE
  5
155
100
AcDbEntity
  8
Layer_1
 62
1
100
AcDbPolyline
 90
2
 70
0
 10
84.457703
 20
76.232355
 30
0.0
 10
96.078203
 20
76.232355
 30
0.0
  0
SPLINE
  5
156
100
AcDbEntity
  8
Layer_1
 62
1
100
AcDbSpline
 70
8
 71
3
 72
8
 73
4
 74
0
 40
0
 40
0
 40
0
 40
0
 40
1
 40
1
 40
1
 40
1
 10
111.508702
 20
73.898730
 30
0.0
 10
111.508702
 20
74.201872
 30
0.0
 10
111.388280
 20
74.492599
 30
0.0
 10
111.173926
 20
74.706953
 30
0.0
  0
SPLINE
  5
157
100
AcDbEntity
  8
Layer_1
 62
1
100
AcDbSpline
 70
8
 71
3
 72
8
 73
4
 74
0
 40
0
 40
0
 40
0
 40
0
 40
1
 40
1
 40
1
 40
1
 10
111.173926
 20
74.706953
 30
0.0
 10
110.959571
 20
74.921307
 30
0.0
 10
110.668845
 20
75.041730
 30
0.0
 10
110.365702
 20
75.041730
 30
0.0
  0
LWPOLYLINE
  5
158
100
AcDbEntity
  8
Layer_1
 62
1
100
AcDbPolyline
 90
2
 70
0
 10
97.844183
 20
75.041730
 30
0.0
 10
110.365703
 20
75.041730
 30
0.0
  0
SPLINE
  5
159
100
AcDbEntity
  8
Layer_1
 62
1
100
AcDbSpline
 70
8
 71
3
 72
8
 73
4
 74
0
 40
0
 40
0
 40
0
 40
0
 40
1
 40
1
 40
1
 40
1
 10
111.508702
 20
73.422480
 30
0.0
 10
111.508702
 20
73.220385
 30
0.0
 10
111.588984
 20
73.026567
 30
0.0
 10
111.731887
 20
72.883665
 30
0.0
  0
SPLINE
  5
15a
100
AcDbEntity
  8
Layer_1
 62
1
100
AcDbSpline
 70
8
 71
3
 72
8
 73
4
 74
0
 40
0
 40
0
 40
0
 40
0
 40
1
 40
1
 40
1
 40
1
 10
111.731887
 20
72.883665
 30
0.0
 10
111.874790
 20
72.740762
 30
0.0
 10
112.068608
 20
72.660480
 30
0.0
 10
112.270703
 20
72.660480
 30
0.0
  0
LWPOLYLINE
  5
15b
100
AcDbEntity
  8
Layer_1
 62
1
100
AcDbPolyline
 90
2
 70
0
 10
111.508702
 20
73.898730
 30
0.0
 10
111.508702
 20
73.422480
 30
0.0
  0
SPLINE
  5
15c
100
AcDbEntity
  8
Layer_1
 62
1
100
AcDbSpline
 70
8
 71
3
 72
8
 73
4
 74
0
 40
0
 40
0
 40
0
 40
0
 40
1
 40
1
 40
1
 40
1
 10
139.702703
 20
72.660480
 30
0.0
 10
140.123543
 20
72.660480
 30
0.0
 10
140.464702
 20
73.001639
 30
0.0
 10
140.464702
 20
73.422480
 30
0.0
  0
LWPOLYLINE
  5
15d
100
AcDbEntity
  8
Layer_1
 62
1
100
AcDbPolyline
 90
2
 70
0
 10
112.270702
 20
72.660480
 30
0.0
 10
139.702702
 20
72.660480
 30
0.0
  0
SPLINE
  5
15e
100
AcDbEntity
  8
Layer_1
 62
1
100
AcDbSpline
 70
8
 71
3
 72
8
 73
4
 74
0
 40
0
 40
0
 40
0
 40
0
 40
1
 40
1
 40
1
 40
1
 10
141.607703
 20
86.947980
 30
0.0
 10
141.304560
 20
86.947980
 30
0.0
 10
141.013834
 20
86.827557
 30
0.0
 10
140.799479
 20
86.613203
 30
0.0
  0
SPLINE
  5
15f
100
AcDbEntity
  8
Layer_1
 62
1
100
AcDbSpline
 70
8
 71
3
 72
8
 73
4
 74
0
 40
0
 40
0
 40
0
 40
0
 40
1
 40
1
 40
1
 40
1
 10
140.799479
 20
86.613203
 30
0.0
 10
140.585125
 20
86.398849
 30
0.0
 10
140.464703
 20
86.108122
 30
0.0
 10
140.464703
 20
85.804980
 30
0.0
  0
LWPOLYLINE
  5
160
100
AcDbEntity
  8
Layer_1
 62
1
100
AcDbPolyline
 90
2
 70
0
 10
140.464703
 20
73.422480
 30
0.0
 10
140.464703
 20
85.804980
 30
0.0
  0
LWPOLYLINE
  5
161
100
AcDbEntity
  8
Layer_1
 62
1
100
AcDbPolyline
 90
2
 70
0
 10
141.607703
 20
86.947980
 30
0.0
 10
146.791808
 20
86.947980
 30
0.0
  0
SPLINE
  5
162
100
AcDbEntity
  8
Layer_1
 62
1
100
AcDbSpline
 70
8
 71
3
 72
8
 73
4
 74
0
 40
0
 40
0
 40
0
 40
0
 40
1
 40
1
 40
1
 40
1
 10
111.889703
 20
145.621985
 30
0.0
 10
111.889703
 20
145.318843
 30
0.0
 10
112.010125
 20
145.028116
 30
0.0
 10
112.224479
 20
144.813762
 30
0.0
  0
SPLINE
  5
163
100
AcDbEntity
  8
Layer_1
 62
1
100
AcDbSpline
 70
8
 71
3
 72
8
 73
4
 74
0
 40
0
 40
0
 40
0
 40
0
 40
1
 40
1
 40
1
 40
1
 10
112.224479
 20
144.813762
 30
0.0
 10
112.438834
 20
144.599408
 30
0.0
 10
112.729560
 20
144.478985
 30
0.0
 10
113.032703
 20
144.478985
 30
0.0
  0
LWPOLYLINE
  5
164
100
AcDbEntity
  8
Layer_1
 62
1
100
AcDbPolyline
 90
2
 70
0
 10
146.791807
 20
144.478985
 30
0.0
 10
113.032703
 20
144.478985
 30
0.0
  0
SPLINE
  5
165
100
AcDbEntity
  8
Layer_1
 62
1
100
AcDbSpline
 70
8
 71
3
 72
8
 73
4
 74
0
 40
0
 40
0
 40
0
 40
0
 40
1
 40
1
 40
1
 40
1
 10
111.889703
 20
146.098235
 30
0.0
 10
111.889703
 20
146.300330
 30
0.0
 10
111.809421
 20
146.494148
 30
0.0
 10
111.666518
 20
146.637051
 30
0.0
  0
SPLINE
  5
166
100
AcDbEntity
  8
Layer_1
 62
1
100
AcDbSpline
 70
8
 71
3
 72
8
 73
4
 74
0
 40
0
 40
0
 40
0
 40
0
 40
1
 40
1
 40
1
 40
1
 10
111.666518
 20
146.637051
 30
0.0
 10
111.523615
 20
146.779953
 30
0.0
 10
111.329797
 20
146.860235
 30
0.0
 10
111.127703
 20
146.860235
 30
0.0
  0
LWPOLYLINE
  5
167
100
AcDbEntity
  8
Layer_1
 62
1
100
AcDbPolyline
 90
2
 70
0
 10
111.889703
 20
145.621985
 30
0.0
 10
111.889703
 20
146.098235
 30
0.0
  0
SPLINE
  5
168
100
AcDbEntity
  8
Layer_1
 62
1
100
AcDbSpline
 70
8
 71
3
 72
8
 73
4
 74
0
 40
0
 40
0
 40
0
 40
0
 40
1
 40
1
 40
1
 40
1
 10
97.685610
 20
147.574610
 30
0.0
 10
97.860269
 20
147.142841
 30
0.0
 10
98.279445
 20
146.860234
 30
0.0
 10
98.745202
 20
146.860235
 30
0.0
  0
SPLINE
  5
169
100
AcDbEntity
  8
Layer_1
 62
1
100
AcDbSpline
 70
8
 71
3
 72
8
 73
4
 74
0
 40
0
 40
0
 40
0
 40
0
 40
1
 40
1
 40
1
 40
1
 10
97.685610
 20
147.574610
 30
0.0
 10
97.569172
 20
147.862454
 30
0.0
 10
97.289725
 20
148.050858
 30
0.0
 10
96.979222
 20
148.050860
 30
0.0
  0
LWPOLYLINE
  5
16a
100
AcDbEntity
  8
Layer_1
 62
1
100
AcDbPolyline
 90
2
 70
0
 10
111.127702
 20
146.860235
 30
0.0
 10
98.745202
 20
146.860235
 30
0.0
  0
SPLINE
  5
16b
100
AcDbEntity
  8
Layer_1
 62
1
100
AcDbSpline
 70
8
 71
3
 72
8
 73
4
 74
0
 40
0
 40
0
 40
0
 40
0
 40
1
 40
1
 40
1
 40
1
 10
83.556683
 20
148.050860
 30
0.0
 10
83.246180
 20
148.050858
 30
0.0
 10
82.966733
 20
147.862454
 30
0.0
 10
82.850295
 20
147.574610
 30
0.0
  0
SPLINE
  5
16c
100
AcDbEntity
  8
Layer_1
 62
1
100
AcDbSpline
 70
8
 71
3
 72
8
 73
4
 74
0
 40
0
 40
0
 40
0
 40
0
 40
1
 40
1
 40
1
 40
1
 10
81.790703
 20
146.860235
 30
0.0
 10
82.256460
 20
146.860234
 30
0.0
 10
82.675636
 20
147.142841
 30
0.0
 10
82.850295
 20
147.574610
 30
0.0
  0
LWPOLYLINE
  5
16d
100
AcDbEntity
  8
Layer_1
 62
1
100
AcDbPolyline
 90
2
 70
0
 10
96.979223
 20
148.050860
 30
0.0
 10
83.556683
 20
148.050860
 30
0.0
  0
SPLINE
  5
16e
100
AcDbEntity
  8
Layer_1
 62
1
100
AcDbSpline
 70
8
 71
3
 72
8
 73
4
 74
0
 40
0
 40
0
 40
0
 40
0
 40
1
 40
1
 40
1
 40
1
 10
69.152985
 20
146.860235
 30
0.0
 10
68.880749
 20
146.860235
 30
0.0
 10
68.629193
 20
146.714998
 30
0.0
 10
68.493075
 20
146.479235
 30
0.0
  0
SPLINE
  5
16f
100
AcDbEntity
  8
Layer_1
 62
1
100
AcDbSpline
 70
8
 71
3
 72
8
 73
4
 74
0
 40
0
 40
0
 40
0
 40
0
 40
1
 40
1
 40
1
 40
1
 10
67.503202
 20
145.907735
 30
0.0
 10
67.911559
 20
145.907733
 30
0.0
 10
68.288897
 20
146.125588
 30
0.0
 10
68.493075
 20
146.479235
 30
0.0
  0
LWPOLYLINE
  5
170
100
AcDbEntity
  8
Layer_1
 62
1
100
AcDbPolyline
 90
2
 70
0
 10
81.790703
 20
146.860235
 30
0.0
 10
69.152985
 20
146.860235
 30
0.0
  0
SPLINE
  5
171
100
AcDbEntity
  8
Layer_1
 62
1
100
AcDbSpline
 70
8
 71
3
 72
8
 73
4
 74
0
 40
0
 40
0
 40
0
 40
0
 40
1
 40
1
 40
1
 40
1
 10
40.833203
 20
145.907735
 30
0.0
 10
40.631108
 20
145.907735
 30
0.0
 10
40.437290
 20
145.827453
 30
0.0
 10
40.294387
 20
145.684551
 30
0.0
  0
SPLINE
  5
172
100
AcDbEntity
  8
Layer_1
 62
1
100
AcDbSpline
 70
8
 71
3
 72
8
 73
4
 74
0
 40
0
 40
0
 40
0
 40
0
 40
1
 40
1
 40
1
 40
1
 10
40.294387
 20
145.684551
 30
0.0
 10
40.151484
 20
145.541648
 30
0.0
 10
40.071203
 20
145.347830
 30
0.0
 10
40.071203
 20
145.145735
 30
0.0
  0
LWPOLYLINE
  5
173
100
AcDbEntity
  8
Layer_1
 62
1
100
AcDbPolyline
 90
2
 70
0
 10
67.503202
 20
145.907735
 30
0.0
 10
40.833203
 20
145.907735
 30
0.0
  0
SPLINE
  5
174
100
AcDbEntity
  8
Layer_1
 62
1
100
AcDbSpline
 70
8
 71
3
 72
8
 73
4
 74
0
 40
0
 40
0
 40
0
 40
0
 40
1
 40
1
 40
1
 40
1
 10
40.071203
 20
89.138730
 30
0.0
 10
40.071203
 20
88.936635
 30
0.0
 10
40.151484
 20
88.742817
 30
0.0
 10
40.294387
 20
88.599915
 30
0.0
  0
SPLINE
  5
175
100
AcDbEntity
  8
Layer_1
 62
1
100
AcDbSpline
 70
8
 71
3
 72
8
 73
4
 74
0
 40
0
 40
0
 40
0
 40
0
 40
1
 40
1
 40
1
 40
1
 10
40.294387
 20
88.599915
 30
0.0
 10
40.437290
 20
88.457012
 30
0.0
 10
40.631108
 20
88.376730
 30
0.0
 10
40.833203
 20
88.376730
 30
0.0
  0
LWPOLYLINE
  5
176
100
AcDbEntity
  8
Layer_1
 62
1
100
AcDbPolyline
 90
2
 70
0
 10
40.071202
 20
145.145735
 30
0.0
 10
40.071202
 20
89.138730
 30
0.0
  0
LWPOLYLINE
  5
177
100
AcDbEntity
  8
Layer_1
 62
1
100
AcDbPolyline
 90
2
 70
0
 10
40.833203
 20
88.376730
 30
0.0
 10
50.252752
 20
88.376730
 30
0.0
  0
LWPOLYLINE
  5
178
100
AcDbEntity
  8
Layer_1
 62
1
100
AcDbPolyline
 90
3
 70
0
 10
53.103465
 20
164.921743
 30
0.0
 10
53.103465
 20
154.796742
 30
0.0
 10
62.681557
 20
154.796742
 30
0.0
  0
LWPOLYLINE
  5
179
100
AcDbEntity
  8
Layer_1
 62
1
100
AcDbPolyline
 90
2
 70
0
 10
60.228465
 20
166.047328
 30
0.0
 10
60.646283
 20
166.047328
 30
0.0
  0
LWPOLYLINE
  5
17a
100
AcDbEntity
  8
Layer_1
 62
1
100
AcDbPolyline
 90
2
 70
0
 10
55.138733
 20
166.047328
 30
0.0
 10
55.728457
 20
166.047328
 30
0.0
  0
LWPOLYLINE
  5
17b
100
AcDbEntity
  8
Layer_1
 62
1
100
AcDbPolyline
 90
2
 70
0
 10
60.646283
 20
166.047328
 30
0.0
 10
71.056058
 20
169.882094
 30
0.0
  0
LWPOLYLINE
  5
17c
100
AcDbEntity
  8
Layer_1
 62
1
100
AcDbPolyline
 90
2
 70
0
 10
62.681557
 20
164.921743
 30
0.0
 10
53.103465
 20
164.921743
 30
0.0
  0
LWPOLYLINE
  5
17d
100
AcDbEntity
  8
Layer_1
 62
1
100
AcDbPolyline
 90
2
 70
0
 10
62.681557
 20
154.796742
 30
0.0
 10
62.681557
 20
164.921743
 30
0.0
  0
SPLINE
  5
17e
100
AcDbEntity
  8
Layer_1
 62
1
100
AcDbSpline
 70
8
 71
3
 72
8
 73
4
 74
0
 40
0
 40
0
 40
0
 40
0
 40
1
 40
1
 40
1
 40
1
 10
30.362797
 20
100.707375
 30
0.0
 10
32.212037
 20
101.569616
 30
0.0
 10
33.394210
 20
103.425192
 30
0.0
 10
33.394207
 20
105.465570
 30
0.0
  0
SPLINE
  5
17f
100
AcDbEntity
  8
Layer_1
 62
1
100
AcDbSpline
 70
8
 71
3
 72
8
 73
4
 74
0
 40
0
 40
0
 40
0
 40
0
 40
1
 40
1
 40
1
 40
1
 10
147.541807
 20
143.728984
 30
0.0
 10
147.541808
 20
143.927897
 30
0.0
 10
147.462790
 20
144.118663
 30
0.0
 10
147.322138
 20
144.259315
 30
0.0
  0
SPLINE
  5
180
100
AcDbEntity
  8
Layer_1
 62
1
100
AcDbSpline
 70
8
 71
3
 72
8
 73
4
 74
0
 40
0
 40
0
 40
0
 40
0
 40
1
 40
1
 40
1
 40
1
 10
147.322138
 20
144.259315
 30
0.0
 10
147.181486
 20
144.399967
 30
0.0
 10
146.990720
 20
144.478985
 30
0.0
 10
146.791807
 20
144.478985
 30
0.0
  0
SPLINE
  5
181
100
AcDbEntity
  8
Layer_1
 62
1
100
AcDbSpline
 70
8
 71
3
 72
8
 73
4
 74
0
 40
0
 40
0
 40
0
 40
0
 40
1
 40
1
 40
1
 40
1
 10
146.791807
 20
86.947980
 30
0.0
 10
147.206021
 20
86.947980
 30
0.0
 10
147.541807
 20
87.283766
 30
0.0
 10
147.541807
 20
87.697980
 30
0.0
  0
LWPOLYLINE
  5
182
100
AcDbEntity
  8
Layer_1
 62
1
100
AcDbPolyline
 90
3
 70
0
 10
71.056058
 20
169.882094
 30
0.0
 10
85.362607
 20
169.882094
 30
0.0
 10
107.327092
 20
169.882094
 30
0.0
  0
SPLINE
  5
183
100
AcDbEntity
  8
Layer_1
 62
1
100
AcDbSpline
 70
8
 71
3
 72
8
 73
4
 74
0
 40
0
 40
0
 40
0
 40
0
 40
1
 40
1
 40
1
 40
1
 10
148.959307
 20
9.278138
 30
0.0
 10
150.351694
 20
9.278138
 30
0.0
 10
151.687052
 20
9.831261
 30
0.0
 10
152.671618
 20
10.815827
 30
0.0
  0
SPLINE
  5
184
100
AcDbEntity
  8
Layer_1
 62
1
100
AcDbSpline
 70
8
 71
3
 72
8
 73
4
 74
0
 40
0
 40
0
 40
0
 40
0
 40
1
 40
1
 40
1
 40
1
 10
152.671618
 20
10.815827
 30
0.0
 10
153.656184
 20
11.800393
 30
0.0
 10
154.209307
 20
13.135751
 30
0.0
 10
154.209307
 20
14.528138
 30
0.0
  0
SPLINE
  5
185
100
AcDbEntity
  8
Layer_1
 62
1
100
AcDbSpline
 70
8
 71
3
 72
8
 73
4
 74
0
 40
0
 40
0
 40
0
 40
0
 40
1
 40
1
 40
1
 40
1
 10
35.284425
 20
12.309413
 30
0.0
 10
36.146693
 20
10.460251
 30
0.0
 10
38.002225
 20
9.278140
 30
0.0
 10
40.042545
 20
9.278138
 30
0.0
  0
SPLINE
  5
186
100
AcDbEntity
  8
Layer_1
 62
1
100
AcDbSpline
 70
8
 71
3
 72
8
 73
4
 74
0
 40
0
 40
0
 40
0
 40
0
 40
1
 40
1
 40
1
 40
1
 10
150.636397
 20
13.976070
 30
0.0
 10
150.636397
 20
14.377994
 30
0.0
 10
150.421974
 20
14.749387
 30
0.0
 10
150.073897
 20
14.950349
 30
0.0
  0
SPLINE
  5
187
100
AcDbEntity
  8
Layer_1
 62
1
100
AcDbSpline
 70
8
 71
3
 72
8
 73
4
 74
0
 40
0
 40
0
 40
0
 40
0
 40
1
 40
1
 40
1
 40
1
 10
150.073897
 20
14.950349
 30
0.0
 10
149.725821
 20
15.151310
 30
0.0
 10
149.296974
 20
15.151310
 30
0.0
 10
148.948897
 20
14.950349
 30
0.0
  0
SPLINE
  5
188
100
AcDbEntity
  8
Layer_1
 62
1
100
AcDbSpline
 70
8
 71
3
 72
8
 73
4
 74
0
 40
0
 40
0
 40
0
 40
0
 40
1
 40
1
 40
1
 40
1
 10
148.948897
 20
14.950349
 30
0.0
 10
148.600821
 20
14.749387
 30
0.0
 10
148.386397
 20
14.377994
 30
0.0
 10
148.386397
 20
13.976070
 30
0.0
  0
SPLINE
  5
189
100
AcDbEntity
  8
Layer_1
 62
1
100
AcDbSpline
 70
8
 71
3
 72
8
 73
4
 74
0
 40
0
 40
0
 40
0
 40
0
 40
1
 40
1
 40
1
 40
1
 10
148.386397
 20
13.976070
 30
0.0
 10
148.386397
 20
13.574146
 30
0.0
 10
148.600821
 20
13.202753
 30
0.0
 10
148.948897
 20
13.001791
 30
0.0
  0
SPLINE
  5
18a
100
AcDbEntity
  8
Layer_1
 62
1
100
AcDbSpline
 70
8
 71
3
 72
8
 73
4
 74
0
 40
0
 40
0
 40
0
 40
0
 40
1
 40
1
 40
1
 40
1
 10
148.948897
 20
13.001791
 30
0.0
 10
149.296974
 20
12.800830
 30
0.0
 10
149.725821
 20
12.800830
 30
0.0
 10
150.073897
 20
13.001791
 30
0.0
  0
SPLINE
  5
18b
100
AcDbEntity
  8
Layer_1
 62
1
100
AcDbSpline
 70
8
 71
3
 72
8
 73
4
 74
0
 40
0
 40
0
 40
0
 40
0
 40
1
 40
1
 40
1
 40
1
 10
150.073897
 20
13.001791
 30
0.0
 10
150.421974
 20
13.202753
 30
0.0
 10
150.636397
 20
13.574146
 30
0.0
 10
150.636397
 20
13.976070
 30
0.0
  0
LWPOLYLINE
  5
18c
100
AcDbEntity
  8
Layer_1
 62
1
100
AcDbPolyline
 90
2
 70
0
 10
40.042545
 20
9.278138
 30
0.0
 10
148.959307
 20
9.278138
 30
0.0
  0
SPLINE
  5
18d
100
AcDbEntity
  8
Layer_1
 62
1
100
AcDbSpline
 70
8
 71
3
 72
8
 73
4
 74
0
 40
0
 40
0
 40
0
 40
0
 40
1
 40
1
 40
1
 40
1
 10
40.628550
 20
13.682100
 30
0.0
 10
40.629014
 20
14.084333
 30
0.0
 10
40.414692
 20
14.456211
 30
0.0
 10
40.066425
 20
14.657462
 30
0.0
  0
SPLINE
  5
18e
100
AcDbEntity
  8
Layer_1
 62
1
100
AcDbSpline
 70
8
 71
3
 72
8
 73
4
 74
0
 40
0
 40
0
 40
0
 40
0
 40
1
 40
1
 40
1
 40
1
 10
40.066425
 20
14.657462
 30
0.0
 10
39.718158
 20
14.858712
 30
0.0
 10
39.288942
 20
14.858712
 30
0.0
 10
38.940675
 20
14.657462
 30
0.0
  0
SPLINE
  5
18f
100
AcDbEntity
  8
Layer_1
 62
1
100
AcDbSpline
 70
8
 71
3
 72
8
 73
4
 74
0
 40
0
 40
0
 40
0
 40
0
 40
1
 40
1
 40
1
 40
1
 10
38.940675
 20
14.657462
 30
0.0
 10
38.592408
 20
14.456211
 30
0.0
 10
38.378086
 20
14.084333
 30
0.0
 10
38.378550
 20
13.682100
 30
0.0
  0
SPLINE
  5
190
100
AcDbEntity
  8
Layer_1
 62
1
100
AcDbSpline
 70
8
 71
3
 72
8
 73
4
 74
0
 40
0
 40
0
 40
0
 40
0
 40
1
 40
1
 40
1
 40
1
 10
38.378550
 20
13.682100
 30
0.0
 10
38.378086
 20
13.279867
 30
0.0
 10
38.592408
 20
12.907989
 30
0.0
 10
38.940675
 20
12.706738
 30
0.0
  0
SPLINE
  5
191
100
AcDbEntity
  8
Layer_1
 62
1
100
AcDbSpline
 70
8
 71
3
 72
8
 73
4
 74
0
 40
0
 40
0
 40
0
 40
0
 40
1
 40
1
 40
1
 40
1
 10
38.940675
 20
12.706738
 30
0.0
 10
39.288942
 20
12.505488
 30
0.0
 10
39.718158
 20
12.505488
 30
0.0
 10
40.066425
 20
12.706738
 30
0.0
  0
SPLINE
  5
192
100
AcDbEntity
  8
Layer_1
 62
1
100
AcDbSpline
 70
8
 71
3
 72
8
 73
4
 74
0
 40
0
 40
0
 40
0
 40
0
 40
1
 40
1
 40
1
 40
1
 10
40.066425
 20
12.706738
 30
0.0
 10
40.414692
 20
12.907989
 30
0.0
 10
40.629014
 20
13.279867
 30
0.0
 10
40.628550
 20
13.682100
 30
0.0
  0
LWPOLYLINE
  5
193
100
AcDbEntity
  8
Layer_1
 62
1
100
AcDbPolyline
 90
1
 70
1
 10
150.636397
 20
13.976070
 30
0.0
  0
LWPOLYLINE
  5
194
100
AcDbEntity
  8
Layer_1
 62
1
100
AcDbPolyline
 90
1
 70
1
 10
40.628550
 20
13.682100
 30
0.0
  0
LWPOLYLINE
  5
195
100
AcDbEntity
  8
Layer_1
 62
1
100
AcDbPolyline
 90
1
 70
1
 10
22.209308
 20
44.108587
 30
0.0
  0
LWPOLYLINE
  5
196
100
AcDbEntity
  8
Layer_1
 62
1
100
AcDbPolyline
 90
2
 70
0
 10
154.209307
 20
14.528138
 30
0.0
 10
154.209307
 20
164.632092
 30
0.0
  0
LWPOLYLINE
  5
197
100
AcDbEntity
  8
Layer_1
 62
1
100
AcDbPolyline
 90
2
 70
0
 10
2.765595
 20
82.046865
 30
0.0
 10
35.284425
 20
12.309413
 30
0.0
  0
LWPOLYLINE
  5
198
100
AcDbEntity
  8
Layer_1
 62
1
100
AcDbPolyline
 90
4
 70
1
 10
98.405235
 20
164.201829
 30
0.0
 10
146.132265
 20
164.201829
 30
0.0
 10
146.132265
 20
148.608781
 30
0.0
 10
98.405235
 20
148.608781
 30
0.0
  0
SPLINE
  5
199
100
AcDbEntity
  8
Layer_1
 62
1
100
AcDbSpline
 70
8
 71
3
 72
8
 73
4
 74
0
 40
0
 40
0
 40
0
 40
0
 40
1
 40
1
 40
1
 40
1
 10
79.901280
 20
348.544035
 30
0.0
 10
79.901744
 20
348.946268
 30
0.0
 10
79.687422
 20
349.318146
 30
0.0
 10
79.339155
 20
349.519397
 30
0.0
  0
SPLINE
  5
19a
100
AcDbEntity
  8
Layer_1
 62
1
100
AcDbSpline
 70
8
 71
3
 72
8
 73
4
 74
0
 40
0
 40
0
 40
0
 40
0
 40
1
 40
1
 40
1
 40
1
 10
79.339155
 20
349.519397
 30
0.0
 10
78.990888
 20
349.720647
 30
0.0
 10
78.561671
 20
349.720647
 30
0.0
 10
78.213404
 20
349.519397
 30
0.0
  0
SPLINE
  5
19b
100
AcDbEntity
  8
Layer_1
 62
1
100
AcDbSpline
 70
8
 71
3
 72
8
 73
4
 74
0
 40
0
 40
0
 40
0
 40
0
 40
1
 40
1
 40
1
 40
1
 10
78.213404
 20
349.519397
 30
0.0
 10
77.865137
 20
349.318146
 30
0.0
 10
77.650815
 20
348.946268
 30
0.0
 10
77.651280
 20
348.544035
 30
0.0
  0
SPLINE
  5
19c
100
AcDbEntity
  8
Layer_1
 62
1
100
AcDbSpline
 70
8
 71
3
 72
8
 73
4
 74
0
 40
0
 40
0
 40
0
 40
0
 40
1
 40
1
 40
1
 40
1
 10
77.651280
 20
348.544035
 30
0.0
 10
77.650815
 20
348.141802
 30
0.0
 10
77.865137
 20
347.769924
 30
0.0
 10
78.213404
 20
347.568673
 30
0.0
  0
SPLINE
  5
19d
100
AcDbEntity
  8
Layer_1
 62
1
100
AcDbSpline
 70
8
 71
3
 72
8
 73
4
 74
0
 40
0
 40
0
 40
0
 40
0
 40
1
 40
1
 40
1
 40
1
 10
78.213404
 20
347.568673
 30
0.0
 10
78.561671
 20
347.367423
 30
0.0
 10
78.990888
 20
347.367423
 30
0.0
 10
79.339155
 20
347.568673
 30
0.0
  0
SPLINE
  5
19e
100
AcDbEntity
  8
Layer_1
 62
1
100
AcDbSpline
 70
8
 71
3
 72
8
 73
4
 74
0
 40
0
 40
0
 40
0
 40
0
 40
1
 40
1
 40
1
 40
1
 10
79.339155
 20
347.568673
 30
0.0
 10
79.687422
 20
347.769924
 30
0.0
 10
79.901744
 20
348.141802
 30
0.0
 10
79.901280
 20
348.544035
 30
0.0
  0
LWPOLYLINE
  5
19f
100
AcDbEntity
  8
Layer_1
 62
1
100
AcDbPolyline
 90
4
 70
0
 10
40.628665
 20
278.154290
 30
0.0
 10
36.952017
 20
278.154290
 30
0.0
 10
12.133698
 20
266.581462
 30
0.0
 10
10.981173
 20
263.417260
 30
0.0
  0
SPLINE
  5
1a0
100
AcDbEntity
  8
Layer_1
 62
1
100
AcDbSpline
 70
8
 71
3
 72
8
 73
4
 74
0
 40
0
 40
0
 40
0
 40
0
 40
1
 40
1
 40
1
 40
1
 10
39.788838
 20
347.179876
 30
0.0
 10
39.789407
 20
347.582179
 30
0.0
 10
39.575108
 20
347.954165
 30
0.0
 10
39.226798
 20
348.155481
 30
0.0
  0
SPLINE
  5
1a1
100
AcDbEntity
  8
Layer_1
 62
1
100
AcDbSpline
 70
8
 71
3
 72
8
 73
4
 74
0
 40
0
 40
0
 40
0
 40
0
 40
1
 40
1
 40
1
 40
1
 10
39.226798
 20
348.155481
 30
0.0
 10
38.878488
 20
348.356796
 30
0.0
 10
38.449189
 20
348.356796
 30
0.0
 10
38.100880
 20
348.155481
 30
0.0
  0
SPLINE
  5
1a2
100
AcDbEntity
  8
Layer_1
 62
1
100
AcDbSpline
 70
8
 71
3
 72
8
 73
4
 74
0
 40
0
 40
0
 40
0
 40
0
 40
1
 40
1
 40
1
 40
1
 10
38.100880
 20
348.155481
 30
0.0
 10
37.752570
 20
347.954165
 30
0.0
 10
37.538271
 20
347.582179
 30
0.0
 10
37.538840
 20
347.179876
 30
0.0
  0
SPLINE
  5
1a3
100
AcDbEntity
  8
Layer_1
 62
1
100
AcDbSpline
 70
8
 71
3
 72
8
 73
4
 74
0
 40
0
 40
0
 40
0
 40
0
 40
1
 40
1
 40
1
 40
1
 10
37.538840
 20
347.179876
 30
0.0
 10
37.538271
 20
346.777574
 30
0.0
 10
37.752570
 20
346.405588
 30
0.0
 10
38.100880
 20
346.204272
 30
0.0
  0
SPLINE
  5
1a4
100
AcDbEntity
  8
Layer_1
 62
1
100
AcDbSpline
 70
8
 71
3
 72
8
 73
4
 74
0
 40
0
 40
0
 40
0
 40
0
 40
1
 40
1
 40
1
 40
1
 10
38.100880
 20
346.204272
 30
0.0
 10
38.449189
 20
346.002957
 30
0.0
 10
38.878488
 20
346.002957
 30
0.0
 10
39.226798
 20
346.204272
 30
0.0
  0
SPLINE
  5
1a5
100
AcDbEntity
  8
Layer_1
 62
1
100
AcDbSpline
 70
8
 71
3
 72
8
 73
4
 74
0
 40
0
 40
0
 40
0
 40
0
 40
1
 40
1
 40
1
 40
1
 10
39.226798
 20
346.204272
 30
0.0
 10
39.575108
 20
346.405588
 30
0.0
 10
39.789407
 20
346.777574
 30
0.0
 10
39.788838
 20
347.179876
 30
0.0
  0
LWPOLYLINE
  5
1a6
100
AcDbEntity
  8
Layer_1
 62
1
100
AcDbPolyline
 90
1
 70
1
 10
79.901280
 20
348.544035
 30
0.0
  0
SPLINE
  5
1a7
100
AcDbEntity
  8
Layer_1
 62
1
100
AcDbSpline
 70
8
 71
3
 72
8
 73
4
 74
0
 40
0
 40
0
 40
0
 40
0
 40
1
 40
1
 40
1
 40
1
 10
154.776255
 20
346.627783
 30
0.0
 10
154.776255
 20
348.020170
 30
0.0
 10
154.223131
 20
349.355528
 30
0.0
 10
153.238565
 20
350.340094
 30
0.0
  0
SPLINE
  5
1a8
100
AcDbEntity
  8
Layer_1
 62
1
100
AcDbSpline
 70
8
 71
3
 72
8
 73
4
 74
0
 40
0
 40
0
 40
0
 40
0
 40
1
 40
1
 40
1
 40
1
 10
153.238565
 20
350.340094
 30
0.0
 10
152.253999
 20
351.324660
 30
0.0
 10
150.918641
 20
351.877783
 30
0.0
 10
149.526255
 20
351.877783
 30
0.0
  0
SPLINE
  5
1a9
100
AcDbEntity
  8
Layer_1
 62
1
100
AcDbSpline
 70
8
 71
3
 72
8
 73
4
 74
0
 40
0
 40
0
 40
0
 40
0
 40
1
 40
1
 40
1
 40
1
 10
39.211165
 20
351.877783
 30
0.0
 10
36.311672
 20
351.877781
 30
0.0
 10
33.961170
 20
349.527277
 30
0.0
 10
33.961170
 20
346.627784
 30
0.0
  0
SPLINE
  5
1aa
100
AcDbEntity
  8
Layer_1
 62
1
100
AcDbSpline
 70
8
 71
3
 72
8
 73
4
 74
0
 40
0
 40
0
 40
0
 40
0
 40
1
 40
1
 40
1
 40
1
 10
5.872103
 20
271.019521
 30
0.0
 10
4.610135
 20
270.431103
 30
0.0
 10
3.633607
 20
269.365462
 30
0.0
 10
3.157351
 20
268.057036
 30
0.0
  0
SPLINE
  5
1ab
100
AcDbEntity
  8
Layer_1
 62
1
100
AcDbSpline
 70
8
 71
3
 72
8
 73
4
 74
0
 40
0
 40
0
 40
0
 40
0
 40
1
 40
1
 40
1
 40
1
 10
3.157351
 20
268.057036
 30
0.0
 10
2.681095
 20
266.748609
 30
0.0
 10
2.744124
 20
265.304579
 30
0.0
 10
3.332573
 20
264.042625
 30
0.0
  0
SPLINE
  5
1ac
100
AcDbEntity
  8
Layer_1
 62
1
100
AcDbSpline
 70
8
 71
3
 72
8
 73
4
 74
0
 40
0
 40
0
 40
0
 40
0
 40
1
 40
1
 40
1
 40
1
 10
8.482386
 20
266.528205
 30
0.0
 10
8.482386
 20
266.930129
 30
0.0
 10
8.267962
 20
267.301522
 30
0.0
 10
7.919886
 20
267.502484
 30
0.0
  0
SPLINE
  5
1ad
100
AcDbEntity
  8
Layer_1
 62
1
100
AcDbSpline
 70
8
 71
3
 72
8
 73
4
 74
0
 40
0
 40
0
 40
0
 40
0
 40
1
 40
1
 40
1
 40
1
 10
7.919886
 20
267.502484
 30
0.0
 10
7.571809
 20
267.703445
 30
0.0
 10
7.142962
 20
267.703445
 30
0.0
 10
6.794886
 20
267.502484
 30
0.0
  0
SPLINE
  5
1ae
100
AcDbEntity
  8
Layer_1
 62
1
100
AcDbSpline
 70
8
 71
3
 72
8
 73
4
 74
0
 40
0
 40
0
 40
0
 40
0
 40
1
 40
1
 40
1
 40
1
 10
6.794886
 20
267.502484
 30
0.0
 10
6.446809
 20
267.301522
 30
0.0
 10
6.232386
 20
266.930129
 30
0.0
 10
6.232386
 20
266.528205
 30
0.0
  0
SPLINE
  5
1af
100
AcDbEntity
  8
Layer_1
 62
1
100
AcDbSpline
 70
8
 71
3
 72
8
 73
4
 74
0
 40
0
 40
0
 40
0
 40
0
 40
1
 40
1
 40
1
 40
1
 10
6.232386
 20
266.528205
 30
0.0
 10
6.232386
 20
266.126281
 30
0.0
 10
6.446809
 20
265.754888
 30
0.0
 10
6.794886
 20
265.553926
 30
0.0
  0
SPLINE
  5
1b0
100
AcDbEntity
  8
Layer_1
 62
1
100
AcDbSpline
 70
8
 71
3
 72
8
 73
4
 74
0
 40
0
 40
0
 40
0
 40
0
 40
1
 40
1
 40
1
 40
1
 10
6.794886
 20
265.553926
 30
0.0
 10
7.142962
 20
265.352965
 30
0.0
 10
7.571809
 20
265.352965
 30
0.0
 10
7.919886
 20
265.553926
 30
0.0
  0
SPLINE
  5
1b1
100
AcDbEntity
  8
Layer_1
 62
1
100
AcDbSpline
 70
8
 71
3
 72
8
 73
4
 74
0
 40
0
 40
0
 40
0
 40
0
 40
1
 40
1
 40
1
 40
1
 10
7.919886
 20
265.553926
 30
0.0
 10
8.267962
 20
265.754888
 30
0.0
 10
8.482386
 20
266.126281
 30
0.0
 10
8.482386
 20
266.528205
 30
0.0
  0
LWPOLYLINE
  5
1b2
100
AcDbEntity
  8
Layer_1
 62
1
100
AcDbPolyline
 90
1
 70
1
 10
39.788838
 20
347.179876
 30
0.0
  0
SPLINE
  5
1b3
100
AcDbEntity
  8
Layer_1
 62
1
100
AcDbSpline
 70
8
 71
3
 72
8
 73
4
 74
0
 40
0
 40
0
 40
0
 40
0
 40
1
 40
1
 40
1
 40
1
 10
30.929760
 20
282.703077
 30
0.0
 10
32.778997
 20
283.565317
 30
0.0
 10
33.961170
 20
285.420890
 30
0.0
 10
33.961170
 20
287.461266
 30
0.0
  0
LWPOLYLINE
  5
1b4
100
AcDbEntity
  8
Layer_1
 62
1
100
AcDbPolyline
 90
1
 70
1
 10
8.482386
 20
266.528205
 30
0.0
  0
LWPOLYLINE
  5
1b5
100
AcDbEntity
  8
Layer_1
 62
1
100
AcDbPolyline
 90
4
 70
0
 10
10.981173
 20
263.417260
 30
0.0
 10
27.244142
 20
228.540540
 30
0.0
 10
30.408345
 20
227.389920
 30
0.0
 10
89.034705
 20
254.722844
 30
0.0
  0
LWPOLYLINE
  5
1b6
100
AcDbEntity
  8
Layer_1
 62
1
100
AcDbPolyline
 90
3
 70
0
 10
55.705689
 20
348.043020
 30
0.0
 10
61.213229
 20
348.043020
 30
0.0
 10
71.622997
 20
351.877783
 30
0.0
  0
LWPOLYLINE
  5
1b7
100
AcDbEntity
  8
Layer_1
 62
1
100
AcDbPolyline
 90
2
 70
0
 10
45.295913
 20
351.877783
 30
0.0
 10
55.705689
 20
348.043020
 30
0.0
  0
LWPOLYLINE
  5
1b8
100
AcDbEntity
  8
Layer_1
 62
1
100
AcDbPolyline
 90
3
 70
0
 10
64.955502
 20
346.543783
 30
0.0
 10
52.077708
 20
346.543783
 30
0.0
 10
52.077708
 20
345.210285
 30
0.0
  0
LWPOLYLINE
  5
1b9
100
AcDbEntity
  8
Layer_1
 62
1
100
AcDbPolyline
 90
2
 70
0
 10
45.295913
 20
351.877783
 30
0.0
 10
39.211165
 20
351.877783
 30
0.0
  0
LWPOLYLINE
  5
1ba
100
AcDbEntity
  8
Layer_1
 62
1
100
AcDbPolyline
 90
2
 70
0
 10
101.226705
 20
345.210285
 30
0.0
 10
101.226705
 20
346.543783
 30
0.0
  0
LWPOLYLINE
  5
1bb
100
AcDbEntity
  8
Layer_1
 62
1
100
AcDbPolyline
 90
2
 70
0
 10
33.961170
 20
346.627783
 30
0.0
 10
33.961170
 20
287.461266
 30
0.0
  0
LWPOLYLINE
  5
1bc
100
AcDbEntity
  8
Layer_1
 62
1
100
AcDbPolyline
 90
3
 70
0
 10
101.226705
 20
346.543783
 30
0.0
 10
92.597055
 20
346.543783
 30
0.0
 10
92.597055
 20
345.210285
 30
0.0
  0
LWPOLYLINE
  5
1bd
100
AcDbEntity
  8
Layer_1
 62
1
100
AcDbPolyline
 90
2
 70
0
 10
149.526255
 20
351.877783
 30
0.0
 10
107.894040
 20
351.877783
 30
0.0
  0
LWPOLYLINE
  5
1be
100
AcDbEntity
  8
Layer_1
 62
1
100
AcDbPolyline
 90
6
 70
0
 10
89.034705
 20
254.722844
 30
0.0
 10
140.965005
 20
254.722844
 30
0.0
 10
148.108755
 20
261.866590
 30
0.0
 10
148.108755
 20
342.829036
 30
0.0
 10
145.727505
 20
345.210285
 30
0.0
 10
101.226705
 20
345.210285
 30
0.0
  0
LWPOLYLINE
  5
1bf
100
AcDbEntity
  8
Layer_1
 62
1
100
AcDbPolyline
 90
2
 70
0
 10
64.955502
 20
345.210285
 30
0.0
 10
64.955502
 20
346.543783
 30
0.0
  0
LWPOLYLINE
  5
1c0
100
AcDbEntity
  8
Layer_1
 62
1
100
AcDbPolyline
 90
2
 70
0
 10
92.597055
 20
345.210285
 30
0.0
 10
64.955502
 20
345.210285
 30
0.0
  0
SPLINE
  5
1c1
100
AcDbEntity
  8
Layer_1
 62
1
100
AcDbSpline
 70
8
 71
3
 72
8
 73
4
 74
0
 40
0
 40
0
 40
0
 40
0
 40
1
 40
1
 40
1
 40
1
 10
151.203345
 20
347.179876
 30
0.0
 10
151.203345
 20
347.581800
 30
0.0
 10
150.988921
 20
347.953193
 30
0.0
 10
150.640845
 20
348.154155
 30
0.0
  0
SPLINE
  5
1c2
100
AcDbEntity
  8
Layer_1
 62
1
100
AcDbSpline
 70
8
 71
3
 72
8
 73
4
 74
0
 40
0
 40
0
 40
0
 40
0
 40
1
 40
1
 40
1
 40
1
 10
150.640845
 20
348.154155
 30
0.0
 10
150.292768
 20
348.355117
 30
0.0
 10
149.863921
 20
348.355117
 30
0.0
 10
149.515845
 20
348.154155
 30
0.0
  0
SPLINE
  5
1c3
100
AcDbEntity
  8
Layer_1
 62
1
100
AcDbSpline
 70
8
 71
3
 72
8
 73
4
 74
0
 40
0
 40
0
 40
0
 40
0
 40
1
 40
1
 40
1
 40
1
 10
149.515845
 20
348.154155
 30
0.0
 10
149.167768
 20
347.953193
 30
0.0
 10
148.953345
 20
347.581800
 30
0.0
 10
148.953345
 20
347.179876
 30
0.0
  0
SPLINE
  5
1c4
100
AcDbEntity
  8
Layer_1
 62
1
100
AcDbSpline
 70
8
 71
3
 72
8
 73
4
 74
0
 40
0
 40
0
 40
0
 40
0
 40
1
 40
1
 40
1
 40
1
 10
148.953345
 20
347.179876
 30
0.0
 10
148.953345
 20
346.777953
 30
0.0
 10
149.167768
 20
346.406560
 30
0.0
 10
149.515845
 20
346.205598
 30
0.0
  0
SPLINE
  5
1c5
100
AcDbEntity
  8
Layer_1
 62
1
100
AcDbSpline
 70
8
 71
3
 72
8
 73
4
 74
0
 40
0
 40
0
 40
0
 40
0
 40
1
 40
1
 40
1
 40
1
 10
149.515845
 20
346.205598
 30
0.0
 10
149.863921
 20
346.004636
 30
0.0
 10
150.292768
 20
346.004636
 30
0.0
 10
150.640845
 20
346.205598
 30
0.0
  0
SPLINE
  5
1c6
100
AcDbEntity
  8
Layer_1
 62
1
100
AcDbSpline
 70
8
 71
3
 72
8
 73
4
 74
0
 40
0
 40
0
 40
0
 40
0
 40
1
 40
1
 40
1
 40
1
 10
150.640845
 20
346.205598
 30
0.0
 10
150.988921
 20
346.406560
 30
0.0
 10
151.203345
 20
346.777953
 30
0.0
 10
151.203345
 20
347.179876
 30
0.0
  0
LWPOLYLINE
  5
1c7
100
AcDbEntity
  8
Layer_1
 62
1
100
AcDbPolyline
 90
4
 70
0
 10
52.077708
 20
345.210285
 30
0.0
 10
43.028963
 20
345.210285
 30
0.0
 10
40.628665
 20
342.829036
 30
0.0
 10
40.628665
 20
278.154290
 30
0.0
  0
LWPOLYLINE
  5
1c8
100
AcDbEntity
  8
Layer_1
 62
1
100
AcDbPolyline
 90
1
 70
1
 10
151.203345
 20
347.179876
 30
0.0
  0
LWPOLYLINE
  5
1c9
100
AcDbEntity
  8
Layer_1
 62
1
100
AcDbPolyline
 90
3
 70
0
 10
92.889337
 20
348.043091
 30
0.0
 10
100.915297
 20
348.043091
 30
0.0
 10
107.894167
 20
351.877858
 30
0.0
  0
LWPOLYLINE
  5
1ca
100
AcDbEntity
  8
Layer_1
 62
1
100
AcDbPolyline
 90
2
 70
0
 10
85.929517
 20
351.877858
 30
0.0
 10
92.908387
 20
348.043091
 30
0.0
  0
LWPOLYLINE
  5
1cb
100
AcDbEntity
  8
Layer_1
 62
1
100
AcDbPolyline
 90
2
 70
0
 10
71.622997
 20
351.877783
 30
0.0
 10
85.929517
 20
351.877858
 30
0.0
  0
LWPOLYLINE
  5
1cc
100
AcDbEntity
  8
Layer_1
 62
1
100
AcDbPolyline
 90
2
 70
0
 10
154.776255
 20
196.523926
 30
0.0
 10
154.776255
 20
346.627783
 30
0.0
  0
LWPOLYLINE
  5
1cd
100
AcDbEntity
  8
Layer_1
 62
1
100
AcDbPolyline
 90
2
 70
0
 10
30.929760
 20
282.703077
 30
0.0
 10
5.872103
 20
271.019521
 30
0.0
  0
LWPOLYLINE
  5
1ce
100
AcDbEntity
  8
Layer_1
 62
1
100
AcDbPolyline
 90
2
 70
0
 10
3.332573
 20
264.042625
 30
0.0
 10
35.851385
 20
194.305194
 30
0.0
  0
SPLINE
  5
1cf
100
AcDbEntity
  8
Layer_1
 62
1
100
AcDbSpline
 70
8
 71
3
 72
8
 73
4
 74
0
 40
0
 40
0
 40
0
 40
0
 40
1
 40
1
 40
1
 40
1
 10
149.526255
 20
191.273926
 30
0.0
 10
150.918641
 20
191.273926
 30
0.0
 10
152.253999
 20
191.827050
 30
0.0
 10
153.238565
 20
192.811616
 30
0.0
  0
SPLINE
  5
1d0
100
AcDbEntity
  8
Layer_1
 62
1
100
AcDbSpline
 70
8
 71
3
 72
8
 73
4
 74
0
 40
0
 40
0
 40
0
 40
0
 40
1
 40
1
 40
1
 40
1
 10
153.238565
 20
192.811616
 30
0.0
 10
154.223131
 20
193.796182
 30
0.0
 10
154.776255
 20
195.131540
 30
0.0
 10
154.776255
 20
196.523926
 30
0.0
  0
SPLINE
  5
1d1
100
AcDbEntity
  8
Layer_1
 62
1
100
AcDbSpline
 70
8
 71
3
 72
8
 73
4
 74
0
 40
0
 40
0
 40
0
 40
0
 40
1
 40
1
 40
1
 40
1
 10
151.203345
 20
195.971851
 30
0.0
 10
151.203345
 20
196.373775
 30
0.0
 10
150.988921
 20
196.745168
 30
0.0
 10
150.640845
 20
196.946130
 30
0.0
  0
SPLINE
  5
1d2
100
AcDbEntity
  8
Layer_1
 62
1
100
AcDbSpline
 70
8
 71
3
 72
8
 73
4
 74
0
 40
0
 40
0
 40
0
 40
0
 40
1
 40
1
 40
1
 40
1
 10
150.640845
 20
196.946130
 30
0.0
 10
150.292768
 20
197.147092
 30
0.0
 10
149.863921
 20
197.147092
 30
0.0
 10
149.515845
 20
196.946130
 30
0.0
  0
SPLINE
  5
1d3
100
AcDbEntity
  8
Layer_1
 62
1
100
AcDbSpline
 70
8
 71
3
 72
8
 73
4
 74
0
 40
0
 40
0
 40
0
 40
0
 40
1
 40
1
 40
1
 40
1
 10
149.515845
 20
196.946130
 30
0.0
 10
149.167768
 20
196.745168
 30
0.0
 10
148.953345
 20
196.373775
 30
0.0
 10
148.953345
 20
195.971851
 30
0.0
  0
SPLINE
  5
1d4
100
AcDbEntity
  8
Layer_1
 62
1
100
AcDbSpline
 70
8
 71
3
 72
8
 73
4
 74
0
 40
0
 40
0
 40
0
 40
0
 40
1
 40
1
 40
1
 40
1
 10
148.953345
 20
195.971851
 30
0.0
 10
148.953345
 20
195.569928
 30
0.0
 10
149.167768
 20
195.198535
 30
0.0
 10
149.515845
 20
194.997573
 30
0.0
  0
SPLINE
  5
1d5
100
AcDbEntity
  8
Layer_1
 62
1
100
AcDbSpline
 70
8
 71
3
 72
8
 73
4
 74
0
 40
0
 40
0
 40
0
 40
0
 40
1
 40
1
 40
1
 40
1
 10
149.515845
 20
194.997573
 30
0.0
 10
149.863921
 20
194.796611
 30
0.0
 10
150.292768
 20
194.796611
 30
0.0
 10
150.640845
 20
194.997573
 30
0.0
  0
SPLINE
  5
1d6
100
AcDbEntity
  8
Layer_1
 62
1
100
AcDbSpline
 70
8
 71
3
 72
8
 73
4
 74
0
 40
0
 40
0
 40
0
 40
0
 40
1
 40
1
 40
1
 40
1
 10
150.640845
 20
194.997573
 30
0.0
 10
150.988921
 20
195.198535
 30
0.0
 10
151.203345
 20
195.569928
 30
0.0
 10
151.203345
 20
195.971851
 30
0.0
  0
LWPOLYLINE
  5
1d7
100
AcDbEntity
  8
Layer_1
 62
1
100
AcDbPolyline
 90
2
 70
0
 10
40.609503
 20
191.273926
 30
0.0
 10
149.526255
 20
191.273926
 30
0.0
  0
SPLINE
  5
1d8
100
AcDbEntity
  8
Layer_1
 62
1
100
AcDbSpline
 70
8
 71
3
 72
8
 73
4
 74
0
 40
0
 40
0
 40
0
 40
0
 40
1
 40
1
 40
1
 40
1
 10
41.195508
 20
195.677889
 30
0.0
 10
41.195972
 20
196.080122
 30
0.0
 10
40.981650
 20
196.452000
 30
0.0
 10
40.633383
 20
196.653251
 30
0.0
  0
SPLINE
  5
1d9
100
AcDbEntity
  8
Layer_1
 62
1
100
AcDbSpline
 70
8
 71
3
 72
8
 73
4
 74
0
 40
0
 40
0
 40
0
 40
0
 40
1
 40
1
 40
1
 40
1
 10
40.633383
 20
196.653251
 30
0.0
 10
40.285116
 20
196.854501
 30
0.0
 10
39.855899
 20
196.854501
 30
0.0
 10
39.507632
 20
196.653251
 30
0.0
  0
SPLINE
  5
1da
100
AcDbEntity
  8
Layer_1
 62
1
100
AcDbSpline
 70
8
 71
3
 72
8
 73
4
 74
0
 40
0
 40
0
 40
0
 40
0
 40
1
 40
1
 40
1
 40
1
 10
39.507632
 20
196.653251
 30
0.0
 10
39.159365
 20
196.452000
 30
0.0
 10
38.945043
 20
196.080122
 30
0.0
 10
38.945508
 20
195.677889
 30
0.0
  0
SPLINE
  5
1db
100
AcDbEntity
  8
Layer_1
 62
1
100
AcDbSpline
 70
8
 71
3
 72
8
 73
4
 74
0
 40
0
 40
0
 40
0
 40
0
 40
1
 40
1
 40
1
 40
1
 10
38.945508
 20
195.677889
 30
0.0
 10
38.945043
 20
195.275656
 30
0.0
 10
39.159365
 20
194.903778
 30
0.0
 10
39.507632
 20
194.702527
 30
0.0
  0
SPLINE
  5
1dc
100
AcDbEntity
  8
Layer_1
 62
1
100
AcDbSpline
 70
8
 71
3
 72
8
 73
4
 74
0
 40
0
 40
0
 40
0
 40
0
 40
1
 40
1
 40
1
 40
1
 10
39.507632
 20
194.702527
 30
0.0
 10
39.855899
 20
194.501277
 30
0.0
 10
40.285116
 20
194.501277
 30
0.0
 10
40.633383
 20
194.702527
 30
0.0
  0
SPLINE
  5
1dd
100
AcDbEntity
  8
Layer_1
 62
1
100
AcDbSpline
 70
8
 71
3
 72
8
 73
4
 74
0
 40
0
 40
0
 40
0
 40
0
 40
1
 40
1
 40
1
 40
1
 10
40.633383
 20
194.702527
 30
0.0
 10
40.981650
 20
194.903778
 30
0.0
 10
41.195972
 20
195.275656
 30
0.0
 10
41.195508
 20
195.677889
 30
0.0
  0
LWPOLYLINE
  5
1de
100
AcDbEntity
  8
Layer_1
 62
1
100
AcDbPolyline
 90
1
 70
1
 10
151.203345
 20
195.971851
 30
0.0
  0
SPLINE
  5
1df
100
AcDbEntity
  8
Layer_1
 62
1
100
AcDbSpline
 70
8
 71
3
 72
8
 73
4
 74
0
 40
0
 40
0
 40
0
 40
0
 40
1
 40
1
 40
1
 40
1
 10
90.898845
 20
251.389096
 30
0.0
 10
90.898845
 20
251.791020
 30
0.0
 10
90.684421
 20
252.162413
 30
0.0
 10
90.336345
 20
252.363375
 30
0.0
  0
SPLINE
  5
1e0
100
AcDbEntity
  8
Layer_1
 62
1
100
AcDbSpline
 70
8
 71
3
 72
8
 73
4
 74
0
 40
0
 40
0
 40
0
 40
0
 40
1
 40
1
 40
1
 40
1
 10
90.336345
 20
252.363375
 30
0.0
 10
89.988268
 20
252.564337
 30
0.0
 10
89.559421
 20
252.564337
 30
0.0
 10
89.211345
 20
252.363375
 30
0.0
  0
SPLINE
  5
1e1
100
AcDbEntity
  8
Layer_1
 62
1
100
AcDbSpline
 70
8
 71
3
 72
8
 73
4
 74
0
 40
0
 40
0
 40
0
 40
0
 40
1
 40
1
 40
1
 40
1
 10
89.211345
 20
252.363375
 30
0.0
 10
88.863268
 20
252.162413
 30
0.0
 10
88.648845
 20
251.791020
 30
0.0
 10
88.648845
 20
251.389096
 30
0.0
  0
SPLINE
  5
1e2
100
AcDbEntity
  8
Layer_1
 62
1
100
AcDbSpline
 70
8
 71
3
 72
8
 73
4
 74
0
 40
0
 40
0
 40
0
 40
0
 40
1
 40
1
 40
1
 40
1
 10
88.648845
 20
251.389096
 30
0.0
 10
88.648845
 20
250.987173
 30
0.0
 10
88.863268
 20
250.615780
 30
0.0
 10
89.211345
 20
250.414818
 30
0.0
  0
SPLINE
  5
1e3
100
AcDbEntity
  8
Layer_1
 62
1
100
AcDbSpline
 70
8
 71
3
 72
8
 73
4
 74
0
 40
0
 40
0
 40
0
 40
0
 40
1
 40
1
 40
1
 40
1
 10
89.211345
 20
250.414818
 30
0.0
 10
89.559421
 20
250.213856
 30
0.0
 10
89.988268
 20
250.213856
 30
0.0
 10
90.336345
 20
250.414818
 30
0.0
  0
SPLINE
  5
1e4
100
AcDbEntity
  8
Layer_1
 62
1
100
AcDbSpline
 70
8
 71
3
 72
8
 73
4
 74
0
 40
0
 40
0
 40
0
 40
0
 40
1
 40
1
 40
1
 40
1
 10
90.336345
 20
250.414818
 30
0.0
 10
90.684421
 20
250.615780
 30
0.0
 10
90.898845
 20
250.987173
 30
0.0
 10
90.898845
 20
251.389096
 30
0.0
  0
LWPOLYLINE
  5
1e5
100
AcDbEntity
  8
Layer_1
 62
1
100
AcDbPolyline
 90
1
 70
1
 10
41.195508
 20
195.677889
 30
0.0
  0
SPLINE
  5
1e6
100
AcDbEntity
  8
Layer_1
 62
1
100
AcDbSpline
 70
8
 71
3
 72
8
 73
4
 74
0
 40
0
 40
0
 40
0
 40
0
 40
1
 40
1
 40
1
 40
1
 10
151.203345
 20
253.943879
 30
0.0
 10
151.203345
 20
254.345803
 30
0.0
 10
150.988921
 20
254.717196
 30
0.0
 10
150.640845
 20
254.918158
 30
0.0
  0
SPLINE
  5
1e7
100
AcDbEntity
  8
Layer_1
 62
1
100
AcDbSpline
 70
8
 71
3
 72
8
 73
4
 74
0
 40
0
 40
0
 40
0
 40
0
 40
1
 40
1
 40
1
 40
1
 10
150.640845
 20
254.918158
 30
0.0
 10
150.292768
 20
255.119120
 30
0.0
 10
149.863921
 20
255.119120
 30
0.0
 10
149.515845
 20
254.918158
 30
0.0
  0
SPLINE
  5
1e8
100
AcDbEntity
  8
Layer_1
 62
1
100
AcDbSpline
 70
8
 71
3
 72
8
 73
4
 74
0
 40
0
 40
0
 40
0
 40
0
 40
1
 40
1
 40
1
 40
1
 10
149.515845
 20
254.918158
 30
0.0
 10
149.167768
 20
254.717196
 30
0.0
 10
148.953345
 20
254.345803
 30
0.0
 10
148.953345
 20
253.943879
 30
0.0
  0
SPLINE
  5
1e9
100
AcDbEntity
  8
Layer_1
 62
1
100
AcDbSpline
 70
8
 71
3
 72
8
 73
4
 74
0
 40
0
 40
0
 40
0
 40
0
 40
1
 40
1
 40
1
 40
1
 10
148.953345
 20
253.943879
 30
0.0
 10
148.953345
 20
253.541955
 30
0.0
 10
149.167768
 20
253.170563
 30
0.0
 10
149.515845
 20
252.969601
 30
0.0
  0
SPLINE
  5
1ea
100
AcDbEntity
  8
Layer_1
 62
1
100
AcDbSpline
 70
8
 71
3
 72
8
 73
4
 74
0
 40
0
 40
0
 40
0
 40
0
 40
1
 40
1
 40
1
 40
1
 10
149.515845
 20
252.969601
 30
0.0
 10
149.863921
 20
252.768639
 30
0.0
 10
150.292768
 20
252.768639
 30
0.0
 10
150.640845
 20
252.969601
 30
0.0
  0
SPLINE
  5
1eb
100
AcDbEntity
  8
Layer_1
 62
1
100
AcDbSpline
 70
8
 71
3
 72
8
 73
4
 74
0
 40
0
 40
0
 40
0
 40
0
 40
1
 40
1
 40
1
 40
1
 10
150.640845
 20
252.969601
 30
0.0
 10
150.988921
 20
253.170563
 30
0.0
 10
151.203345
 20
253.541955
 30
0.0
 10
151.203345
 20
253.943879
 30
0.0
  0
LWPOLYLINE
  5
1ec
100
AcDbEntity
  8
Layer_1
 62
1
100
AcDbPolyline
 90
1
 70
1
 10
90.898845
 20
251.389096
 30
0.0
  0
LWPOLYLINE
  5
1ed
100
AcDbEntity
  8
Layer_1
 62
1
100
AcDbPolyline
 90
1
 70
1
 10
151.203345
 20
253.943879
 30
0.0
  0
SPLINE
  5
1ee
100
AcDbEntity
  8
Layer_1
 62
1
100
AcDbSpline
 70
8
 71
3
 72
8
 73
4
 74
0
 40
0
 40
0
 40
0
 40
0
 40
1
 40
1
 40
1
 40
1
 10
35.851385
 20
194.305194
 30
0.0
 10
36.713655
 20
192.456036
 30
0.0
 10
38.569185
 20
191.273928
 30
0.0
 10
40.609503
 20
191.273926
 30
0.0
  0
LWPOLYLINE
  5
1ef
100
AcDbEntity
  8
Layer_1
 62
1
100
AcDbPolyline
 90
1
 70
1
 10
22.776274
 20
226.104360
 30
0.0
  0
ENDSEC
  0
SECTION
  2
OBJECTS
  0
DICTIONARY
  5
C
330
0
100
AcDbDictionary
  3
ACAD_GROUP
350
D
  3
ACAD_MLINESTYLE
350
17
  0
DICTIONARY
  5
D
330
C
100
AcDbDictionary
  0
DICTIONARY
  5
1A
330
C
100
AcDbDictionary
  0
DICTIONARY
  5
17
330
C
100
AcDbDictionary
  3
STANDARD
350
18
  0
DICTIONARY
  5
19
330
C
100
AcDbDictionary
  0
ENDSEC
  0
EOF
