  0
SECTION
  2
HEADER
  9
$ACADVER
  1
AC1014
  9
$HANDSEED
  5
FFFF
  9
$MEASUREMENT
 70
     1
  0
ENDSEC
  0
SECTION
  2
TABLES
  0
TABLE
  2
VPORT
  5
8
330
0
100
AcDbSymbolTable
 70
     4
  0
VPORT
  5
2E
330
8
100
AcDbSymbolTableRecord
100
AcDbViewportTableRecord
  2
*ACTIVE
 70
     0
 10
0.0
 20
0.0
 11
1.0
 21
1.0
 12
210.0
 22
148.5
 13
0.0
 23
0.0
 14
10.0
 24
10.0
 15
10.0
 25
10.0
 16
0.0
 26
0.0
 36
1.0
 17
0.0
 27
0.0
 37
0.0
 40
341.0
 41
1.24
 42
50.0
 43
0.0
 44
0.0
 50
0.0
 51
0.0
 71
     0
 72
   100
 73
     1
 74
     3
 75
     0
 76
     0
 77
     0
 78
     0
  0
ENDTAB
  0
TABLE
  2
LTYPE
  5
5
330
0
100
AcDbSymbolTable
 70
     1
  0
LTYPE
  5
14
330
5
100
AcDbSymbolTableRecord
100
AcDbLinetypeTableRecord
  2
BYBLOCK
 70
     0
  3

 72
    65
 73
     0
 40
0.0
  0
LTYPE
  5
15
330
5
100
AcDbSymbolTableRecord
100
AcDbLinetypeTableRecord
  2
BYLAYER
 70
     0
  3

 72
    65
 73
     0
 40
0.0
  0
LTYPE
  5
16
330
5
100
AcDbSymbolTableRecord
100
AcDbLinetypeTableRecord
  2
CONTINUOUS
 70
     0
  3
Solid line
 72
    65
 73
     0
 40
0.0
  0
ENDTAB
  0
TABLE
  2
LAYER
  5
2
100
AcDbSymbolTable
 70
2
  0
LAYER
  5
50
100
AcDbSymbolTableRecord
100
AcDbLayerTableRecord
  2
0
 70
0
  6
CONTINUOUS
  0
LAYER
  5
51
100
AcDbSymbolTableRecord
100
AcDbLayerTableRecord
  2
Layer_1
 70
0
  6
CONTINUOUS
  0
ENDTAB
  0
TABLE
  2
STYLE
  5
3
330
0
100
AcDbSymbolTable
 70
     1
  0
STYLE
  5
11
330
3
100
AcDbSymbolTableRecord
100
AcDbTextStyleTableRecord
  2
STANDARD
 70
     0
 40
0.0
 41
1.0
 50
0.0
 71
     0
 42
2.5
  3
txt
  4

  0
ENDTAB
  0
TABLE
  2
VIEW
  5
6
330
0
100
AcDbSymbolTable
 70
     0
  0
ENDTAB
  0
TABLE
  2
UCS
  5
7
330
0
100
AcDbSymbolTable
 70
     0
  0
ENDTAB
  0
TABLE
  2
APPID
  5
9
330
0
100
AcDbSymbolTable
 70
     2
  0
APPID
  5
12
330
9
100
AcDbSymbolTableRecord
100
AcDbRegAppTableRecord
  2
ACAD
 70
     0
  0
ENDTAB
  0
TABLE
  2
DIMSTYLE
  5
A
330
0
100
AcDbSymbolTable
 70
     1
  0
DIMSTYLE
105
27
330
A
100
AcDbSymbolTableRecord
100
AcDbDimStyleTableRecord
  2
ISO-25
 70
     0
  3

  4

  5

  6

  7

 40
1.0
 41
2.5
 42
0.625
 43
3.75
 44
1.25
 45
0.0
 46
0.0
 47
0.0
 48
0.0
140
2.5
141
2.5
142
0.0
143
0.03937007874016
144
1.0
145
0.0
146
1.0
147
0.625
 71
     0
 72
     0
 73
     0
 74
     0
 75
     0
 76
     0
 77
     1
 78
     8
170
     0
171
     3
172
     1
173
     0
174
     0
175
     0
176
     0
177
     0
178
     0
270
     2
271
     2
272
     2
273
     2
274
     3
340
11
275
     0
280
     0
281
     0
282
     0
283
     0
284
     8
285
     0
286
     0
287
     3
288
     0
  0
ENDTAB
  0
TABLE
  2
BLOCK_RECORD
  5
1
330
0
100
AcDbSymbolTable
 70
     1
  0
BLOCK_RECORD
  5
1F
330
1
100
AcDbSymbolTableRecord
100
AcDbBlockTableRecord
  2
*MODEL_SPACE
  0
BLOCK_RECORD
  5
1B
330
1
100
AcDbSymbolTableRecord
100
AcDbBlockTableRecord
  2
*PAPER_SPACE
  0
ENDTAB
  0
ENDSEC
  0
SECTION
  2
BLOCKS
  0
BLOCK
  5
20
330
1F
100
AcDbEntity
  8
0
100
AcDbBlockBegin
  2
*MODEL_SPACE
 70
     0
 10
0.0
 20
0.0
 30
0.0
  3
*MODEL_SPACE
  1

  0
ENDBLK
  5
21
330
1F
100
AcDbEntity
  8
0
100
AcDbBlockEnd
  0
BLOCK
  5
1C
330
1B
100
AcDbEntity
 67
     1
  8
0
100
AcDbBlockBegin
  2
*PAPER_SPACE
  1

  0
ENDBLK
  5
1D
330
1B
100
AcDbEntity
 67
     1
  8
0
100
AcDbBlockEnd
  0
ENDSEC
  0
SECTION
  2
ENTITIES
  0
SPLINE
  5
100
100
AcDbEntity
  8
Layer_1
 62
1
100
AcDbSpline
 70
8
 71
3
 72
8
 73
4
 74
0
 40
0
 40
0
 40
0
 40
0
 40
1
 40
1
 40
1
 40
1
 10
151.383699
 20
282.403222
 30
0.0
 10
151.383699
 20
282.805146
 30
0.0
 10
151.169275
 20
283.176539
 30
0.0
 10
150.821199
 20
283.377501
 30
0.0
  0
SPLINE
  5
101
100
AcDbEntity
  8
Layer_1
 62
1
100
AcDbSpline
 70
8
 71
3
 72
8
 73
4
 74
0
 40
0
 40
0
 40
0
 40
0
 40
1
 40
1
 40
1
 40
1
 10
150.821199
 20
283.377501
 30
0.0
 10
150.473123
 20
283.578463
 30
0.0
 10
150.044275
 20
283.578463
 30
0.0
 10
149.696199
 20
283.377501
 30
0.0
  0
SPLINE
  5
102
100
AcDbEntity
  8
Layer_1
 62
1
100
AcDbSpline
 70
8
 71
3
 72
8
 73
4
 74
0
 40
0
 40
0
 40
0
 40
0
 40
1
 40
1
 40
1
 40
1
 10
149.696199
 20
283.377501
 30
0.0
 10
149.348123
 20
283.176539
 30
0.0
 10
149.133699
 20
282.805146
 30
0.0
 10
149.133699
 20
282.403222
 30
0.0
  0
SPLINE
  5
103
100
AcDbEntity
  8
Layer_1
 62
1
100
AcDbSpline
 70
8
 71
3
 72
8
 73
4
 74
0
 40
0
 40
0
 40
0
 40
0
 40
1
 40
1
 40
1
 40
1
 10
149.133699
 20
282.403222
 30
0.0
 10
149.133699
 20
282.001299
 30
0.0
 10
149.348123
 20
281.629906
 30
0.0
 10
149.696199
 20
281.428944
 30
0.0
  0
SPLINE
  5
104
100
AcDbEntity
  8
Layer_1
 62
1
100
AcDbSpline
 70
8
 71
3
 72
8
 73
4
 74
0
 40
0
 40
0
 40
0
 40
0
 40
1
 40
1
 40
1
 40
1
 10
149.696199
 20
281.428944
 30
0.0
 10
150.044275
 20
281.227982
 30
0.0
 10
150.473123
 20
281.227982
 30
0.0
 10
150.821199
 20
281.428944
 30
0.0
  0
SPLINE
  5
105
100
AcDbEntity
  8
Layer_1
 62
1
100
AcDbSpline
 70
8
 71
3
 72
8
 73
4
 74
0
 40
0
 40
0
 40
0
 40
0
 40
1
 40
1
 40
1
 40
1
 10
150.821199
 20
281.428944
 30
0.0
 10
151.169275
 20
281.629906
 30
0.0
 10
151.383699
 20
282.001299
 30
0.0
 10
151.383699
 20
282.403222
 30
0.0
  0
LWPOLYLINE
  5
106
100
AcDbEntity
  8
Layer_1
 62
1
100
AcDbPolyline
 90
1
 70
1
 10
151.383699
 20
282.403222
 30
0.0
  0
LWPOLYLINE
  5
107
100
AcDbEntity
  8
Layer_1
 62
1
100
AcDbPolyline
 90
2
 70
0
 10
101.910369
 20
363.918098
 30
0.0
 10
96.402819
 20
363.918098
 30
0.0
  0
SPLINE
  5
108
100
AcDbEntity
  8
Layer_1
 62
1
100
AcDbSpline
 70
8
 71
3
 72
8
 73
4
 74
0
 40
0
 40
0
 40
0
 40
0
 40
1
 40
1
 40
1
 40
1
 10
68.967204
 20
267.264113
 30
0.0
 10
68.967204
 20
267.666036
 30
0.0
 10
68.752780
 20
268.037429
 30
0.0
 10
68.404704
 20
268.238391
 30
0.0
  0
SPLINE
  5
109
100
AcDbEntity
  8
Layer_1
 62
1
100
AcDbSpline
 70
8
 71
3
 72
8
 73
4
 74
0
 40
0
 40
0
 40
0
 40
0
 40
1
 40
1
 40
1
 40
1
 10
68.404704
 20
268.238391
 30
0.0
 10
68.056628
 20
268.439353
 30
0.0
 10
67.627780
 20
268.439353
 30
0.0
 10
67.279704
 20
268.238391
 30
0.0
  0
SPLINE
  5
10a
100
AcDbEntity
  8
Layer_1
 62
1
100
AcDbSpline
 70
8
 71
3
 72
8
 73
4
 74
0
 40
0
 40
0
 40
0
 40
0
 40
1
 40
1
 40
1
 40
1
 10
67.279704
 20
268.238391
 30
0.0
 10
66.931628
 20
268.037429
 30
0.0
 10
66.717204
 20
267.666036
 30
0.0
 10
66.717204
 20
267.264113
 30
0.0
  0
SPLINE
  5
10b
100
AcDbEntity
  8
Layer_1
 62
1
100
AcDbSpline
 70
8
 71
3
 72
8
 73
4
 74
0
 40
0
 40
0
 40
0
 40
0
 40
1
 40
1
 40
1
 40
1
 10
66.717204
 20
267.264113
 30
0.0
 10
66.717204
 20
266.862189
 30
0.0
 10
66.931628
 20
266.490796
 30
0.0
 10
67.279704
 20
266.289834
 30
0.0
  0
SPLINE
  5
10c
100
AcDbEntity
  8
Layer_1
 62
1
100
AcDbSpline
 70
8
 71
3
 72
8
 73
4
 74
0
 40
0
 40
0
 40
0
 40
0
 40
1
 40
1
 40
1
 40
1
 10
67.279704
 20
266.289834
 30
0.0
 10
67.627780
 20
266.088872
 30
0.0
 10
68.056628
 20
266.088872
 30
0.0
 10
68.404704
 20
266.289834
 30
0.0
  0
SPLINE
  5
10d
100
AcDbEntity
  8
Layer_1
 62
1
100
AcDbSpline
 70
8
 71
3
 72
8
 73
4
 74
0
 40
0
 40
0
 40
0
 40
0
 40
1
 40
1
 40
1
 40
1
 10
68.404704
 20
266.289834
 30
0.0
 10
68.752780
 20
266.490796
 30
0.0
 10
68.967204
 20
266.862189
 30
0.0
 10
68.967204
 20
267.264113
 30
0.0
  0
LWPOLYLINE
  5
10e
100
AcDbEntity
  8
Layer_1
 62
1
100
AcDbPolyline
 90
2
 70
0
 10
146.634909
 20
279.292282
 30
0.0
 10
130.371924
 20
244.415550
 30
0.0
  0
LWPOLYLINE
  5
10f
100
AcDbEntity
  8
Layer_1
 62
1
100
AcDbPolyline
 90
1
 70
1
 10
68.967204
 20
267.264113
 30
0.0
  0
SPLINE
  5
110
100
AcDbEntity
  8
Layer_1
 62
1
100
AcDbSpline
 70
8
 71
3
 72
8
 73
4
 74
0
 40
0
 40
0
 40
0
 40
0
 40
1
 40
1
 40
1
 40
1
 10
8.662703
 20
269.818890
 30
0.0
 10
8.662703
 20
270.220814
 30
0.0
 10
8.448279
 20
270.592207
 30
0.0
 10
8.100203
 20
270.793169
 30
0.0
  0
SPLINE
  5
111
100
AcDbEntity
  8
Layer_1
 62
1
100
AcDbSpline
 70
8
 71
3
 72
8
 73
4
 74
0
 40
0
 40
0
 40
0
 40
0
 40
1
 40
1
 40
1
 40
1
 10
8.100203
 20
270.793169
 30
0.0
 10
7.752126
 20
270.994130
 30
0.0
 10
7.323279
 20
270.994130
 30
0.0
 10
6.975203
 20
270.793169
 30
0.0
  0
SPLINE
  5
112
100
AcDbEntity
  8
Layer_1
 62
1
100
AcDbSpline
 70
8
 71
3
 72
8
 73
4
 74
0
 40
0
 40
0
 40
0
 40
0
 40
1
 40
1
 40
1
 40
1
 10
6.975203
 20
270.793169
 30
0.0
 10
6.627126
 20
270.592207
 30
0.0
 10
6.412703
 20
270.220814
 30
0.0
 10
6.412703
 20
269.818890
 30
0.0
  0
SPLINE
  5
113
100
AcDbEntity
  8
Layer_1
 62
1
100
AcDbSpline
 70
8
 71
3
 72
8
 73
4
 74
0
 40
0
 40
0
 40
0
 40
0
 40
1
 40
1
 40
1
 40
1
 10
6.412703
 20
269.818890
 30
0.0
 10
6.412703
 20
269.416966
 30
0.0
 10
6.627126
 20
269.045573
 30
0.0
 10
6.975203
 20
268.844611
 30
0.0
  0
SPLINE
  5
114
100
AcDbEntity
  8
Layer_1
 62
1
100
AcDbSpline
 70
8
 71
3
 72
8
 73
4
 74
0
 40
0
 40
0
 40
0
 40
0
 40
1
 40
1
 40
1
 40
1
 10
6.975203
 20
268.844611
 30
0.0
 10
7.323279
 20
268.643650
 30
0.0
 10
7.752126
 20
268.643650
 30
0.0
 10
8.100203
 20
268.844611
 30
0.0
  0
SPLINE
  5
115
100
AcDbEntity
  8
Layer_1
 62
1
100
AcDbSpline
 70
8
 71
3
 72
8
 73
4
 74
0
 40
0
 40
0
 40
0
 40
0
 40
1
 40
1
 40
1
 40
1
 10
8.100203
 20
268.844611
 30
0.0
 10
8.448279
 20
269.045573
 30
0.0
 10
8.662703
 20
269.416966
 30
0.0
 10
8.662703
 20
269.818890
 30
0.0
  0
LWPOLYLINE
  5
116
100
AcDbEntity
  8
Layer_1
 62
1
100
AcDbPolyline
 90
3
 70
0
 10
130.371924
 20
244.415550
 30
0.0
 10
127.207719
 20
243.264930
 30
0.0
 10
68.581344
 20
270.597863
 30
0.0
  0
LWPOLYLINE
  5
117
100
AcDbEntity
  8
Layer_1
 62
1
100
AcDbPolyline
 90
1
 70
1
 10
8.662703
 20
269.818890
 30
0.0
  0
LWPOLYLINE
  5
118
100
AcDbEntity
  8
Layer_1
 62
1
100
AcDbPolyline
 90
2
 70
0
 10
96.402819
 20
363.918098
 30
0.0
 10
85.993044
 20
367.752862
 30
0.0
  0
LWPOLYLINE
  5
119
100
AcDbEntity
  8
Layer_1
 62
1
100
AcDbPolyline
 90
2
 70
0
 10
112.320144
 20
367.752862
 30
0.0
 10
101.910369
 20
363.918098
 30
0.0
  0
LWPOLYLINE
  5
11a
100
AcDbEntity
  8
Layer_1
 62
1
100
AcDbPolyline
 90
3
 70
0
 10
92.660544
 20
362.418862
 30
0.0
 10
105.538344
 20
362.418862
 30
0.0
 10
105.538344
 20
361.085362
 30
0.0
  0
LWPOLYLINE
  5
11b
100
AcDbEntity
  8
Layer_1
 62
1
100
AcDbPolyline
 90
2
 70
0
 10
112.320144
 20
367.752862
 30
0.0
 10
118.404894
 20
367.752862
 30
0.0
  0
LWPOLYLINE
  5
11c
100
AcDbEntity
  8
Layer_1
 62
1
100
AcDbPolyline
 90
2
 70
0
 10
123.654894
 20
362.502862
 30
0.0
 10
123.654894
 20
303.336338
 30
0.0
  0
LWPOLYLINE
  5
11d
100
AcDbEntity
  8
Layer_1
 62
1
100
AcDbPolyline
 90
2
 70
0
 10
8.089793
 20
367.752862
 30
0.0
 10
85.993044
 20
367.752862
 30
0.0
  0
LWPOLYLINE
  5
11e
100
AcDbEntity
  8
Layer_1
 62
1
100
AcDbPolyline
 90
4
 70
0
 10
68.581344
 20
270.597863
 30
0.0
 10
16.651043
 20
270.597863
 30
0.0
 10
9.507292
 20
277.741612
 30
0.0
 10
9.507292
 20
358.704113
 30
0.0
  0
LWPOLYLINE
  5
11f
100
AcDbEntity
  8
Layer_1
 62
1
100
AcDbPolyline
 90
2
 70
0
 10
92.660544
 20
361.085362
 30
0.0
 10
92.660544
 20
362.418863
 30
0.0
  0
LWPOLYLINE
  5
120
100
AcDbEntity
  8
Layer_1
 62
1
100
AcDbPolyline
 90
3
 70
0
 10
105.538344
 20
361.085362
 30
0.0
 10
114.587094
 20
361.085362
 30
0.0
 10
116.987394
 20
358.704113
 30
0.0
  0
LWPOLYLINE
  5
121
100
AcDbEntity
  8
Layer_1
 62
1
100
AcDbPolyline
 90
2
 70
0
 10
126.686304
 20
298.578150
 30
0.0
 10
151.743984
 20
286.894560
 30
0.0
  0
SPLINE
  5
122
100
AcDbEntity
  8
Layer_1
 62
1
100
AcDbSpline
 70
8
 71
3
 72
8
 73
4
 74
0
 40
0
 40
0
 40
0
 40
0
 40
1
 40
1
 40
1
 40
1
 10
8.662703
 20
363.054953
 30
0.0
 10
8.663062
 20
363.457116
 30
0.0
 10
8.448717
 20
363.828884
 30
0.0
 10
8.100493
 20
364.030070
 30
0.0
  0
SPLINE
  5
123
100
AcDbEntity
  8
Layer_1
 62
1
100
AcDbSpline
 70
8
 71
3
 72
8
 73
4
 74
0
 40
0
 40
0
 40
0
 40
0
 40
1
 40
1
 40
1
 40
1
 10
8.100493
 20
364.030070
 30
0.0
 10
7.752269
 20
364.231256
 30
0.0
 10
7.323136
 20
364.231256
 30
0.0
 10
6.974912
 20
364.030070
 30
0.0
  0
SPLINE
  5
124
100
AcDbEntity
  8
Layer_1
 62
1
100
AcDbSpline
 70
8
 71
3
 72
8
 73
4
 74
0
 40
0
 40
0
 40
0
 40
0
 40
1
 40
1
 40
1
 40
1
 10
6.974912
 20
364.030070
 30
0.0
 10
6.626688
 20
363.828884
 30
0.0
 10
6.412343
 20
363.457116
 30
0.0
 10
6.412703
 20
363.054953
 30
0.0
  0
SPLINE
  5
125
100
AcDbEntity
  8
Layer_1
 62
1
100
AcDbSpline
 70
8
 71
3
 72
8
 73
4
 74
0
 40
0
 40
0
 40
0
 40
0
 40
1
 40
1
 40
1
 40
1
 10
6.412703
 20
363.054953
 30
0.0
 10
6.412343
 20
362.652789
 30
0.0
 10
6.626688
 20
362.281021
 30
0.0
 10
6.974912
 20
362.079835
 30
0.0
  0
SPLINE
  5
126
100
AcDbEntity
  8
Layer_1
 62
1
100
AcDbSpline
 70
8
 71
3
 72
8
 73
4
 74
0
 40
0
 40
0
 40
0
 40
0
 40
1
 40
1
 40
1
 40
1
 10
6.974912
 20
362.079835
 30
0.0
 10
7.323136
 20
361.878649
 30
0.0
 10
7.752269
 20
361.878649
 30
0.0
 10
8.100493
 20
362.079835
 30
0.0
  0
SPLINE
  5
127
100
AcDbEntity
  8
Layer_1
 62
1
100
AcDbSpline
 70
8
 71
3
 72
8
 73
4
 74
0
 40
0
 40
0
 40
0
 40
0
 40
1
 40
1
 40
1
 40
1
 10
8.100493
 20
362.079835
 30
0.0
 10
8.448717
 20
362.281021
 30
0.0
 10
8.663062
 20
362.652789
 30
0.0
 10
8.662703
 20
363.054953
 30
0.0
  0
LWPOLYLINE
  5
128
100
AcDbEntity
  8
Layer_1
 62
1
100
AcDbPolyline
 90
5
 70
0
 10
116.987394
 20
358.704113
 30
0.0
 10
116.987394
 20
294.029363
 30
0.0
 10
120.664044
 20
294.029363
 30
0.0
 10
145.482384
 20
282.456487
 30
0.0
 10
146.634909
 20
279.292282
 30
0.0
  0
SPLINE
  5
129
100
AcDbEntity
  8
Layer_1
 62
1
100
AcDbSpline
 70
8
 71
3
 72
8
 73
4
 74
0
 40
0
 40
0
 40
0
 40
0
 40
1
 40
1
 40
1
 40
1
 10
79.964769
 20
364.419112
 30
0.0
 10
79.964769
 20
364.821036
 30
0.0
 10
79.750345
 20
365.192429
 30
0.0
 10
79.402269
 20
365.393391
 30
0.0
  0
SPLINE
  5
12a
100
AcDbEntity
  8
Layer_1
 62
1
100
AcDbSpline
 70
8
 71
3
 72
8
 73
4
 74
0
 40
0
 40
0
 40
0
 40
0
 40
1
 40
1
 40
1
 40
1
 10
79.402269
 20
365.393391
 30
0.0
 10
79.054193
 20
365.594353
 30
0.0
 10
78.625345
 20
365.594353
 30
0.0
 10
78.277269
 20
365.393391
 30
0.0
  0
SPLINE
  5
12b
100
AcDbEntity
  8
Layer_1
 62
1
100
AcDbSpline
 70
8
 71
3
 72
8
 73
4
 74
0
 40
0
 40
0
 40
0
 40
0
 40
1
 40
1
 40
1
 40
1
 10
78.277269
 20
365.393391
 30
0.0
 10
77.929193
 20
365.192429
 30
0.0
 10
77.714769
 20
364.821036
 30
0.0
 10
77.714769
 20
364.419112
 30
0.0
  0
SPLINE
  5
12c
100
AcDbEntity
  8
Layer_1
 62
1
100
AcDbSpline
 70
8
 71
3
 72
8
 73
4
 74
0
 40
0
 40
0
 40
0
 40
0
 40
1
 40
1
 40
1
 40
1
 10
77.714769
 20
364.419112
 30
0.0
 10
77.714769
 20
364.017189
 30
0.0
 10
77.929193
 20
363.645796
 30
0.0
 10
78.277269
 20
363.444834
 30
0.0
  0
SPLINE
  5
12d
100
AcDbEntity
  8
Layer_1
 62
1
100
AcDbSpline
 70
8
 71
3
 72
8
 73
4
 74
0
 40
0
 40
0
 40
0
 40
0
 40
1
 40
1
 40
1
 40
1
 10
78.277269
 20
363.444834
 30
0.0
 10
78.625345
 20
363.243872
 30
0.0
 10
79.054193
 20
363.243872
 30
0.0
 10
79.402269
 20
363.444834
 30
0.0
  0
SPLINE
  5
12e
100
AcDbEntity
  8
Layer_1
 62
1
100
AcDbSpline
 70
8
 71
3
 72
8
 73
4
 74
0
 40
0
 40
0
 40
0
 40
0
 40
1
 40
1
 40
1
 40
1
 10
79.402269
 20
363.444834
 30
0.0
 10
79.750345
 20
363.645796
 30
0.0
 10
79.964769
 20
364.017189
 30
0.0
 10
79.964769
 20
364.419112
 30
0.0
  0
LWPOLYLINE
  5
12f
100
AcDbEntity
  8
Layer_1
 62
1
100
AcDbPolyline
 90
1
 70
1
 10
8.662703
 20
363.054953
 30
0.0
  0
SPLINE
  5
130
100
AcDbEntity
  8
Layer_1
 62
1
100
AcDbSpline
 70
8
 71
3
 72
8
 73
4
 74
0
 40
0
 40
0
 40
0
 40
0
 40
1
 40
1
 40
1
 40
1
 10
120.077229
 20
363.054953
 30
0.0
 10
120.077229
 20
363.456876
 30
0.0
 10
119.862805
 20
363.828269
 30
0.0
 10
119.514729
 20
364.029231
 30
0.0
  0
SPLINE
  5
131
100
AcDbEntity
  8
Layer_1
 62
1
100
AcDbSpline
 70
8
 71
3
 72
8
 73
4
 74
0
 40
0
 40
0
 40
0
 40
0
 40
1
 40
1
 40
1
 40
1
 10
119.514729
 20
364.029231
 30
0.0
 10
119.166653
 20
364.230193
 30
0.0
 10
118.737805
 20
364.230193
 30
0.0
 10
118.389729
 20
364.029231
 30
0.0
  0
SPLINE
  5
132
100
AcDbEntity
  8
Layer_1
 62
1
100
AcDbSpline
 70
8
 71
3
 72
8
 73
4
 74
0
 40
0
 40
0
 40
0
 40
0
 40
1
 40
1
 40
1
 40
1
 10
118.389729
 20
364.029231
 30
0.0
 10
118.041653
 20
363.828269
 30
0.0
 10
117.827229
 20
363.456876
 30
0.0
 10
117.827229
 20
363.054953
 30
0.0
  0
SPLINE
  5
133
100
AcDbEntity
  8
Layer_1
 62
1
100
AcDbSpline
 70
8
 71
3
 72
8
 73
4
 74
0
 40
0
 40
0
 40
0
 40
0
 40
1
 40
1
 40
1
 40
1
 10
117.827229
 20
363.054953
 30
0.0
 10
117.827229
 20
362.653029
 30
0.0
 10
118.041653
 20
362.281636
 30
0.0
 10
118.389729
 20
362.080674
 30
0.0
  0
SPLINE
  5
134
100
AcDbEntity
  8
Layer_1
 62
1
100
AcDbSpline
 70
8
 71
3
 72
8
 73
4
 74
0
 40
0
 40
0
 40
0
 40
0
 40
1
 40
1
 40
1
 40
1
 10
118.389729
 20
362.080674
 30
0.0
 10
118.737805
 20
361.879712
 30
0.0
 10
119.166653
 20
361.879712
 30
0.0
 10
119.514729
 20
362.080674
 30
0.0
  0
SPLINE
  5
135
100
AcDbEntity
  8
Layer_1
 62
1
100
AcDbSpline
 70
8
 71
3
 72
8
 73
4
 74
0
 40
0
 40
0
 40
0
 40
0
 40
1
 40
1
 40
1
 40
1
 10
119.514729
 20
362.080674
 30
0.0
 10
119.862805
 20
362.281636
 30
0.0
 10
120.077229
 20
362.653029
 30
0.0
 10
120.077229
 20
363.054953
 30
0.0
  0
LWPOLYLINE
  5
136
100
AcDbEntity
  8
Layer_1
 62
1
100
AcDbPolyline
 90
1
 70
1
 10
79.964769
 20
364.419112
 30
0.0
  0
SPLINE
  5
137
100
AcDbEntity
  8
Layer_1
 62
1
100
AcDbSpline
 70
8
 71
3
 72
8
 73
4
 74
0
 40
0
 40
0
 40
0
 40
0
 40
1
 40
1
 40
1
 40
1
 10
8.089793
 20
367.752862
 30
0.0
 10
6.697406
 20
367.752862
 30
0.0
 10
5.362048
 20
367.199739
 30
0.0
 10
4.377482
 20
366.215173
 30
0.0
  0
SPLINE
  5
138
100
AcDbEntity
  8
Layer_1
 62
1
100
AcDbSpline
 70
8
 71
3
 72
8
 73
4
 74
0
 40
0
 40
0
 40
0
 40
0
 40
1
 40
1
 40
1
 40
1
 10
4.377482
 20
366.215173
 30
0.0
 10
3.392916
 20
365.230607
 30
0.0
 10
2.839793
 20
363.895249
 30
0.0
 10
2.839793
 20
362.502862
 30
0.0
  0
SPLINE
  5
139
100
AcDbEntity
  8
Layer_1
 62
1
100
AcDbSpline
 70
8
 71
3
 72
8
 73
4
 74
0
 40
0
 40
0
 40
0
 40
0
 40
1
 40
1
 40
1
 40
1
 10
123.654894
 20
362.502862
 30
0.0
 10
123.654894
 20
363.895249
 30
0.0
 10
123.101771
 20
365.230607
 30
0.0
 10
122.117205
 20
366.215173
 30
0.0
  0
SPLINE
  5
13a
100
AcDbEntity
  8
Layer_1
 62
1
100
AcDbSpline
 70
8
 71
3
 72
8
 73
4
 74
0
 40
0
 40
0
 40
0
 40
0
 40
1
 40
1
 40
1
 40
1
 10
122.117205
 20
366.215173
 30
0.0
 10
121.132639
 20
367.199739
 30
0.0
 10
119.797281
 20
367.752862
 30
0.0
 10
118.404894
 20
367.752862
 30
0.0
  0
SPLINE
  5
13b
100
AcDbEntity
  8
Layer_1
 62
1
100
AcDbSpline
 70
8
 71
3
 72
8
 73
4
 74
0
 40
0
 40
0
 40
0
 40
0
 40
1
 40
1
 40
1
 40
1
 10
154.283514
 20
279.917640
 30
0.0
 10
154.871970
 20
281.179597
 30
0.0
 10
154.935003
 20
282.623633
 30
0.0
 10
154.458747
 20
283.932065
 30
0.0
  0
SPLINE
  5
13c
100
AcDbEntity
  8
Layer_1
 62
1
100
AcDbSpline
 70
8
 71
3
 72
8
 73
4
 74
0
 40
0
 40
0
 40
0
 40
0
 40
1
 40
1
 40
1
 40
1
 10
154.458747
 20
283.932065
 30
0.0
 10
153.982490
 20
285.240497
 30
0.0
 10
153.005958
 20
286.306141
 30
0.0
 10
151.743984
 20
286.894560
 30
0.0
  0
SPLINE
  5
13d
100
AcDbEntity
  8
Layer_1
 62
1
100
AcDbSpline
 70
8
 71
3
 72
8
 73
4
 74
0
 40
0
 40
0
 40
0
 40
0
 40
1
 40
1
 40
1
 40
1
 10
123.654894
 20
303.336338
 30
0.0
 10
123.654894
 20
301.295962
 30
0.0
 10
124.837067
 20
299.440389
 30
0.0
 10
126.686304
 20
298.578150
 30
0.0
  0
LWPOLYLINE
  5
13e
100
AcDbEntity
  8
Layer_1
 62
1
100
AcDbPolyline
 90
1
 70
1
 10
120.077229
 20
363.054953
 30
0.0
  0
LWPOLYLINE
  5
13f
100
AcDbEntity
  8
Layer_1
 62
1
100
AcDbPolyline
 90
1
 70
1
 10
134.839794
 20
241.979370
 30
0.0
  0
LWPOLYLINE
  5
140
100
AcDbEntity
  8
Layer_1
 62
1
100
AcDbPolyline
 90
4
 70
0
 10
56.389344
 20
361.085362
 30
0.0
 10
56.389344
 20
362.418863
 30
0.0
 10
65.018994
 20
362.418862
 30
0.0
 10
65.018994
 20
361.085362
 30
0.0
  0
LWPOLYLINE
  5
141
100
AcDbEntity
  8
Layer_1
 62
1
100
AcDbPolyline
 90
3
 70
0
 10
9.507292
 20
358.704113
 30
0.0
 10
11.888542
 20
361.085362
 30
0.0
 10
56.389344
 20
361.085362
 30
0.0
  0
SPLINE
  5
142
100
AcDbEntity
  8
Layer_1
 62
1
100
AcDbSpline
 70
8
 71
3
 72
8
 73
4
 74
0
 40
0
 40
0
 40
0
 40
0
 40
1
 40
1
 40
1
 40
1
 10
8.662703
 20
211.846853
 30
0.0
 10
8.662703
 20
212.248776
 30
0.0
 10
8.448279
 20
212.620169
 30
0.0
 10
8.100203
 20
212.821131
 30
0.0
  0
SPLINE
  5
143
100
AcDbEntity
  8
Layer_1
 62
1
100
AcDbSpline
 70
8
 71
3
 72
8
 73
4
 74
0
 40
0
 40
0
 40
0
 40
0
 40
1
 40
1
 40
1
 40
1
 10
8.100203
 20
212.821131
 30
0.0
 10
7.752126
 20
213.022093
 30
0.0
 10
7.323279
 20
213.022093
 30
0.0
 10
6.975203
 20
212.821131
 30
0.0
  0
SPLINE
  5
144
100
AcDbEntity
  8
Layer_1
 62
1
100
AcDbSpline
 70
8
 71
3
 72
8
 73
4
 74
0
 40
0
 40
0
 40
0
 40
0
 40
1
 40
1
 40
1
 40
1
 10
6.975203
 20
212.821131
 30
0.0
 10
6.627126
 20
212.620169
 30
0.0
 10
6.412703
 20
212.248776
 30
0.0
 10
6.412703
 20
211.846853
 30
0.0
  0
SPLINE
  5
145
100
AcDbEntity
  8
Layer_1
 62
1
100
AcDbSpline
 70
8
 71
3
 72
8
 73
4
 74
0
 40
0
 40
0
 40
0
 40
0
 40
1
 40
1
 40
1
 40
1
 10
6.412703
 20
211.846853
 30
0.0
 10
6.412703
 20
211.444929
 30
0.0
 10
6.627126
 20
211.073536
 30
0.0
 10
6.975203
 20
210.872574
 30
0.0
  0
SPLINE
  5
146
100
AcDbEntity
  8
Layer_1
 62
1
100
AcDbSpline
 70
8
 71
3
 72
8
 73
4
 74
0
 40
0
 40
0
 40
0
 40
0
 40
1
 40
1
 40
1
 40
1
 10
6.975203
 20
210.872574
 30
0.0
 10
7.323279
 20
210.671612
 30
0.0
 10
7.752126
 20
210.671612
 30
0.0
 10
8.100203
 20
210.872574
 30
0.0
  0
SPLINE
  5
147
100
AcDbEntity
  8
Layer_1
 62
1
100
AcDbSpline
 70
8
 71
3
 72
8
 73
4
 74
0
 40
0
 40
0
 40
0
 40
0
 40
1
 40
1
 40
1
 40
1
 10
8.100203
 20
210.872574
 30
0.0
 10
8.448279
 20
211.073536
 30
0.0
 10
8.662703
 20
211.444929
 30
0.0
 10
8.662703
 20
211.846853
 30
0.0
  0
LWPOLYLINE
  5
148
100
AcDbEntity
  8
Layer_1
 62
1
100
AcDbPolyline
 90
2
 70
0
 10
65.018994
 20
361.085362
 30
0.0
 10
92.660544
 20
361.085362
 30
0.0
  0
LWPOLYLINE
  5
149
100
AcDbEntity
  8
Layer_1
 62
1
100
AcDbPolyline
 90
1
 70
1
 10
8.662703
 20
211.846853
 30
0.0
  0
LWPOLYLINE
  5
14a
100
AcDbEntity
  8
Layer_1
 62
1
100
AcDbPolyline
 90
1
 70
1
 10
134.839794
 20
241.979370
 30
0.0
  0
LWPOLYLINE
  5
14b
100
AcDbEntity
  8
Layer_1
 62
1
100
AcDbPolyline
 90
2
 70
0
 10
154.283514
 20
279.917640
 30
0.0
 10
121.764684
 20
210.180195
 30
0.0
  0
LWPOLYLINE
  5
14c
100
AcDbEntity
  8
Layer_1
 62
1
100
AcDbPolyline
 90
1
 70
1
 10
134.839794
 20
241.979370
 30
0.0
  0
SPLINE
  5
14d
100
AcDbEntity
  8
Layer_1
 62
1
100
AcDbSpline
 70
8
 71
3
 72
8
 73
4
 74
0
 40
0
 40
0
 40
0
 40
0
 40
1
 40
1
 40
1
 40
1
 10
118.670559
 20
211.552867
 30
0.0
 10
118.670559
 20
211.954791
 30
0.0
 10
118.456135
 20
212.326184
 30
0.0
 10
118.108059
 20
212.527146
 30
0.0
  0
SPLINE
  5
14e
100
AcDbEntity
  8
Layer_1
 62
1
100
AcDbSpline
 70
8
 71
3
 72
8
 73
4
 74
0
 40
0
 40
0
 40
0
 40
0
 40
1
 40
1
 40
1
 40
1
 10
118.108059
 20
212.527146
 30
0.0
 10
117.759983
 20
212.728108
 30
0.0
 10
117.331135
 20
212.728108
 30
0.0
 10
116.983059
 20
212.527146
 30
0.0
  0
SPLINE
  5
14f
100
AcDbEntity
  8
Layer_1
 62
1
100
AcDbSpline
 70
8
 71
3
 72
8
 73
4
 74
0
 40
0
 40
0
 40
0
 40
0
 40
1
 40
1
 40
1
 40
1
 10
116.983059
 20
212.527146
 30
0.0
 10
116.634983
 20
212.326184
 30
0.0
 10
116.420559
 20
211.954791
 30
0.0
 10
116.420559
 20
211.552867
 30
0.0
  0
SPLINE
  5
150
100
AcDbEntity
  8
Layer_1
 62
1
100
AcDbSpline
 70
8
 71
3
 72
8
 73
4
 74
0
 40
0
 40
0
 40
0
 40
0
 40
1
 40
1
 40
1
 40
1
 10
116.420559
 20
211.552867
 30
0.0
 10
116.420559
 20
211.150944
 30
0.0
 10
116.634983
 20
210.779551
 30
0.0
 10
116.983059
 20
210.578589
 30
0.0
  0
SPLINE
  5
151
100
AcDbEntity
  8
Layer_1
 62
1
100
AcDbSpline
 70
8
 71
3
 72
8
 73
4
 74
0
 40
0
 40
0
 40
0
 40
0
 40
1
 40
1
 40
1
 40
1
 10
116.983059
 20
210.578589
 30
0.0
 10
117.331135
 20
210.377627
 30
0.0
 10
117.759983
 20
210.377627
 30
0.0
 10
118.108059
 20
210.578589
 30
0.0
  0
SPLINE
  5
152
100
AcDbEntity
  8
Layer_1
 62
1
100
AcDbSpline
 70
8
 71
3
 72
8
 73
4
 74
0
 40
0
 40
0
 40
0
 40
0
 40
1
 40
1
 40
1
 40
1
 10
118.108059
 20
210.578589
 30
0.0
 10
118.456135
 20
210.779551
 30
0.0
 10
118.670559
 20
211.150944
 30
0.0
 10
118.670559
 20
211.552867
 30
0.0
  0
LWPOLYLINE
  5
153
100
AcDbEntity
  8
Layer_1
 62
1
100
AcDbPolyline
 90
2
 70
0
 10
2.839793
 20
212.398928
 30
0.0
 10
2.839793
 20
362.502862
 30
0.0
  0
LWPOLYLINE
  5
154
100
AcDbEntity
  8
Layer_1
 62
1
100
AcDbPolyline
 90
1
 70
1
 10
118.670559
 20
211.552867
 30
0.0
  0
SPLINE
  5
155
100
AcDbEntity
  8
Layer_1
 62
1
100
AcDbSpline
 70
8
 71
3
 72
8
 73
4
 74
0
 40
0
 40
0
 40
0
 40
0
 40
1
 40
1
 40
1
 40
1
 10
2.839793
 20
212.398927
 30
0.0
 10
2.839793
 20
211.006541
 30
0.0
 10
3.392916
 20
209.671183
 30
0.0
 10
4.377482
 20
208.686617
 30
0.0
  0
SPLINE
  5
156
100
AcDbEntity
  8
Layer_1
 62
1
100
AcDbSpline
 70
8
 71
3
 72
8
 73
4
 74
0
 40
0
 40
0
 40
0
 40
0
 40
1
 40
1
 40
1
 40
1
 10
4.377482
 20
208.686617
 30
0.0
 10
5.362048
 20
207.702051
 30
0.0
 10
6.697406
 20
207.148927
 30
0.0
 10
8.089793
 20
207.148927
 30
0.0
  0
SPLINE
  5
157
100
AcDbEntity
  8
Layer_1
 62
1
100
AcDbSpline
 70
8
 71
3
 72
8
 73
4
 74
0
 40
0
 40
0
 40
0
 40
0
 40
1
 40
1
 40
1
 40
1
 10
117.006564
 20
207.148927
 30
0.0
 10
119.046883
 20
207.148928
 30
0.0
 10
120.902413
 20
208.331036
 30
0.0
 10
121.764684
 20
210.180195
 30
0.0
  0
SPLINE
  5
158
100
AcDbEntity
  8
Layer_1
 62
1
100
AcDbSpline
 70
8
 71
3
 72
8
 73
4
 74
0
 40
0
 40
0
 40
0
 40
0
 40
1
 40
1
 40
1
 40
1
 10
152.310968
 20
100.929937
 30
0.0
 10
153.572941
 20
100.341520
 30
0.0
 10
154.549473
 20
99.275878
 30
0.0
 10
155.025731
 20
97.967447
 30
0.0
  0
SPLINE
  5
159
100
AcDbEntity
  8
Layer_1
 62
1
100
AcDbSpline
 70
8
 71
3
 72
8
 73
4
 74
0
 40
0
 40
0
 40
0
 40
0
 40
1
 40
1
 40
1
 40
1
 10
155.025731
 20
97.967447
 30
0.0
 10
155.501989
 20
96.659017
 30
0.0
 10
155.438958
 20
95.214982
 30
0.0
 10
154.850505
 20
93.953025
 30
0.0
  0
SPLINE
  5
15a
100
AcDbEntity
  8
Layer_1
 62
1
100
AcDbSpline
 70
8
 71
3
 72
8
 73
4
 74
0
 40
0
 40
0
 40
0
 40
0
 40
1
 40
1
 40
1
 40
1
 10
149.700690
 20
96.438607
 30
0.0
 10
149.699661
 20
96.841215
 30
0.0
 10
149.913859
 20
97.213681
 30
0.0
 10
150.262356
 20
97.415282
 30
0.0
  0
SPLINE
  5
15b
100
AcDbEntity
  8
Layer_1
 62
1
100
AcDbSpline
 70
8
 71
3
 72
8
 73
4
 74
0
 40
0
 40
0
 40
0
 40
0
 40
1
 40
1
 40
1
 40
1
 10
150.262356
 20
97.415282
 30
0.0
 10
150.610854
 20
97.616883
 30
0.0
 10
151.040518
 20
97.616883
 30
0.0
 10
151.389016
 20
97.415282
 30
0.0
  0
SPLINE
  5
15c
100
AcDbEntity
  8
Layer_1
 62
1
100
AcDbSpline
 70
8
 71
3
 72
8
 73
4
 74
0
 40
0
 40
0
 40
0
 40
0
 40
1
 40
1
 40
1
 40
1
 10
151.389016
 20
97.415282
 30
0.0
 10
151.737514
 20
97.213681
 30
0.0
 10
151.951712
 20
96.841215
 30
0.0
 10
151.950682
 20
96.438607
 30
0.0
  0
SPLINE
  5
15d
100
AcDbEntity
  8
Layer_1
 62
1
100
AcDbSpline
 70
8
 71
3
 72
8
 73
4
 74
0
 40
0
 40
0
 40
0
 40
0
 40
1
 40
1
 40
1
 40
1
 10
151.950682
 20
96.438607
 30
0.0
 10
151.951712
 20
96.036000
 30
0.0
 10
151.737514
 20
95.663534
 30
0.0
 10
151.389016
 20
95.461933
 30
0.0
  0
SPLINE
  5
15e
100
AcDbEntity
  8
Layer_1
 62
1
100
AcDbSpline
 70
8
 71
3
 72
8
 73
4
 74
0
 40
0
 40
0
 40
0
 40
0
 40
1
 40
1
 40
1
 40
1
 10
151.389016
 20
95.461933
 30
0.0
 10
151.040518
 20
95.260332
 30
0.0
 10
150.610854
 20
95.260332
 30
0.0
 10
150.262356
 20
95.461933
 30
0.0
  0
SPLINE
  5
15f
100
AcDbEntity
  8
Layer_1
 62
1
100
AcDbSpline
 70
8
 71
3
 72
8
 73
4
 74
0
 40
0
 40
0
 40
0
 40
0
 40
1
 40
1
 40
1
 40
1
 10
150.262356
 20
95.461933
 30
0.0
 10
149.913859
 20
95.663534
 30
0.0
 10
149.699661
 20
96.036000
 30
0.0
 10
149.700690
 20
96.438607
 30
0.0
  0
LWPOLYLINE
  5
160
100
AcDbEntity
  8
Layer_1
 62
1
100
AcDbPolyline
 90
2
 70
0
 10
117.006564
 20
207.148928
 30
0.0
 10
8.089793
 20
207.148928
 30
0.0
  0
SPLINE
  5
161
100
AcDbEntity
  8
Layer_1
 62
1
100
AcDbSpline
 70
8
 71
3
 72
8
 73
4
 74
0
 40
0
 40
0
 40
0
 40
0
 40
1
 40
1
 40
1
 40
1
 10
67.284165
 20
81.299422
 30
0.0
 10
67.284165
 20
81.701346
 30
0.0
 10
67.498589
 20
82.072739
 30
0.0
 10
67.846665
 20
82.273701
 30
0.0
  0
SPLINE
  5
162
100
AcDbEntity
  8
Layer_1
 62
1
100
AcDbSpline
 70
8
 71
3
 72
8
 73
4
 74
0
 40
0
 40
0
 40
0
 40
0
 40
1
 40
1
 40
1
 40
1
 10
67.846665
 20
82.273701
 30
0.0
 10
68.194741
 20
82.474663
 30
0.0
 10
68.623589
 20
82.474663
 30
0.0
 10
68.971665
 20
82.273701
 30
0.0
  0
SPLINE
  5
163
100
AcDbEntity
  8
Layer_1
 62
1
100
AcDbSpline
 70
8
 71
3
 72
8
 73
4
 74
0
 40
0
 40
0
 40
0
 40
0
 40
1
 40
1
 40
1
 40
1
 10
68.971665
 20
82.273701
 30
0.0
 10
69.319741
 20
82.072739
 30
0.0
 10
69.534165
 20
81.701346
 30
0.0
 10
69.534165
 20
81.299422
 30
0.0
  0
SPLINE
  5
164
100
AcDbEntity
  8
Layer_1
 62
1
100
AcDbSpline
 70
8
 71
3
 72
8
 73
4
 74
0
 40
0
 40
0
 40
0
 40
0
 40
1
 40
1
 40
1
 40
1
 10
69.534165
 20
81.299422
 30
0.0
 10
69.534165
 20
80.897499
 30
0.0
 10
69.319741
 20
80.526106
 30
0.0
 10
68.971665
 20
80.325144
 30
0.0
  0
SPLINE
  5
165
100
AcDbEntity
  8
Layer_1
 62
1
100
AcDbSpline
 70
8
 71
3
 72
8
 73
4
 74
0
 40
0
 40
0
 40
0
 40
0
 40
1
 40
1
 40
1
 40
1
 10
68.971665
 20
80.325144
 30
0.0
 10
68.623589
 20
80.124182
 30
0.0
 10
68.194741
 20
80.124182
 30
0.0
 10
67.846665
 20
80.325144
 30
0.0
  0
SPLINE
  5
166
100
AcDbEntity
  8
Layer_1
 62
1
100
AcDbSpline
 70
8
 71
3
 72
8
 73
4
 74
0
 40
0
 40
0
 40
0
 40
0
 40
1
 40
1
 40
1
 40
1
 10
67.846665
 20
80.325144
 30
0.0
 10
67.498589
 20
80.526106
 30
0.0
 10
67.284165
 20
80.897499
 30
0.0
 10
67.284165
 20
81.299422
 30
0.0
  0
LWPOLYLINE
  5
167
100
AcDbEntity
  8
Layer_1
 62
1
100
AcDbPolyline
 90
1
 70
1
 10
149.700690
 20
96.438607
 30
0.0
  0
SPLINE
  5
168
100
AcDbEntity
  8
Layer_1
 62
1
100
AcDbSpline
 70
8
 71
3
 72
8
 73
4
 74
0
 40
0
 40
0
 40
0
 40
0
 40
1
 40
1
 40
1
 40
1
 10
6.979695
 20
83.854275
 30
0.0
 10
6.979695
 20
84.256199
 30
0.0
 10
7.194119
 20
84.627592
 30
0.0
 10
7.542195
 20
84.828554
 30
0.0
  0
SPLINE
  5
169
100
AcDbEntity
  8
Layer_1
 62
1
100
AcDbSpline
 70
8
 71
3
 72
8
 73
4
 74
0
 40
0
 40
0
 40
0
 40
0
 40
1
 40
1
 40
1
 40
1
 10
7.542195
 20
84.828554
 30
0.0
 10
7.890271
 20
85.029515
 30
0.0
 10
8.319119
 20
85.029515
 30
0.0
 10
8.667195
 20
84.828554
 30
0.0
  0
SPLINE
  5
16a
100
AcDbEntity
  8
Layer_1
 62
1
100
AcDbSpline
 70
8
 71
3
 72
8
 73
4
 74
0
 40
0
 40
0
 40
0
 40
0
 40
1
 40
1
 40
1
 40
1
 10
8.667195
 20
84.828554
 30
0.0
 10
9.015271
 20
84.627592
 30
0.0
 10
9.229695
 20
84.256199
 30
0.0
 10
9.229695
 20
83.854275
 30
0.0
  0
SPLINE
  5
16b
100
AcDbEntity
  8
Layer_1
 62
1
100
AcDbSpline
 70
8
 71
3
 72
8
 73
4
 74
0
 40
0
 40
0
 40
0
 40
0
 40
1
 40
1
 40
1
 40
1
 10
9.229695
 20
83.854275
 30
0.0
 10
9.229695
 20
83.452351
 30
0.0
 10
9.015271
 20
83.080958
 30
0.0
 10
8.667195
 20
82.879996
 30
0.0
  0
SPLINE
  5
16c
100
AcDbEntity
  8
Layer_1
 62
1
100
AcDbSpline
 70
8
 71
3
 72
8
 73
4
 74
0
 40
0
 40
0
 40
0
 40
0
 40
1
 40
1
 40
1
 40
1
 10
8.667195
 20
82.879996
 30
0.0
 10
8.319119
 20
82.679035
 30
0.0
 10
7.890271
 20
82.679035
 30
0.0
 10
7.542195
 20
82.879996
 30
0.0
  0
SPLINE
  5
16d
100
AcDbEntity
  8
Layer_1
 62
1
100
AcDbSpline
 70
8
 71
3
 72
8
 73
4
 74
0
 40
0
 40
0
 40
0
 40
0
 40
1
 40
1
 40
1
 40
1
 10
7.542195
 20
82.879996
 30
0.0
 10
7.194119
 20
83.080958
 30
0.0
 10
6.979695
 20
83.452351
 30
0.0
 10
6.979695
 20
83.854275
 30
0.0
  0
LWPOLYLINE
  5
16e
100
AcDbEntity
  8
Layer_1
 62
1
100
AcDbPolyline
 90
1
 70
1
 10
67.284165
 20
81.299422
 30
0.0
  0
LWPOLYLINE
  5
16f
100
AcDbEntity
  8
Layer_1
 62
1
100
AcDbPolyline
 90
1
 70
1
 10
6.979695
 20
83.854275
 30
0.0
  0
LWPOLYLINE
  5
170
100
AcDbEntity
  8
Layer_1
 62
1
100
AcDbPolyline
 90
2
 70
0
 10
124.221885
 20
176.538240
 30
0.0
 10
124.221885
 20
117.371722
 30
0.0
  0
LWPOLYLINE
  5
171
100
AcDbEntity
  8
Layer_1
 62
1
100
AcDbPolyline
 90
2
 70
0
 10
10.074285
 20
99.604132
 30
0.0
 10
10.074285
 20
155.635132
 30
0.0
  0
LWPOLYLINE
  5
172
100
AcDbEntity
  8
Layer_1
 62
1
100
AcDbPolyline
 90
2
 70
0
 10
127.253295
 20
112.613527
 30
0.0
 10
152.310967
 20
100.929937
 30
0.0
  0
SPLINE
  5
173
100
AcDbEntity
  8
Layer_1
 62
1
100
AcDbSpline
 70
8
 71
3
 72
8
 73
4
 74
0
 40
0
 40
0
 40
0
 40
0
 40
1
 40
1
 40
1
 40
1
 10
107.041305
 20
98.830282
 30
0.0
 10
106.717497
 20
98.981285
 30
0.0
 10
106.542085
 20
99.336993
 30
0.0
 10
106.619417
 20
99.685810
 30
0.0
  0
SPLINE
  5
174
100
AcDbEntity
  8
Layer_1
 62
1
100
AcDbSpline
 70
8
 71
3
 72
8
 73
4
 74
0
 40
0
 40
0
 40
0
 40
0
 40
1
 40
1
 40
1
 40
1
 10
106.619417
 20
99.685810
 30
0.0
 10
106.696748
 20
100.034627
 30
0.0
 10
107.006054
 20
100.282876
 30
0.0
 10
107.363340
 20
100.282883
 30
0.0
  0
LWPOLYLINE
  5
175
100
AcDbEntity
  8
Layer_1
 62
1
100
AcDbPolyline
 90
2
 70
0
 10
117.544890
 20
157.051882
 30
0.0
 10
117.554415
 20
108.064740
 30
0.0
  0
SPLINE
  5
176
100
AcDbEntity
  8
Layer_1
 62
1
100
AcDbSpline
 70
8
 71
3
 72
8
 73
4
 74
0
 40
0
 40
0
 40
0
 40
0
 40
1
 40
1
 40
1
 40
1
 10
116.406675
 20
95.724300
 30
0.0
 10
116.278562
 20
95.449557
 30
0.0
 10
116.046555
 20
95.236960
 30
0.0
 10
115.761693
 20
95.133278
 30
0.0
  0
SPLINE
  5
177
100
AcDbEntity
  8
Layer_1
 62
1
100
AcDbSpline
 70
8
 71
3
 72
8
 73
4
 74
0
 40
0
 40
0
 40
0
 40
0
 40
1
 40
1
 40
1
 40
1
 10
115.761693
 20
95.133278
 30
0.0
 10
115.476831
 20
95.029597
 30
0.0
 10
115.162449
 20
95.043323
 30
0.0
 10
114.887707
 20
95.171437
 30
0.0
  0
LWPOLYLINE
  5
178
100
AcDbEntity
  8
Layer_1
 62
1
100
AcDbPolyline
 90
2
 70
0
 10
107.041305
 20
98.830282
 30
0.0
 10
114.887707
 20
95.171437
 30
0.0
  0
SPLINE
  5
179
100
AcDbEntity
  8
Layer_1
 62
1
100
AcDbSpline
 70
8
 71
3
 72
8
 73
4
 74
0
 40
0
 40
0
 40
0
 40
0
 40
1
 40
1
 40
1
 40
1
 10
121.639747
 20
106.946655
 30
0.0
 10
121.817602
 20
107.328063
 30
0.0
 10
122.270972
 20
107.493078
 30
0.0
 10
122.652382
 20
107.315227
 30
0.0
  0
LWPOLYLINE
  5
17a
100
AcDbEntity
  8
Layer_1
 62
1
100
AcDbPolyline
 90
2
 70
0
 10
116.406675
 20
95.724300
 30
0.0
 10
121.639748
 20
106.946655
 30
0.0
  0
SPLINE
  5
17b
100
AcDbEntity
  8
Layer_1
 62
1
100
AcDbSpline
 70
8
 71
3
 72
8
 73
4
 74
0
 40
0
 40
0
 40
0
 40
0
 40
1
 40
1
 40
1
 40
1
 10
147.514223
 20
95.721960
 30
0.0
 10
147.697383
 20
95.636551
 30
0.0
 10
147.839113
 20
95.481880
 30
0.0
 10
147.908234
 20
95.291973
 30
0.0
  0
SPLINE
  5
17c
100
AcDbEntity
  8
Layer_1
 62
1
100
AcDbSpline
 70
8
 71
3
 72
8
 73
4
 74
0
 40
0
 40
0
 40
0
 40
0
 40
1
 40
1
 40
1
 40
1
 10
147.908234
 20
95.291973
 30
0.0
 10
147.977355
 20
95.102065
 30
0.0
 10
147.968204
 20
94.892478
 30
0.0
 10
147.882795
 20
94.709317
 30
0.0
  0
LWPOLYLINE
  5
17d
100
AcDbEntity
  8
Layer_1
 62
1
100
AcDbPolyline
 90
2
 70
0
 10
122.652382
 20
107.315227
 30
0.0
 10
147.514223
 20
95.721960
 30
0.0
  0
SPLINE
  5
17e
100
AcDbEntity
  8
Layer_1
 62
1
100
AcDbSpline
 70
8
 71
3
 72
8
 73
4
 74
0
 40
0
 40
0
 40
0
 40
0
 40
1
 40
1
 40
1
 40
1
 10
130.251367
 20
56.898600
 30
0.0
 10
130.073507
 20
56.517193
 30
0.0
 10
129.620133
 20
56.352185
 30
0.0
 10
129.238725
 20
56.530042
 30
0.0
  0
LWPOLYLINE
  5
17f
100
AcDbEntity
  8
Layer_1
 62
1
100
AcDbPolyline
 90
2
 70
0
 10
147.882795
 20
94.709317
 30
0.0
 10
130.251367
 20
56.898600
 30
0.0
  0
SPLINE
  5
180
100
AcDbEntity
  8
Layer_1
 62
1
100
AcDbSpline
 70
8
 71
3
 72
8
 73
4
 74
0
 40
0
 40
0
 40
0
 40
0
 40
1
 40
1
 40
1
 40
1
 10
91.428022
 20
74.161462
 30
0.0
 10
91.244862
 20
74.246871
 30
0.0
 10
91.103132
 20
74.401542
 30
0.0
 10
91.034011
 20
74.591450
 30
0.0
  0
SPLINE
  5
181
100
AcDbEntity
  8
Layer_1
 62
1
100
AcDbSpline
 70
8
 71
3
 72
8
 73
4
 74
0
 40
0
 40
0
 40
0
 40
0
 40
1
 40
1
 40
1
 40
1
 10
91.034011
 20
74.591450
 30
0.0
 10
90.964890
 20
74.781357
 30
0.0
 10
90.974041
 20
74.990945
 30
0.0
 10
91.059450
 20
75.174105
 30
0.0
  0
LWPOLYLINE
  5
182
100
AcDbEntity
  8
Layer_1
 62
1
100
AcDbPolyline
 90
2
 70
0
 10
129.238725
 20
56.530042
 30
0.0
 10
91.428022
 20
74.161462
 30
0.0
  0
SPLINE
  5
183
100
AcDbEntity
  8
Layer_1
 62
1
100
AcDbSpline
 70
8
 71
3
 72
8
 73
4
 74
0
 40
0
 40
0
 40
0
 40
0
 40
1
 40
1
 40
1
 40
1
 10
100.973715
 20
100.282882
 30
0.0
 10
101.364303
 20
100.282882
 30
0.0
 10
101.727847
 20
100.083433
 30
0.0
 10
101.937710
 20
99.754015
 30
0.0
  0
SPLINE
  5
184
100
AcDbEntity
  8
Layer_1
 62
1
100
AcDbSpline
 70
8
 71
3
 72
8
 73
4
 74
0
 40
0
 40
0
 40
0
 40
0
 40
1
 40
1
 40
1
 40
1
 10
101.937710
 20
99.754015
 30
0.0
 10
102.147572
 20
99.424597
 30
0.0
 10
102.174692
 20
99.010823
 30
0.0
 10
102.009622
 20
98.656830
 30
0.0
  0
LWPOLYLINE
  5
185
100
AcDbEntity
  8
Layer_1
 62
1
100
AcDbPolyline
 90
2
 70
0
 10
91.059450
 20
75.174105
 30
0.0
 10
102.009622
 20
98.656830
 30
0.0
  0
SPLINE
  5
186
100
AcDbEntity
  8
Layer_1
 62
1
100
AcDbSpline
 70
8
 71
3
 72
8
 73
4
 74
0
 40
0
 40
0
 40
0
 40
0
 40
1
 40
1
 40
1
 40
1
 10
88.969890
 20
99.139882
 30
0.0
 10
88.969890
 20
99.443025
 30
0.0
 10
89.090313
 20
99.733751
 30
0.0
 10
89.304667
 20
99.948106
 30
0.0
  0
SPLINE
  5
187
100
AcDbEntity
  8
Layer_1
 62
1
100
AcDbSpline
 70
8
 71
3
 72
8
 73
4
 74
0
 40
0
 40
0
 40
0
 40
0
 40
1
 40
1
 40
1
 40
1
 10
89.304667
 20
99.948106
 30
0.0
 10
89.519021
 20
100.162460
 30
0.0
 10
89.809748
 20
100.282882
 30
0.0
 10
90.112890
 20
100.282882
 30
0.0
  0
LWPOLYLINE
  5
188
100
AcDbEntity
  8
Layer_1
 62
1
100
AcDbPolyline
 90
2
 70
0
 10
100.973715
 20
100.282882
 30
0.0
 10
90.112890
 20
100.282882
 30
0.0
  0
SPLINE
  5
189
100
AcDbEntity
  8
Layer_1
 62
1
100
AcDbSpline
 70
8
 71
3
 72
8
 73
4
 74
0
 40
0
 40
0
 40
0
 40
0
 40
1
 40
1
 40
1
 40
1
 10
88.969890
 20
87.709882
 30
0.0
 10
88.969890
 20
87.289042
 30
0.0
 10
88.628731
 20
86.947883
 30
0.0
 10
88.207890
 20
86.947882
 30
0.0
  0
LWPOLYLINE
  5
18a
100
AcDbEntity
  8
Layer_1
 62
1
100
AcDbPolyline
 90
2
 70
0
 10
88.969890
 20
99.139882
 30
0.0
 10
88.969890
 20
87.709882
 30
0.0
  0
SPLINE
  5
18b
100
AcDbEntity
  8
Layer_1
 62
1
100
AcDbSpline
 70
8
 71
3
 72
8
 73
4
 74
0
 40
0
 40
0
 40
0
 40
0
 40
1
 40
1
 40
1
 40
1
 10
74.924370
 20
86.947882
 30
0.0
 10
74.613867
 20
86.947885
 30
0.0
 10
74.334421
 20
87.136289
 30
0.0
 10
74.217983
 20
87.424132
 30
0.0
  0
SPLINE
  5
18c
100
AcDbEntity
  8
Layer_1
 62
1
100
AcDbSpline
 70
8
 71
3
 72
8
 73
4
 74
0
 40
0
 40
0
 40
0
 40
0
 40
1
 40
1
 40
1
 40
1
 10
73.158390
 20
88.138507
 30
0.0
 10
73.624148
 20
88.138509
 30
0.0
 10
74.043323
 20
87.855902
 30
0.0
 10
74.217982
 20
87.424132
 30
0.0
  0
LWPOLYLINE
  5
18d
100
AcDbEntity
  8
Layer_1
 62
1
100
AcDbPolyline
 90
2
 70
0
 10
88.207890
 20
86.947882
 30
0.0
 10
74.924370
 20
86.947882
 30
0.0
  0
SPLINE
  5
18e
100
AcDbEntity
  8
Layer_1
 62
1
100
AcDbSpline
 70
8
 71
3
 72
8
 73
4
 74
0
 40
0
 40
0
 40
0
 40
0
 40
1
 40
1
 40
1
 40
1
 10
60.478305
 20
87.424132
 30
0.0
 10
60.652963
 20
87.855899
 30
0.0
 10
61.072135
 20
88.138506
 30
0.0
 10
61.537890
 20
88.138507
 30
0.0
  0
SPLINE
  5
18f
100
AcDbEntity
  8
Layer_1
 62
1
100
AcDbSpline
 70
8
 71
3
 72
8
 73
4
 74
0
 40
0
 40
0
 40
0
 40
0
 40
1
 40
1
 40
1
 40
1
 10
60.478305
 20
87.424132
 30
0.0
 10
60.361866
 20
87.136286
 30
0.0
 10
60.082415
 20
86.947882
 30
0.0
 10
59.771910
 20
86.947882
 30
0.0
  0
LWPOLYLINE
  5
190
100
AcDbEntity
  8
Layer_1
 62
1
100
AcDbPolyline
 90
2
 70
0
 10
73.158390
 20
88.138507
 30
0.0
 10
61.537890
 20
88.138507
 30
0.0
  0
SPLINE
  5
191
100
AcDbEntity
  8
Layer_1
 62
1
100
AcDbSpline
 70
8
 71
3
 72
8
 73
4
 74
0
 40
0
 40
0
 40
0
 40
0
 40
1
 40
1
 40
1
 40
1
 10
46.107390
 20
85.804882
 30
0.0
 10
46.107390
 20
86.108025
 30
0.0
 10
46.227813
 20
86.398751
 30
0.0
 10
46.442167
 20
86.613106
 30
0.0
  0
SPLINE
  5
192
100
AcDbEntity
  8
Layer_1
 62
1
100
AcDbSpline
 70
8
 71
3
 72
8
 73
4
 74
0
 40
0
 40
0
 40
0
 40
0
 40
1
 40
1
 40
1
 40
1
 10
46.442167
 20
86.613106
 30
0.0
 10
46.656521
 20
86.827460
 30
0.0
 10
46.947248
 20
86.947882
 30
0.0
 10
47.250390
 20
86.947882
 30
0.0
  0
LWPOLYLINE
  5
193
100
AcDbEntity
  8
Layer_1
 62
1
100
AcDbPolyline
 90
2
 70
0
 10
59.771910
 20
86.947882
 30
0.0
 10
47.250390
 20
86.947882
 30
0.0
  0
SPLINE
  5
194
100
AcDbEntity
  8
Layer_1
 62
1
100
AcDbSpline
 70
8
 71
3
 72
8
 73
4
 74
0
 40
0
 40
0
 40
0
 40
0
 40
1
 40
1
 40
1
 40
1
 10
46.107390
 20
85.328632
 30
0.0
 10
46.107390
 20
84.907792
 30
0.0
 10
45.766231
 20
84.566633
 30
0.0
 10
45.345390
 20
84.566632
 30
0.0
  0
LWPOLYLINE
  5
195
100
AcDbEntity
  8
Layer_1
 62
1
100
AcDbPolyline
 90
2
 70
0
 10
46.107390
 20
85.804882
 30
0.0
 10
46.107390
 20
85.328632
 30
0.0
  0
SPLINE
  5
196
100
AcDbEntity
  8
Layer_1
 62
1
100
AcDbSpline
 70
8
 71
3
 72
8
 73
4
 74
0
 40
0
 40
0
 40
0
 40
0
 40
1
 40
1
 40
1
 40
1
 10
17.913390
 20
84.566632
 30
0.0
 10
17.711295
 20
84.566632
 30
0.0
 10
17.517477
 20
84.646914
 30
0.0
 10
17.374575
 20
84.789817
 30
0.0
  0
SPLINE
  5
197
100
AcDbEntity
  8
Layer_1
 62
1
100
AcDbSpline
 70
8
 71
3
 72
8
 73
4
 74
0
 40
0
 40
0
 40
0
 40
0
 40
1
 40
1
 40
1
 40
1
 10
17.374575
 20
84.789817
 30
0.0
 10
17.231672
 20
84.932720
 30
0.0
 10
17.151390
 20
85.126538
 30
0.0
 10
17.151390
 20
85.328632
 30
0.0
  0
LWPOLYLINE
  5
198
100
AcDbEntity
  8
Layer_1
 62
1
100
AcDbPolyline
 90
2
 70
0
 10
45.345390
 20
84.566632
 30
0.0
 10
17.913390
 20
84.566632
 30
0.0
  0
SPLINE
  5
199
100
AcDbEntity
  8
Layer_1
 62
1
100
AcDbSpline
 70
8
 71
3
 72
8
 73
4
 74
0
 40
0
 40
0
 40
0
 40
0
 40
1
 40
1
 40
1
 40
1
 10
16.008390
 20
98.854132
 30
0.0
 10
16.311532
 20
98.854132
 30
0.0
 10
16.602259
 20
98.733710
 30
0.0
 10
16.816613
 20
98.519356
 30
0.0
  0
SPLINE
  5
19a
100
AcDbEntity
  8
Layer_1
 62
1
100
AcDbSpline
 70
8
 71
3
 72
8
 73
4
 74
0
 40
0
 40
0
 40
0
 40
0
 40
1
 40
1
 40
1
 40
1
 10
16.816613
 20
98.519356
 30
0.0
 10
17.030967
 20
98.305001
 30
0.0
 10
17.151390
 20
98.014275
 30
0.0
 10
17.151390
 20
97.711132
 30
0.0
  0
LWPOLYLINE
  5
19b
100
AcDbEntity
  8
Layer_1
 62
1
100
AcDbPolyline
 90
2
 70
0
 10
17.151390
 20
85.328632
 30
0.0
 10
17.151390
 20
97.711132
 30
0.0
  0
LWPOLYLINE
  5
19c
100
AcDbEntity
  8
Layer_1
 62
1
100
AcDbPolyline
 90
2
 70
0
 10
16.008390
 20
98.854132
 30
0.0
 10
10.824285
 20
98.854132
 30
0.0
  0
SPLINE
  5
19d
100
AcDbEntity
  8
Layer_1
 62
1
100
AcDbSpline
 70
8
 71
3
 72
8
 73
4
 74
0
 40
0
 40
0
 40
0
 40
0
 40
1
 40
1
 40
1
 40
1
 10
45.726390
 20
157.528133
 30
0.0
 10
45.726390
 20
157.224990
 30
0.0
 10
45.605967
 20
156.934264
 30
0.0
 10
45.391613
 20
156.719909
 30
0.0
  0
SPLINE
  5
19e
100
AcDbEntity
  8
Layer_1
 62
1
100
AcDbSpline
 70
8
 71
3
 72
8
 73
4
 74
0
 40
0
 40
0
 40
0
 40
0
 40
1
 40
1
 40
1
 40
1
 10
45.391613
 20
156.719909
 30
0.0
 10
45.177259
 20
156.505555
 30
0.0
 10
44.886532
 20
156.385133
 30
0.0
 10
44.583390
 20
156.385133
 30
0.0
  0
LWPOLYLINE
  5
19f
100
AcDbEntity
  8
Layer_1
 62
1
100
AcDbPolyline
 90
2
 70
0
 10
10.824285
 20
156.385132
 30
0.0
 10
44.583390
 20
156.385132
 30
0.0
  0
SPLINE
  5
1a0
100
AcDbEntity
  8
Layer_1
 62
1
100
AcDbSpline
 70
8
 71
3
 72
8
 73
4
 74
0
 40
0
 40
0
 40
0
 40
0
 40
1
 40
1
 40
1
 40
1
 10
45.726390
 20
158.004383
 30
0.0
 10
45.726390
 20
158.206477
 30
0.0
 10
45.806672
 20
158.400295
 30
0.0
 10
45.949575
 20
158.543198
 30
0.0
  0
SPLINE
  5
1a1
100
AcDbEntity
  8
Layer_1
 62
1
100
AcDbSpline
 70
8
 71
3
 72
8
 73
4
 74
0
 40
0
 40
0
 40
0
 40
0
 40
1
 40
1
 40
1
 40
1
 10
45.949575
 20
158.543198
 30
0.0
 10
46.092477
 20
158.686101
 30
0.0
 10
46.286295
 20
158.766382
 30
0.0
 10
46.488390
 20
158.766382
 30
0.0
  0
LWPOLYLINE
  5
1a2
100
AcDbEntity
  8
Layer_1
 62
1
100
AcDbPolyline
 90
2
 70
0
 10
45.726390
 20
157.528132
 30
0.0
 10
45.726390
 20
158.004382
 30
0.0
  0
SPLINE
  5
1a3
100
AcDbEntity
  8
Layer_1
 62
1
100
AcDbSpline
 70
8
 71
3
 72
8
 73
4
 74
0
 40
0
 40
0
 40
0
 40
0
 40
1
 40
1
 40
1
 40
1
 10
59.930482
 20
159.480757
 30
0.0
 10
59.755823
 20
159.048988
 30
0.0
 10
59.336648
 20
158.766381
 30
0.0
 10
58.870890
 20
158.766382
 30
0.0
  0
SPLINE
  5
1a4
100
AcDbEntity
  8
Layer_1
 62
1
100
AcDbSpline
 70
8
 71
3
 72
8
 73
4
 74
0
 40
0
 40
0
 40
0
 40
0
 40
1
 40
1
 40
1
 40
1
 10
59.930482
 20
159.480758
 30
0.0
 10
60.046921
 20
159.768601
 30
0.0
 10
60.326367
 20
159.957005
 30
0.0
 10
60.636870
 20
159.957007
 30
0.0
  0
LWPOLYLINE
  5
1a5
100
AcDbEntity
  8
Layer_1
 62
1
100
AcDbPolyline
 90
2
 70
0
 10
46.488390
 20
158.766382
 30
0.0
 10
58.870890
 20
158.766382
 30
0.0
  0
SPLINE
  5
1a6
100
AcDbEntity
  8
Layer_1
 62
1
100
AcDbSpline
 70
8
 71
3
 72
8
 73
4
 74
0
 40
0
 40
0
 40
0
 40
0
 40
1
 40
1
 40
1
 40
1
 10
74.059410
 20
159.957008
 30
0.0
 10
74.369915
 20
159.957008
 30
0.0
 10
74.649366
 20
159.768604
 30
0.0
 10
74.765805
 20
159.480758
 30
0.0
  0
SPLINE
  5
1a7
100
AcDbEntity
  8
Layer_1
 62
1
100
AcDbSpline
 70
8
 71
3
 72
8
 73
4
 74
0
 40
0
 40
0
 40
0
 40
0
 40
1
 40
1
 40
1
 40
1
 10
75.825390
 20
158.766382
 30
0.0
 10
75.359635
 20
158.766384
 30
0.0
 10
74.940463
 20
159.048991
 30
0.0
 10
74.765805
 20
159.480757
 30
0.0
  0
LWPOLYLINE
  5
1a8
100
AcDbEntity
  8
Layer_1
 62
1
100
AcDbPolyline
 90
2
 70
0
 10
60.636870
 20
159.957007
 30
0.0
 10
74.059410
 20
159.957007
 30
0.0
  0
SPLINE
  5
1a9
100
AcDbEntity
  8
Layer_1
 62
1
100
AcDbSpline
 70
8
 71
3
 72
8
 73
4
 74
0
 40
0
 40
0
 40
0
 40
0
 40
1
 40
1
 40
1
 40
1
 10
88.463115
 20
158.766382
 30
0.0
 10
88.735351
 20
158.766382
 30
0.0
 10
88.986907
 20
158.621146
 30
0.0
 10
89.123025
 20
158.385382
 30
0.0
  0
SPLINE
  5
1aa
100
AcDbEntity
  8
Layer_1
 62
1
100
AcDbSpline
 70
8
 71
3
 72
8
 73
4
 74
0
 40
0
 40
0
 40
0
 40
0
 40
1
 40
1
 40
1
 40
1
 10
90.112890
 20
157.813882
 30
0.0
 10
89.704536
 20
157.813883
 30
0.0
 10
89.327202
 20
158.031738
 30
0.0
 10
89.123025
 20
158.385382
 30
0.0
  0
LWPOLYLINE
  5
1ab
100
AcDbEntity
  8
Layer_1
 62
1
100
AcDbPolyline
 90
2
 70
0
 10
75.825390
 20
158.766382
 30
0.0
 10
88.463115
 20
158.766382
 30
0.0
  0
SPLINE
  5
1ac
100
AcDbEntity
  8
Layer_1
 62
1
100
AcDbSpline
 70
8
 71
3
 72
8
 73
4
 74
0
 40
0
 40
0
 40
0
 40
0
 40
1
 40
1
 40
1
 40
1
 10
116.782890
 20
157.813882
 30
0.0
 10
117.203731
 20
157.813882
 30
0.0
 10
117.544890
 20
157.472723
 30
0.0
 10
117.544890
 20
157.051882
 30
0.0
  0
LWPOLYLINE
  5
1ad
100
AcDbEntity
  8
Layer_1
 62
1
100
AcDbPolyline
 90
2
 70
0
 10
90.112890
 20
157.813882
 30
0.0
 10
116.782890
 20
157.813882
 30
0.0
  0
SPLINE
  5
1ae
100
AcDbEntity
  8
Layer_1
 62
1
100
AcDbSpline
 70
8
 71
3
 72
8
 73
4
 74
0
 40
0
 40
0
 40
0
 40
0
 40
1
 40
1
 40
1
 40
1
 10
117.544890
 20
101.044882
 30
0.0
 10
117.544890
 20
100.624042
 30
0.0
 10
117.203731
 20
100.282883
 30
0.0
 10
116.782890
 20
100.282882
 30
0.0
  0
LWPOLYLINE
  5
1af
100
AcDbEntity
  8
Layer_1
 62
1
100
AcDbPolyline
 90
2
 70
0
 10
117.544890
 20
157.051882
 30
0.0
 10
117.544890
 20
101.044882
 30
0.0
  0
LWPOLYLINE
  5
1b0
100
AcDbEntity
  8
Layer_1
 62
1
100
AcDbPolyline
 90
2
 70
0
 10
116.782890
 20
100.282882
 30
0.0
 10
107.363340
 20
100.282882
 30
0.0
  0
LWPOLYLINE
  5
1b1
100
AcDbEntity
  8
Layer_1
 62
1
100
AcDbPolyline
 90
2
 70
0
 10
75.262635
 20
161.769352
 30
0.0
 10
75.262635
 20
165.808785
 30
0.0
  0
SPLINE
  5
1b2
100
AcDbEntity
  8
Layer_1
 62
1
100
AcDbSpline
 70
8
 71
3
 72
8
 73
4
 74
0
 40
0
 40
0
 40
0
 40
0
 40
1
 40
1
 40
1
 40
1
 10
127.253295
 20
112.613528
 30
0.0
 10
125.404056
 20
113.475768
 30
0.0
 10
124.221882
 20
115.331344
 30
0.0
 10
124.221885
 20
117.371723
 30
0.0
  0
SPLINE
  5
1b3
100
AcDbEntity
  8
Layer_1
 62
1
100
AcDbSpline
 70
8
 71
3
 72
8
 73
4
 74
0
 40
0
 40
0
 40
0
 40
0
 40
1
 40
1
 40
1
 40
1
 10
10.074285
 20
155.635132
 30
0.0
 10
10.074285
 20
156.049346
 30
0.0
 10
10.410071
 20
156.385132
 30
0.0
 10
10.824285
 20
156.385132
 30
0.0
  0
SPLINE
  5
1b4
100
AcDbEntity
  8
Layer_1
 62
1
100
AcDbSpline
 70
8
 71
3
 72
8
 73
4
 74
0
 40
0
 40
0
 40
0
 40
0
 40
1
 40
1
 40
1
 40
1
 10
10.824285
 20
98.854132
 30
0.0
 10
10.410071
 20
98.854133
 30
0.0
 10
10.074285
 20
99.189919
 30
0.0
 10
10.074285
 20
99.604133
 30
0.0
  0
LWPOLYLINE
  5
1b5
100
AcDbEntity
  8
Layer_1
 62
1
100
AcDbPolyline
 90
2
 70
0
 10
69.551047
 20
161.827890
 30
0.0
 10
75.262635
 20
161.827890
 30
0.0
  0
SPLINE
  5
1b6
100
AcDbEntity
  8
Layer_1
 62
1
100
AcDbSpline
 70
8
 71
3
 72
8
 73
4
 74
0
 40
0
 40
0
 40
0
 40
0
 40
1
 40
1
 40
1
 40
1
 10
8.656785
 20
21.184297
 30
0.0
 10
7.264398
 20
21.184297
 30
0.0
 10
5.929040
 20
21.737421
 30
0.0
 10
4.944474
 20
22.721987
 30
0.0
  0
SPLINE
  5
1b7
100
AcDbEntity
  8
Layer_1
 62
1
100
AcDbSpline
 70
8
 71
3
 72
8
 73
4
 74
0
 40
0
 40
0
 40
0
 40
0
 40
1
 40
1
 40
1
 40
1
 10
4.944474
 20
22.721987
 30
0.0
 10
3.959908
 20
23.706553
 30
0.0
 10
3.406785
 20
25.041911
 30
0.0
 10
3.406785
 20
26.434297
 30
0.0
  0
SPLINE
  5
1b8
100
AcDbEntity
  8
Layer_1
 62
1
100
AcDbSpline
 70
8
 71
3
 72
8
 73
4
 74
0
 40
0
 40
0
 40
0
 40
0
 40
1
 40
1
 40
1
 40
1
 10
122.331675
 20
24.215572
 30
0.0
 10
121.469407
 20
22.366411
 30
0.0
 10
119.613875
 20
21.184300
 30
0.0
 10
117.573555
 20
21.184297
 30
0.0
  0
SPLINE
  5
1b9
100
AcDbEntity
  8
Layer_1
 62
1
100
AcDbSpline
 70
8
 71
3
 72
8
 73
4
 74
0
 40
0
 40
0
 40
0
 40
0
 40
1
 40
1
 40
1
 40
1
 10
6.979695
 20
25.882230
 30
0.0
 10
6.979695
 20
26.284154
 30
0.0
 10
7.194119
 20
26.655547
 30
0.0
 10
7.542195
 20
26.856509
 30
0.0
  0
SPLINE
  5
1ba
100
AcDbEntity
  8
Layer_1
 62
1
100
AcDbSpline
 70
8
 71
3
 72
8
 73
4
 74
0
 40
0
 40
0
 40
0
 40
0
 40
1
 40
1
 40
1
 40
1
 10
7.542195
 20
26.856509
 30
0.0
 10
7.890271
 20
27.057470
 30
0.0
 10
8.319119
 20
27.057470
 30
0.0
 10
8.667195
 20
26.856509
 30
0.0
  0
SPLINE
  5
1bb
100
AcDbEntity
  8
Layer_1
 62
1
100
AcDbSpline
 70
8
 71
3
 72
8
 73
4
 74
0
 40
0
 40
0
 40
0
 40
0
 40
1
 40
1
 40
1
 40
1
 10
8.667195
 20
26.856509
 30
0.0
 10
9.015271
 20
26.655547
 30
0.0
 10
9.229695
 20
26.284154
 30
0.0
 10
9.229695
 20
25.882230
 30
0.0
  0
SPLINE
  5
1bc
100
AcDbEntity
  8
Layer_1
 62
1
100
AcDbSpline
 70
8
 71
3
 72
8
 73
4
 74
0
 40
0
 40
0
 40
0
 40
0
 40
1
 40
1
 40
1
 40
1
 10
9.229695
 20
25.882230
 30
0.0
 10
9.229695
 20
25.480306
 30
0.0
 10
9.015271
 20
25.108913
 30
0.0
 10
8.667195
 20
24.907951
 30
0.0
  0
SPLINE
  5
1bd
100
AcDbEntity
  8
Layer_1
 62
1
100
AcDbSpline
 70
8
 71
3
 72
8
 73
4
 74
0
 40
0
 40
0
 40
0
 40
0
 40
1
 40
1
 40
1
 40
1
 10
8.667195
 20
24.907951
 30
0.0
 10
8.319119
 20
24.706990
 30
0.0
 10
7.890271
 20
24.706990
 30
0.0
 10
7.542195
 20
24.907951
 30
0.0
  0
SPLINE
  5
1be
100
AcDbEntity
  8
Layer_1
 62
1
100
AcDbSpline
 70
8
 71
3
 72
8
 73
4
 74
0
 40
0
 40
0
 40
0
 40
0
 40
1
 40
1
 40
1
 40
1
 10
7.542195
 20
24.907951
 30
0.0
 10
7.194119
 20
25.108913
 30
0.0
 10
6.979695
 20
25.480306
 30
0.0
 10
6.979695
 20
25.882230
 30
0.0
  0
LWPOLYLINE
  5
1bf
100
AcDbEntity
  8
Layer_1
 62
1
100
AcDbPolyline
 90
2
 70
0
 10
117.573555
 20
21.184297
 30
0.0
 10
8.656785
 20
21.184297
 30
0.0
  0
SPLINE
  5
1c0
100
AcDbEntity
  8
Layer_1
 62
1
100
AcDbSpline
 70
8
 71
3
 72
8
 73
4
 74
0
 40
0
 40
0
 40
0
 40
0
 40
1
 40
1
 40
1
 40
1
 10
116.987542
 20
25.588260
 30
0.0
 10
116.987542
 20
25.990185
 30
0.0
 10
117.201967
 20
26.361579
 30
0.0
 10
117.550044
 20
26.562542
 30
0.0
  0
SPLINE
  5
1c1
100
AcDbEntity
  8
Layer_1
 62
1
100
AcDbSpline
 70
8
 71
3
 72
8
 73
4
 74
0
 40
0
 40
0
 40
0
 40
0
 40
1
 40
1
 40
1
 40
1
 10
117.550044
 20
26.562542
 30
0.0
 10
117.898122
 20
26.763504
 30
0.0
 10
118.326971
 20
26.763504
 30
0.0
 10
118.675048
 20
26.562542
 30
0.0
  0
SPLINE
  5
1c2
100
AcDbEntity
  8
Layer_1
 62
1
100
AcDbSpline
 70
8
 71
3
 72
8
 73
4
 74
0
 40
0
 40
0
 40
0
 40
0
 40
1
 40
1
 40
1
 40
1
 10
118.675048
 20
26.562542
 30
0.0
 10
119.023125
 20
26.361579
 30
0.0
 10
119.237550
 20
25.990185
 30
0.0
 10
119.237550
 20
25.588260
 30
0.0
  0
SPLINE
  5
1c3
100
AcDbEntity
  8
Layer_1
 62
1
100
AcDbSpline
 70
8
 71
3
 72
8
 73
4
 74
0
 40
0
 40
0
 40
0
 40
0
 40
1
 40
1
 40
1
 40
1
 10
119.237550
 20
25.588260
 30
0.0
 10
119.237550
 20
25.186335
 30
0.0
 10
119.023125
 20
24.814941
 30
0.0
 10
118.675048
 20
24.613978
 30
0.0
  0
SPLINE
  5
1c4
100
AcDbEntity
  8
Layer_1
 62
1
100
AcDbSpline
 70
8
 71
3
 72
8
 73
4
 74
0
 40
0
 40
0
 40
0
 40
0
 40
1
 40
1
 40
1
 40
1
 10
118.675048
 20
24.613978
 30
0.0
 10
118.326971
 20
24.413016
 30
0.0
 10
117.898122
 20
24.413016
 30
0.0
 10
117.550044
 20
24.613978
 30
0.0
  0
SPLINE
  5
1c5
100
AcDbEntity
  8
Layer_1
 62
1
100
AcDbSpline
 70
8
 71
3
 72
8
 73
4
 74
0
 40
0
 40
0
 40
0
 40
0
 40
1
 40
1
 40
1
 40
1
 10
117.550044
 20
24.613978
 30
0.0
 10
117.201967
 20
24.814941
 30
0.0
 10
116.987542
 20
25.186335
 30
0.0
 10
116.987542
 20
25.588260
 30
0.0
  0
LWPOLYLINE
  5
1c6
100
AcDbEntity
  8
Layer_1
 62
1
100
AcDbPolyline
 90
1
 70
1
 10
6.979695
 20
25.882230
 30
0.0
  0
LWPOLYLINE
  5
1c7
100
AcDbEntity
  8
Layer_1
 62
1
100
AcDbPolyline
 90
1
 70
1
 10
116.987542
 20
25.588260
 30
0.0
  0
LWPOLYLINE
  5
1c8
100
AcDbEntity
  8
Layer_1
 62
1
100
AcDbPolyline
 90
1
 70
1
 10
135.406785
 20
56.014740
 30
0.0
  0
LWPOLYLINE
  5
1c9
100
AcDbEntity
  8
Layer_1
 62
1
100
AcDbPolyline
 90
2
 70
0
 10
3.406785
 20
26.434297
 30
0.0
 10
3.406785
 20
176.538240
 30
0.0
  0
LWPOLYLINE
  5
1ca
100
AcDbEntity
  8
Layer_1
 62
1
100
AcDbPolyline
 90
2
 70
0
 10
154.850505
 20
93.953025
 30
0.0
 10
122.331675
 20
24.215572
 30
0.0
  0
LWPOLYLINE
  5
1cb
100
AcDbEntity
  8
Layer_1
 62
1
100
AcDbPolyline
 90
2
 70
0
 10
101.887628
 20
176.827890
 30
0.0
 10
101.887628
 20
177.953475
 30
0.0
  0
LWPOLYLINE
  5
1cc
100
AcDbEntity
  8
Layer_1
 62
1
100
AcDbPolyline
 90
2
 70
0
 10
8.656755
 20
181.788165
 30
0.0
 10
50.288835
 20
181.788240
 30
0.0
  0
LWPOLYLINE
  5
1cd
100
AcDbEntity
  8
Layer_1
 62
1
100
AcDbPolyline
 90
2
 70
0
 10
72.253485
 20
181.788240
 30
0.0
 10
86.560027
 20
181.788240
 30
0.0
  0
LWPOLYLINE
  5
1ce
100
AcDbEntity
  8
Layer_1
 62
1
100
AcDbPolyline
 90
2
 70
0
 10
112.887127
 20
181.788240
 30
0.0
 10
118.971847
 20
181.788165
 30
0.0
  0
LWPOLYLINE
  5
1cf
100
AcDbEntity
  8
Layer_1
 62
1
100
AcDbPolyline
 90
2
 70
0
 10
104.512628
 20
176.827890
 30
0.0
 10
104.512628
 20
174.170782
 30
0.0
  0
LWPOLYLINE
  5
1d0
100
AcDbEntity
  8
Layer_1
 62
1
100
AcDbPolyline
 90
2
 70
0
 10
104.512628
 20
166.702890
 30
0.0
 10
94.934527
 20
166.702890
 30
0.0
  0
LWPOLYLINE
  5
1d1
100
AcDbEntity
  8
Layer_1
 62
1
100
AcDbPolyline
 90
2
 70
0
 10
64.168665
 20
174.952890
 30
0.0
 10
66.262635
 20
174.952890
 30
0.0
  0
LWPOLYLINE
  5
1d2
100
AcDbEntity
  8
Layer_1
 62
1
100
AcDbPolyline
 90
4
 70
0
 10
58.392705
 20
177.953475
 30
0.0
 10
58.392705
 20
174.952890
 30
0.0
 10
20.512635
 20
174.952890
 30
0.0
 10
13.765717
 20
174.952890
 30
0.0
  0
LWPOLYLINE
  5
1d3
100
AcDbEntity
  8
Layer_1
 62
1
100
AcDbPolyline
 90
2
 70
0
 10
97.387635
 20
177.953475
 30
0.0
 10
97.387635
 20
176.827890
 30
0.0
  0
LWPOLYLINE
  5
1d4
100
AcDbEntity
  8
Layer_1
 62
1
100
AcDbPolyline
 90
2
 70
0
 10
58.392705
 20
177.953475
 30
0.0
 10
57.267705
 20
177.953475
 30
0.0
  0
LWPOLYLINE
  5
1d5
100
AcDbEntity
  8
Layer_1
 62
1
100
AcDbPolyline
 90
2
 70
0
 10
65.293665
 20
177.953475
 30
0.0
 10
64.168665
 20
177.953475
 30
0.0
  0
LWPOLYLINE
  5
1d6
100
AcDbEntity
  8
Layer_1
 62
1
100
AcDbPolyline
 90
2
 70
0
 10
57.267705
 20
177.953475
 30
0.0
 10
50.288835
 20
181.788240
 30
0.0
  0
LWPOLYLINE
  5
1d7
100
AcDbEntity
  8
Layer_1
 62
1
100
AcDbPolyline
 90
2
 70
0
 10
72.253485
 20
181.788240
 30
0.0
 10
65.274615
 20
177.953475
 30
0.0
  0
LWPOLYLINE
  5
1d8
100
AcDbEntity
  8
Layer_1
 62
1
100
AcDbPolyline
 90
2
 70
0
 10
97.387635
 20
177.953475
 30
0.0
 10
96.969803
 20
177.953475
 30
0.0
  0
LWPOLYLINE
  5
1d9
100
AcDbEntity
  8
Layer_1
 62
1
100
AcDbPolyline
 90
2
 70
0
 10
102.477360
 20
177.953475
 30
0.0
 10
101.887628
 20
177.953475
 30
0.0
  0
LWPOLYLINE
  5
1da
100
AcDbEntity
  8
Layer_1
 62
1
100
AcDbPolyline
 90
2
 70
0
 10
96.969803
 20
177.953475
 30
0.0
 10
86.560028
 20
181.788240
 30
0.0
  0
LWPOLYLINE
  5
1db
100
AcDbEntity
  8
Layer_1
 62
1
100
AcDbPolyline
 90
2
 70
0
 10
112.887127
 20
181.788240
 30
0.0
 10
102.477360
 20
177.953475
 30
0.0
  0
LWPOLYLINE
  5
1dc
100
AcDbEntity
  8
Layer_1
 62
1
100
AcDbPolyline
 90
2
 70
0
 10
101.887628
 20
176.827890
 30
0.0
 10
104.512628
 20
176.827890
 30
0.0
  0
LWPOLYLINE
  5
1dd
100
AcDbEntity
  8
Layer_1
 62
1
100
AcDbPolyline
 90
2
 70
0
 10
75.262635
 20
171.463140
 30
0.0
 10
66.262635
 20
171.463140
 30
0.0
  0
SPLINE
  5
1de
100
AcDbEntity
  8
Layer_1
 62
1
100
AcDbSpline
 70
8
 71
3
 72
8
 73
4
 74
0
 40
0
 40
0
 40
0
 40
0
 40
1
 40
1
 40
1
 40
1
 10
6.979657
 20
177.090262
 30
0.0
 10
6.979657
 20
177.492186
 30
0.0
 10
7.194081
 20
177.863579
 30
0.0
 10
7.542157
 20
178.064541
 30
0.0
  0
SPLINE
  5
1df
100
AcDbEntity
  8
Layer_1
 62
1
100
AcDbSpline
 70
8
 71
3
 72
8
 73
4
 74
0
 40
0
 40
0
 40
0
 40
0
 40
1
 40
1
 40
1
 40
1
 10
7.542157
 20
178.064541
 30
0.0
 10
7.890234
 20
178.265503
 30
0.0
 10
8.319081
 20
178.265503
 30
0.0
 10
8.667157
 20
178.064541
 30
0.0
  0
SPLINE
  5
1e0
100
AcDbEntity
  8
Layer_1
 62
1
100
AcDbSpline
 70
8
 71
3
 72
8
 73
4
 74
0
 40
0
 40
0
 40
0
 40
0
 40
1
 40
1
 40
1
 40
1
 10
8.667157
 20
178.064541
 30
0.0
 10
9.015234
 20
177.863579
 30
0.0
 10
9.229657
 20
177.492186
 30
0.0
 10
9.229657
 20
177.090262
 30
0.0
  0
SPLINE
  5
1e1
100
AcDbEntity
  8
Layer_1
 62
1
100
AcDbSpline
 70
8
 71
3
 72
8
 73
4
 74
0
 40
0
 40
0
 40
0
 40
0
 40
1
 40
1
 40
1
 40
1
 10
9.229657
 20
177.090262
 30
0.0
 10
9.229657
 20
176.688339
 30
0.0
 10
9.015234
 20
176.316946
 30
0.0
 10
8.667157
 20
176.115984
 30
0.0
  0
SPLINE
  5
1e2
100
AcDbEntity
  8
Layer_1
 62
1
100
AcDbSpline
 70
8
 71
3
 72
8
 73
4
 74
0
 40
0
 40
0
 40
0
 40
0
 40
1
 40
1
 40
1
 40
1
 10
8.667157
 20
176.115984
 30
0.0
 10
8.319081
 20
175.915022
 30
0.0
 10
7.890234
 20
175.915022
 30
0.0
 10
7.542157
 20
176.115984
 30
0.0
  0
SPLINE
  5
1e3
100
AcDbEntity
  8
Layer_1
 62
1
100
AcDbSpline
 70
8
 71
3
 72
8
 73
4
 74
0
 40
0
 40
0
 40
0
 40
0
 40
1
 40
1
 40
1
 40
1
 10
7.542157
 20
176.115984
 30
0.0
 10
7.194081
 20
176.316946
 30
0.0
 10
6.979657
 20
176.688339
 30
0.0
 10
6.979657
 20
177.090262
 30
0.0
  0
LWPOLYLINE
  5
1e4
100
AcDbEntity
  8
Layer_1
 62
1
100
AcDbPolyline
 90
2
 70
0
 10
66.262635
 20
174.952890
 30
0.0
 10
66.262635
 20
171.463140
 30
0.0
  0
SPLINE
  5
1e5
100
AcDbEntity
  8
Layer_1
 62
1
100
AcDbSpline
 70
8
 71
3
 72
8
 73
4
 74
0
 40
0
 40
0
 40
0
 40
0
 40
1
 40
1
 40
1
 40
1
 10
78.281730
 20
178.454415
 30
0.0
 10
78.280690
 20
178.857029
 30
0.0
 10
78.494886
 20
179.229506
 30
0.0
 10
78.843388
 20
179.431114
 30
0.0
  0
SPLINE
  5
1e6
100
AcDbEntity
  8
Layer_1
 62
1
100
AcDbSpline
 70
8
 71
3
 72
8
 73
4
 74
0
 40
0
 40
0
 40
0
 40
0
 40
1
 40
1
 40
1
 40
1
 10
78.843388
 20
179.431114
 30
0.0
 10
79.191890
 20
179.632722
 30
0.0
 10
79.621563
 20
179.632722
 30
0.0
 10
79.970065
 20
179.431114
 30
0.0
  0
SPLINE
  5
1e7
100
AcDbEntity
  8
Layer_1
 62
1
100
AcDbSpline
 70
8
 71
3
 72
8
 73
4
 74
0
 40
0
 40
0
 40
0
 40
0
 40
1
 40
1
 40
1
 40
1
 10
79.970065
 20
179.431114
 30
0.0
 10
80.318567
 20
179.229506
 30
0.0
 10
80.532762
 20
178.857029
 30
0.0
 10
80.531722
 20
178.454415
 30
0.0
  0
SPLINE
  5
1e8
100
AcDbEntity
  8
Layer_1
 62
1
100
AcDbSpline
 70
8
 71
3
 72
8
 73
4
 74
0
 40
0
 40
0
 40
0
 40
0
 40
1
 40
1
 40
1
 40
1
 10
80.531722
 20
178.454415
 30
0.0
 10
80.532762
 20
178.051801
 30
0.0
 10
80.318567
 20
177.679324
 30
0.0
 10
79.970065
 20
177.477716
 30
0.0
  0
SPLINE
  5
1e9
100
AcDbEntity
  8
Layer_1
 62
1
100
AcDbSpline
 70
8
 71
3
 72
8
 73
4
 74
0
 40
0
 40
0
 40
0
 40
0
 40
1
 40
1
 40
1
 40
1
 10
79.970065
 20
177.477716
 30
0.0
 10
79.621563
 20
177.276108
 30
0.0
 10
79.191890
 20
177.276108
 30
0.0
 10
78.843388
 20
177.477716
 30
0.0
  0
SPLINE
  5
1ea
100
AcDbEntity
  8
Layer_1
 62
1
100
AcDbSpline
 70
8
 71
3
 72
8
 73
4
 74
0
 40
0
 40
0
 40
0
 40
0
 40
1
 40
1
 40
1
 40
1
 10
78.843388
 20
177.477716
 30
0.0
 10
78.494886
 20
177.679324
 30
0.0
 10
78.280690
 20
178.051801
 30
0.0
 10
78.281730
 20
178.454415
 30
0.0
  0
LWPOLYLINE
  5
1eb
100
AcDbEntity
  8
Layer_1
 62
1
100
AcDbPolyline
 90
1
 70
1
 10
6.979657
 20
177.090262
 30
0.0
  0
SPLINE
  5
1ec
100
AcDbEntity
  8
Layer_1
 62
1
100
AcDbSpline
 70
8
 71
3
 72
8
 73
4
 74
0
 40
0
 40
0
 40
0
 40
0
 40
1
 40
1
 40
1
 40
1
 10
118.394182
 20
177.090262
 30
0.0
 10
118.394182
 20
177.492186
 30
0.0
 10
118.608606
 20
177.863579
 30
0.0
 10
118.956682
 20
178.064541
 30
0.0
  0
SPLINE
  5
1ed
100
AcDbEntity
  8
Layer_1
 62
1
100
AcDbSpline
 70
8
 71
3
 72
8
 73
4
 74
0
 40
0
 40
0
 40
0
 40
0
 40
1
 40
1
 40
1
 40
1
 10
118.956682
 20
178.064541
 30
0.0
 10
119.304759
 20
178.265503
 30
0.0
 10
119.733606
 20
178.265503
 30
0.0
 10
120.081682
 20
178.064541
 30
0.0
  0
SPLINE
  5
1ee
100
AcDbEntity
  8
Layer_1
 62
1
100
AcDbSpline
 70
8
 71
3
 72
8
 73
4
 74
0
 40
0
 40
0
 40
0
 40
0
 40
1
 40
1
 40
1
 40
1
 10
120.081682
 20
178.064541
 30
0.0
 10
120.429759
 20
177.863579
 30
0.0
 10
120.644182
 20
177.492186
 30
0.0
 10
120.644182
 20
177.090262
 30
0.0
  0
SPLINE
  5
1ef
100
AcDbEntity
  8
Layer_1
 62
1
100
AcDbSpline
 70
8
 71
3
 72
8
 73
4
 74
0
 40
0
 40
0
 40
0
 40
0
 40
1
 40
1
 40
1
 40
1
 10
120.644182
 20
177.090262
 30
0.0
 10
120.644183
 20
176.688339
 30
0.0
 10
120.429759
 20
176.316946
 30
0.0
 10
120.081683
 20
176.115984
 30
0.0
  0
SPLINE
  5
1f0
100
AcDbEntity
  8
Layer_1
 62
1
100
AcDbSpline
 70
8
 71
3
 72
8
 73
4
 74
0
 40
0
 40
0
 40
0
 40
0
 40
1
 40
1
 40
1
 40
1
 10
120.081683
 20
176.115984
 30
0.0
 10
119.733606
 20
175.915022
 30
0.0
 10
119.304759
 20
175.915022
 30
0.0
 10
118.956682
 20
176.115984
 30
0.0
  0
SPLINE
  5
1f1
100
AcDbEntity
  8
Layer_1
 62
1
100
AcDbSpline
 70
8
 71
3
 72
8
 73
4
 74
0
 40
0
 40
0
 40
0
 40
0
 40
1
 40
1
 40
1
 40
1
 10
118.956682
 20
176.115984
 30
0.0
 10
118.608606
 20
176.316946
 30
0.0
 10
118.394182
 20
176.688339
 30
0.0
 10
118.394182
 20
177.090262
 30
0.0
  0
LWPOLYLINE
  5
1f2
100
AcDbEntity
  8
Layer_1
 62
1
100
AcDbPolyline
 90
1
 70
1
 10
78.281730
 20
178.454415
 30
0.0
  0
SPLINE
  5
1f3
100
AcDbEntity
  8
Layer_1
 62
1
100
AcDbSpline
 70
8
 71
3
 72
8
 73
4
 74
0
 40
0
 40
0
 40
0
 40
0
 40
1
 40
1
 40
1
 40
1
 10
3.406755
 20
176.538172
 30
0.0
 10
3.406759
 20
179.437665
 30
0.0
 10
5.757263
 20
181.788165
 30
0.0
 10
8.656755
 20
181.788165
 30
0.0
  0
SPLINE
  5
1f4
100
AcDbEntity
  8
Layer_1
 62
1
100
AcDbSpline
 70
8
 71
3
 72
8
 73
4
 74
0
 40
0
 40
0
 40
0
 40
0
 40
1
 40
1
 40
1
 40
1
 10
118.971847
 20
181.788165
 30
0.0
 10
121.871340
 20
181.788165
 30
0.0
 10
124.221843
 20
179.437665
 30
0.0
 10
124.221847
 20
176.538172
 30
0.0
  0
LWPOLYLINE
  5
1f5
100
AcDbEntity
  8
Layer_1
 62
1
100
AcDbPolyline
 90
1
 70
1
 10
118.394182
 20
177.090262
 30
0.0
  0
LWPOLYLINE
  5
1f6
100
AcDbEntity
  8
Layer_1
 62
1
100
AcDbPolyline
 90
2
 70
0
 10
64.168665
 20
177.953475
 30
0.0
 10
64.168665
 20
174.952890
 30
0.0
  0
LWPOLYLINE
  5
1f7
100
AcDbEntity
  8
Layer_1
 62
1
100
AcDbPolyline
 90
2
 70
0
 10
75.262635
 20
161.827890
 30
0.0
 10
75.262635
 20
171.463140
 30
0.0
  0
LWPOLYLINE
  5
1f8
100
AcDbEntity
  8
Layer_1
 62
1
100
AcDbPolyline
 90
2
 70
0
 10
45.098295
 20
160.327897
 30
0.0
 10
20.512635
 20
160.327897
 30
0.0
  0
LWPOLYLINE
  5
1f9
100
AcDbEntity
  8
Layer_1
 62
1
100
AcDbPolyline
 90
2
 70
0
 10
13.765717
 20
160.327897
 30
0.0
 10
13.765717
 20
174.952890
 30
0.0
  0
LWPOLYLINE
  5
1fa
100
AcDbEntity
  8
Layer_1
 62
1
100
AcDbPolyline
 90
2
 70
0
 10
45.098295
 20
161.827890
 30
0.0
 10
75.262635
 20
161.827890
 30
0.0
  0
LWPOLYLINE
  5
1fb
100
AcDbEntity
  8
Layer_1
 62
1
100
AcDbPolyline
 90
2
 70
0
 10
45.098295
 20
161.827890
 30
0.0
 10
45.098295
 20
160.327897
 30
0.0
  0
LWPOLYLINE
  5
1fc
100
AcDbEntity
  8
Layer_1
 62
1
100
AcDbPolyline
 90
2
 70
0
 10
20.512635
 20
160.327897
 30
0.0
 10
13.765717
 20
160.327897
 30
0.0
  0
LWPOLYLINE
  5
1fd
100
AcDbEntity
  8
Layer_1
 62
1
100
AcDbPolyline
 90
3
 70
0
 10
97.387635
 20
176.827890
 30
0.0
 10
81.204862
 20
176.827890
 30
0.0
 10
81.204862
 20
166.702890
 30
0.0
  0
LWPOLYLINE
  5
1fe
100
AcDbEntity
  8
Layer_1
 62
1
100
AcDbPolyline
 90
2
 70
0
 10
94.934520
 20
166.702890
 30
0.0
 10
81.204862
 20
166.702890
 30
0.0
  0
LWPOLYLINE
  5
1ff
100
AcDbEntity
  8
Layer_1
 62
1
100
AcDbPolyline
 90
6
 70
0
 10
104.512628
 20
166.702890
 30
0.0
 10
104.512628
 20
159.416490
 30
0.0
 10
120.994582
 20
159.416490
 30
0.0
 10
120.994582
 20
173.448135
 30
0.0
 10
115.983292
 20
177.557408
 30
0.0
 10
104.512627
 20
174.170783
 30
0.0
  0
ENDSEC
  0
SECTION
  2
OBJECTS
  0
DICTIONARY
  5
C
330
0
100
AcDbDictionary
  3
ACAD_GROUP
350
D
  3
ACAD_MLINESTYLE
350
17
  0
DICTIONARY
  5
D
330
C
100
AcDbDictionary
  0
DICTIONARY
  5
1A
330
C
100
AcDbDictionary
  0
DICTIONARY
  5
17
330
C
100
AcDbDictionary
  3
STANDARD
350
18
  0
DICTIONARY
  5
19
330
C
100
AcDbDictionary
  0
ENDSEC
  0
EOF
