<?xml version="1.0" encoding="UTF-8" standalone="no"?>
<!-- Generated by SVGo -->

<svg
   xmlns:dc="http://purl.org/dc/elements/1.1/"
   xmlns:cc="http://creativecommons.org/ns#"
   xmlns:rdf="http://www.w3.org/1999/02/22-rdf-syntax-ns#"
   xmlns:svg="http://www.w3.org/2000/svg"
   xmlns="http://www.w3.org/2000/svg"
   xmlns:sodipodi="http://sodipodi.sourceforge.net/DTD/sodipodi-0.dtd"
   xmlns:inkscape="http://www.inkscape.org/namespaces/inkscape"
   width="341.851mm"
   height="142.301mm"
   viewBox="0.000 0.000 341.851 142.301"
   version="1.1"
   id="svg14"
   sodipodi:docname="bottomlayer.svg"
   inkscape:version="0.92.1 r15371">
  <metadata
     id="metadata20">
    <rdf:RDF>
      <cc:Work
         rdf:about="">
        <dc:format>image/svg+xml</dc:format>
        <dc:type
           rdf:resource="http://purl.org/dc/dcmitype/StillImage" />
        <dc:title />
      </cc:Work>
    </rdf:RDF>
  </metadata>
  <defs
     id="defs18" />
  <sodipodi:namedview
     pagecolor="#ffffff"
     bordercolor="#666666"
     borderopacity="1"
     objecttolerance="10"
     gridtolerance="10"
     guidetolerance="10"
     inkscape:pageopacity="0"
     inkscape:pageshadow="2"
     inkscape:window-width="1920"
     inkscape:window-height="1057"
     id="namedview16"
     showgrid="false"
     inkscape:document-units="mm"
     inkscape:pagecheckerboard="true"
     inkscape:zoom="0.94115074"
     inkscape:cx="522.76337"
     inkscape:cy="200.79606"
     inkscape:window-x="-8"
     inkscape:window-y="-8"
     inkscape:window-maximized="1"
     inkscape:current-layer="layer2" />
  <g
     inkscape:groupmode="layer"
     id="layer1"
     inkscape:label="old"
     style="display:none">
    <polygon
       points="331.851,137.301 311.851,137.301 306.851,132.3 35,132.3 30,137.301 10,137.301 5,132.3 5,10 10,5 30,5 35,10 306.851,10 311.851,5 331.851,5 336.851,10 336.851,132.3 "
       style="fill:none;stroke:#000000;stroke-width:0.05mm"
       id="polygon2" />
    <polygon
       points="19.216,132.522 19.118,132.587 19.025,132.66 18.939,132.74 18.859,132.826 18.786,132.919 18.721,133.017 18.663,133.12 18.614,133.226 18.573,133.336 18.541,133.449 18.518,133.566 18.504,133.683 18.499,133.8 18.504,133.918 18.518,134.035 18.541,134.151 18.573,134.264 18.614,134.375 18.663,134.481 18.721,134.584 18.786,134.681 18.859,134.775 18.939,134.86 19.025,134.941 19.118,135.014 19.216,135.079 19.319,135.137 19.425,135.186 19.536,135.227 19.649,135.258 19.765,135.282 19.882,135.295 20,135.3 20.117,135.295 20.234,135.282 20.35,135.258 20.463,135.227 20.574,135.186 20.68,135.137 20.783,135.079 20.881,135.014 20.974,134.941 21.06,134.86 21.14,134.775 21.213,134.681 21.278,134.584 21.336,134.481 21.385,134.375 21.426,134.264 21.458,134.151 21.481,134.035 21.495,133.918 21.5,133.8 21.495,133.683 21.481,133.566 21.458,133.449 21.426,133.336 21.385,133.226 21.336,133.12 21.278,133.017 21.213,132.919 21.14,132.826 21.06,132.74 20.974,132.66 20.881,132.587 20.783,132.522 20.68,132.464 20.574,132.415 20.463,132.374 20.35,132.342 20.234,132.319 20.117,132.305 20,132.3 19.882,132.305 19.765,132.319 19.649,132.342 19.536,132.374 19.425,132.415 19.319,132.464 "
       style="fill:none;stroke:#000000;stroke-width:0.05mm"
       id="polygon4" />
    <polygon
       points="321.067,132.522 320.969,132.587 320.876,132.66 320.79,132.74 320.71,132.826 320.637,132.919 320.572,133.017 320.514,133.12 320.465,133.226 320.424,133.336 320.392,133.449 320.369,133.566 320.355,133.683 320.351,133.8 320.355,133.918 320.369,134.035 320.392,134.151 320.424,134.264 320.465,134.375 320.514,134.481 320.572,134.584 320.637,134.681 320.71,134.775 320.79,134.86 320.876,134.941 320.969,135.014 321.067,135.079 321.17,135.137 321.276,135.186 321.387,135.227 321.5,135.258 321.616,135.282 321.733,135.295 321.851,135.3 321.968,135.295 322.085,135.282 322.201,135.258 322.314,135.227 322.425,135.186 322.531,135.137 322.634,135.079 322.732,135.014 322.825,134.941 322.911,134.86 322.991,134.775 323.064,134.681 323.129,134.584 323.187,134.481 323.236,134.375 323.277,134.264 323.309,134.151 323.332,134.035 323.346,133.918 323.351,133.8 323.346,133.683 323.332,133.566 323.309,133.449 323.277,133.336 323.236,133.226 323.187,133.12 323.129,133.017 323.064,132.919 322.991,132.826 322.911,132.74 322.825,132.66 322.732,132.587 322.634,132.522 322.531,132.464 322.425,132.415 322.314,132.374 322.201,132.342 322.085,132.319 321.968,132.305 321.851,132.3 321.733,132.305 321.616,132.319 321.5,132.342 321.387,132.374 321.276,132.415 321.17,132.464 "
       style="fill:none;stroke:#000000;stroke-width:0.05mm"
       id="polygon6" />
    <polygon
       points="19.216,7.221 19.118,7.286 19.025,7.359 18.939,7.439 18.859,7.525 18.786,7.618 18.721,7.716 18.663,7.819 18.614,7.925 18.573,8.036 18.541,8.149 18.518,8.265 18.504,8.382 18.499,8.5 18.504,8.617 18.518,8.734 18.541,8.85 18.573,8.963 18.614,9.074 18.663,9.18 18.721,9.283 18.786,9.381 18.859,9.474 18.939,9.56 19.025,9.64 19.118,9.713 19.216,9.778 19.319,9.836 19.425,9.885 19.536,9.926 19.649,9.958 19.765,9.981 19.882,9.995 20,10 20.117,9.995 20.234,9.981 20.35,9.958 20.463,9.926 20.574,9.885 20.68,9.836 20.783,9.778 20.881,9.713 20.974,9.64 21.06,9.56 21.14,9.474 21.213,9.381 21.278,9.283 21.336,9.18 21.385,9.074 21.426,8.963 21.458,8.85 21.481,8.734 21.495,8.617 21.5,8.5 21.495,8.382 21.481,8.265 21.458,8.149 21.426,8.036 21.385,7.925 21.336,7.819 21.278,7.716 21.213,7.618 21.14,7.525 21.06,7.439 20.974,7.359 20.881,7.286 20.783,7.221 20.68,7.163 20.574,7.114 20.463,7.073 20.35,7.041 20.234,7.017 20.117,7.004 20,7 19.882,7.004 19.765,7.017 19.649,7.041 19.536,7.073 19.425,7.114 19.319,7.163 "
       style="fill:none;stroke:#000000;stroke-width:0.05mm"
       id="polygon10" />
    <polygon
       points="321.067,7.221 320.969,7.286 320.876,7.359 320.79,7.439 320.71,7.525 320.637,7.618 320.572,7.716 320.514,7.819 320.465,7.925 320.424,8.036 320.392,8.149 320.369,8.265 320.355,8.382 320.351,8.5 320.355,8.617 320.369,8.734 320.392,8.85 320.424,8.963 320.465,9.074 320.514,9.18 320.572,9.283 320.637,9.381 320.71,9.474 320.79,9.56 320.876,9.64 320.969,9.713 321.067,9.778 321.17,9.836 321.276,9.885 321.387,9.926 321.5,9.958 321.616,9.981 321.733,9.995 321.851,10 321.968,9.995 322.085,9.981 322.201,9.958 322.314,9.926 322.425,9.885 322.531,9.836 322.634,9.778 322.732,9.713 322.825,9.64 322.911,9.56 322.991,9.474 323.064,9.381 323.129,9.283 323.187,9.18 323.236,9.074 323.277,8.963 323.309,8.85 323.332,8.734 323.346,8.617 323.351,8.5 323.346,8.382 323.332,8.265 323.309,8.149 323.277,8.036 323.236,7.925 323.187,7.819 323.129,7.716 323.064,7.618 322.991,7.525 322.911,7.439 322.825,7.359 322.732,7.286 322.634,7.221 322.531,7.163 322.425,7.114 322.314,7.073 322.201,7.041 322.085,7.017 321.968,7.004 321.851,7 321.733,7.004 321.616,7.017 321.5,7.041 321.387,7.073 321.276,7.114 321.17,7.163 "
       style="fill:none;stroke:#000000;stroke-width:0.05mm"
       id="polygon12" />
  </g>
  <g
     inkscape:groupmode="layer"
     id="layer2"
     inkscape:label="paste">
    <g
       id="g4631">
      <polygon
         transform="translate(0.81225928,-0.00955194)"
         id="polygon4-1"
         style="fill:none;stroke:#ff0000;stroke-width:0.189;stroke-miterlimit:4;stroke-dasharray:none;stroke-opacity:1"
         points="21.336,133.12 21.278,133.017 21.213,132.919 21.14,132.826 21.06,132.74 20.974,132.66 20.881,132.587 20.783,132.522 20.68,132.464 20.574,132.415 20.463,132.374 20.35,132.342 20.234,132.319 20.117,132.305 20,132.3 19.882,132.305 19.765,132.319 19.649,132.342 19.536,132.374 19.425,132.415 19.319,132.464 19.216,132.522 19.118,132.587 19.025,132.66 18.939,132.74 18.859,132.826 18.786,132.919 18.721,133.017 18.663,133.12 18.614,133.226 18.573,133.336 18.541,133.449 18.518,133.566 18.504,133.683 18.499,133.8 18.504,133.918 18.518,134.035 18.541,134.151 18.573,134.264 18.614,134.375 18.663,134.481 18.721,134.584 18.786,134.681 18.859,134.775 18.939,134.86 19.025,134.941 19.118,135.014 19.216,135.079 19.319,135.137 19.425,135.186 19.536,135.227 19.649,135.258 19.765,135.282 19.882,135.295 20,135.3 20.117,135.295 20.234,135.282 20.35,135.258 20.463,135.227 20.574,135.186 20.68,135.137 20.783,135.079 20.881,135.014 20.974,134.941 21.06,134.86 21.14,134.775 21.213,134.681 21.278,134.584 21.336,134.481 21.385,134.375 21.426,134.264 21.458,134.151 21.481,134.035 21.495,133.918 21.5,133.8 21.495,133.683 21.481,133.566 21.458,133.449 21.426,133.336 21.385,133.226 " />
      <polygon
         transform="translate(0.81225928,-0.00955194)"
         id="polygon6-5"
         style="fill:none;stroke:#ff0000;stroke-width:0.189;stroke-miterlimit:4;stroke-dasharray:none;stroke-opacity:1"
         points="323.187,133.12 323.129,133.017 323.064,132.919 322.991,132.826 322.911,132.74 322.825,132.66 322.732,132.587 322.634,132.522 322.531,132.464 322.425,132.415 322.314,132.374 322.201,132.342 322.085,132.319 321.968,132.305 321.851,132.3 321.733,132.305 321.616,132.319 321.5,132.342 321.387,132.374 321.276,132.415 321.17,132.464 321.067,132.522 320.969,132.587 320.876,132.66 320.79,132.74 320.71,132.826 320.637,132.919 320.572,133.017 320.514,133.12 320.465,133.226 320.424,133.336 320.392,133.449 320.369,133.566 320.355,133.683 320.351,133.8 320.355,133.918 320.369,134.035 320.392,134.151 320.424,134.264 320.465,134.375 320.514,134.481 320.572,134.584 320.637,134.681 320.71,134.775 320.79,134.86 320.876,134.941 320.969,135.014 321.067,135.079 321.17,135.137 321.276,135.186 321.387,135.227 321.5,135.258 321.616,135.282 321.733,135.295 321.851,135.3 321.968,135.295 322.085,135.282 322.201,135.258 322.314,135.227 322.425,135.186 322.531,135.137 322.634,135.079 322.732,135.014 322.825,134.941 322.911,134.86 322.991,134.775 323.064,134.681 323.129,134.584 323.187,134.481 323.236,134.375 323.277,134.264 323.309,134.151 323.332,134.035 323.346,133.918 323.351,133.8 323.346,133.683 323.332,133.566 323.309,133.449 323.277,133.336 323.236,133.226 " />
      <polygon
         transform="translate(0.81225928,-0.00955194)"
         id="polygon190"
         style="fill:none;stroke:#ff0000;stroke-width:0.189;stroke-miterlimit:4;stroke-dasharray:none;stroke-opacity:1"
         points="21.336,7.819 21.278,7.716 21.213,7.618 21.14,7.525 21.06,7.439 20.974,7.359 20.881,7.286 20.783,7.221 20.68,7.163 20.574,7.114 20.463,7.073 20.35,7.041 20.234,7.017 20.117,7.004 20,7 19.882,7.004 19.765,7.017 19.649,7.041 19.536,7.073 19.425,7.114 19.319,7.163 19.216,7.221 19.118,7.286 19.025,7.359 18.939,7.439 18.859,7.525 18.786,7.618 18.721,7.716 18.663,7.819 18.614,7.925 18.573,8.036 18.541,8.149 18.518,8.265 18.504,8.382 18.499,8.5 18.504,8.617 18.518,8.734 18.541,8.85 18.573,8.963 18.614,9.074 18.663,9.18 18.721,9.283 18.786,9.381 18.859,9.474 18.939,9.56 19.025,9.64 19.118,9.713 19.216,9.778 19.319,9.836 19.425,9.885 19.536,9.926 19.649,9.958 19.765,9.981 19.882,9.995 20,10 20.117,9.995 20.234,9.981 20.35,9.958 20.463,9.926 20.574,9.885 20.68,9.836 20.783,9.778 20.881,9.713 20.974,9.64 21.06,9.56 21.14,9.474 21.213,9.381 21.278,9.283 21.336,9.18 21.385,9.074 21.426,8.963 21.458,8.85 21.481,8.734 21.495,8.617 21.5,8.5 21.495,8.382 21.481,8.265 21.458,8.149 21.426,8.036 21.385,7.925 " />
      <polygon
         transform="translate(0.81225928,-0.00955194)"
         id="polygon192"
         style="fill:none;stroke:#ff0000;stroke-width:0.189;stroke-miterlimit:4;stroke-dasharray:none;stroke-opacity:1"
         points="323.187,7.819 323.129,7.716 323.064,7.618 322.991,7.525 322.911,7.439 322.825,7.359 322.732,7.286 322.634,7.221 322.531,7.163 322.425,7.114 322.314,7.073 322.201,7.041 322.085,7.017 321.968,7.004 321.851,7 321.733,7.004 321.616,7.017 321.5,7.041 321.387,7.073 321.276,7.114 321.17,7.163 321.067,7.221 320.969,7.286 320.876,7.359 320.79,7.439 320.71,7.525 320.637,7.618 320.572,7.716 320.514,7.819 320.465,7.925 320.424,8.036 320.392,8.149 320.369,8.265 320.355,8.382 320.351,8.5 320.355,8.617 320.369,8.734 320.392,8.85 320.424,8.963 320.465,9.074 320.514,9.18 320.572,9.283 320.637,9.381 320.71,9.474 320.79,9.56 320.876,9.64 320.969,9.713 321.067,9.778 321.17,9.836 321.276,9.885 321.387,9.926 321.5,9.958 321.616,9.981 321.733,9.995 321.851,10 321.968,9.995 322.085,9.981 322.201,9.958 322.314,9.926 322.425,9.885 322.531,9.836 322.634,9.778 322.732,9.713 322.825,9.64 322.911,9.56 322.991,9.474 323.064,9.381 323.129,9.283 323.187,9.18 323.236,9.074 323.277,8.963 323.309,8.85 323.332,8.734 323.346,8.617 323.351,8.5 323.346,8.382 323.332,8.265 323.309,8.149 323.277,8.036 323.236,7.925 " />
      <path
         sodipodi:nodetypes="ccccccccccccccccccccccccc"
         inkscape:connector-curvature="0"
         id="polygon2-9"
         d="m 208.706,9.9904453 h 98.95722 l 5.00002,-4.9999986 h 19.99998 l 5.00002,4.9999986 V 132.29046 l -5.00002,5.001 h -19.99998 l -5.00002,-5.001 H 204.0674 M 132.23091,9.9904453 H 125.3517 35.812254 L 30.812257,4.9904467 H 10.81226 L 5.8122601,9.9904453 V 132.29046 l 4.9999999,5.001 h 19.999997 l 4.999997,-5.001 h 81.386766 21.08455 3.54923 l 4.94282,4.95069 h 19.99998"
         style="fill:none;stroke:#ff0000;stroke-width:0.189;stroke-linecap:round;stroke-miterlimit:4;stroke-dasharray:none;stroke-opacity:1" />
      <polygon
         id="polygon192-2"
         style="fill:none;stroke:#ff0000;stroke-width:0.189;stroke-miterlimit:4;stroke-dasharray:none;stroke-opacity:1"
         points="322.991,9.474 323.064,9.381 323.129,9.283 323.187,9.18 323.236,9.074 323.277,8.963 323.309,8.85 323.332,8.734 323.346,8.617 323.351,8.5 323.346,8.382 323.332,8.265 323.309,8.149 323.277,8.036 323.236,7.925 323.187,7.819 323.129,7.716 323.064,7.618 322.991,7.525 322.911,7.439 322.825,7.359 322.732,7.286 322.634,7.221 322.531,7.163 322.425,7.114 322.314,7.073 322.201,7.041 322.085,7.017 321.968,7.004 321.851,7 321.733,7.004 321.616,7.017 321.5,7.041 321.387,7.073 321.276,7.114 321.17,7.163 321.067,7.221 320.969,7.286 320.876,7.359 320.79,7.439 320.71,7.525 320.637,7.618 320.572,7.716 320.514,7.819 320.465,7.925 320.424,8.036 320.392,8.149 320.369,8.265 320.355,8.382 320.351,8.5 320.355,8.617 320.369,8.734 320.392,8.85 320.424,8.963 320.465,9.074 320.514,9.18 320.572,9.283 320.637,9.381 320.71,9.474 320.79,9.56 320.876,9.64 320.969,9.713 321.067,9.778 321.17,9.836 321.276,9.885 321.387,9.926 321.5,9.958 321.616,9.981 321.733,9.995 321.851,10 321.968,9.995 322.085,9.981 322.201,9.958 322.314,9.926 322.425,9.885 322.531,9.836 322.634,9.778 322.732,9.713 322.825,9.64 322.911,9.56 "
         transform="translate(-144.54921,-0.00955494)" />
      <path
         sodipodi:nodetypes="ccc"
         inkscape:connector-curvature="0"
         id="path4928"
         d="m 167.30177,4.9904467 h 19.99998 l 4.99998,4.9999986"
         style="fill:none;stroke:#ff0000;stroke-width:0.189;stroke-linecap:round;stroke-linejoin:miter;stroke-miterlimit:4;stroke-dasharray:none;stroke-opacity:1" />
      <polygon
         id="polygon192-2-2"
         style="fill:none;stroke:#ff0000;stroke-width:0.189;stroke-miterlimit:4;stroke-dasharray:none;stroke-opacity:1"
         points="322.085,9.981 322.201,9.958 322.314,9.926 322.425,9.885 322.531,9.836 322.634,9.778 322.732,9.713 322.825,9.64 322.911,9.56 322.991,9.474 323.064,9.381 323.129,9.283 323.187,9.18 323.236,9.074 323.277,8.963 323.309,8.85 323.332,8.734 323.346,8.617 323.351,8.5 323.346,8.382 323.332,8.265 323.309,8.149 323.277,8.036 323.236,7.925 323.187,7.819 323.129,7.716 323.064,7.618 322.991,7.525 322.911,7.439 322.825,7.359 322.732,7.286 322.634,7.221 322.531,7.163 322.425,7.114 322.314,7.073 322.201,7.041 322.085,7.017 321.968,7.004 321.851,7 321.733,7.004 321.616,7.017 321.5,7.041 321.387,7.073 321.276,7.114 321.17,7.163 321.067,7.221 320.969,7.286 320.876,7.359 320.79,7.439 320.71,7.525 320.637,7.618 320.572,7.716 320.514,7.819 320.465,7.925 320.424,8.036 320.392,8.149 320.369,8.265 320.355,8.382 320.351,8.5 320.355,8.617 320.369,8.734 320.392,8.85 320.424,8.963 320.465,9.074 320.514,9.18 320.572,9.283 320.637,9.381 320.71,9.474 320.79,9.56 320.876,9.64 320.969,9.713 321.067,9.778 321.17,9.836 321.276,9.885 321.387,9.926 321.5,9.958 321.616,9.981 321.733,9.995 321.851,10 321.968,9.995 "
         transform="translate(-174.62006,-0.00955494)" />
      <path
         sodipodi:nodetypes="ccc"
         inkscape:connector-curvature="0"
         id="path4928-7"
         d="m 132.23091,9.9904453 5.00002,-4.9999986 h 19.99998"
         style="fill:none;stroke:#ff0000;stroke-width:0.189;stroke-linecap:round;stroke-linejoin:miter;stroke-miterlimit:4;stroke-dasharray:none;stroke-opacity:1" />
      <polygon
         id="polygon192-2-8"
         style="fill:none;stroke:#ff0000;stroke-width:0.189;stroke-miterlimit:4;stroke-dasharray:none;stroke-opacity:1"
         points="320.637,9.381 320.71,9.474 320.79,9.56 320.876,9.64 320.969,9.713 321.067,9.778 321.17,9.836 321.276,9.885 321.387,9.926 321.5,9.958 321.616,9.981 321.733,9.995 321.851,10 321.968,9.995 322.085,9.981 322.201,9.958 322.314,9.926 322.425,9.885 322.531,9.836 322.634,9.778 322.732,9.713 322.825,9.64 322.911,9.56 322.991,9.474 323.064,9.381 323.129,9.283 323.187,9.18 323.236,9.074 323.277,8.963 323.309,8.85 323.332,8.734 323.346,8.617 323.351,8.5 323.346,8.382 323.332,8.265 323.309,8.149 323.277,8.036 323.236,7.925 323.187,7.819 323.129,7.716 323.064,7.618 322.991,7.525 322.911,7.439 322.825,7.359 322.732,7.286 322.634,7.221 322.531,7.163 322.425,7.114 322.314,7.073 322.201,7.041 322.085,7.017 321.968,7.004 321.851,7 321.733,7.004 321.616,7.017 321.5,7.041 321.387,7.073 321.276,7.114 321.17,7.163 321.067,7.221 320.969,7.286 320.876,7.359 320.79,7.439 320.71,7.525 320.637,7.618 320.572,7.716 320.514,7.819 320.465,7.925 320.424,8.036 320.392,8.149 320.369,8.265 320.355,8.382 320.351,8.5 320.355,8.617 320.369,8.734 320.392,8.85 320.424,8.963 320.465,9.074 320.514,9.18 320.572,9.283 "
         transform="matrix(1,0,0,-1,-165.07536,142.24116)" />
      <path
         sodipodi:nodetypes="cccc"
         inkscape:connector-curvature="0"
         id="path4928-3-4"
         d="m 199.4088,134.60793 -2.63321,2.63322 H 176.77561 166.7756"
         style="fill:none;stroke:#ff0000;stroke-width:0.189;stroke-linecap:butt;stroke-linejoin:miter;stroke-miterlimit:4;stroke-dasharray:none;stroke-opacity:1" />
      <path
         inkscape:connector-curvature="0"
         id="path5092"
         d="m 157.23091,4.9904467 h 10.07086"
         style="fill:none;stroke:#ff0000;stroke-width:0.189;stroke-linecap:butt;stroke-linejoin:miter;stroke-miterlimit:4;stroke-dasharray:none;stroke-opacity:1" />
      <g
         style="stroke:#ff0000;stroke-width:0.189;stroke-miterlimit:4;stroke-dasharray:none;stroke-opacity:1"
         id="g5128"
         transform="translate(0.81225928,-0.00955194)">
        <g
           id="g4893"
           style="stroke:#ff0000;stroke-width:0.189;stroke-miterlimit:4;stroke-dasharray:none;stroke-opacity:1">
          <path
             inkscape:connector-curvature="0"
             id="path4754"
             d="m 170.96336,109.18977 v 23.06092"
             style="fill:none;stroke:#ff0000;stroke-width:0.189;stroke-linecap:round;stroke-linejoin:miter;stroke-miterlimit:4;stroke-dasharray:none;stroke-opacity:1;paint-order:stroke fill markers" />
          <path
             inkscape:connector-curvature="0"
             id="path4773"
             d="m 170.96336,109.18977 h -4.82701 l -0.0127,-11.702269 v -3.789963"
             style="fill:none;stroke:#ff0000;stroke-width:0.189;stroke-linecap:round;stroke-linejoin:miter;stroke-miterlimit:4;stroke-dasharray:none;stroke-opacity:1;paint-order:stroke fill markers" />
          <g
             id="g4846"
             style="stroke:#ff0000;stroke-width:0.189;stroke-miterlimit:4;stroke-dasharray:none;stroke-opacity:1">
            <path
               style="fill:none;stroke:#ff0000;stroke-width:0.189;stroke-linecap:round;stroke-linejoin:miter;stroke-miterlimit:4;stroke-dasharray:none;stroke-opacity:1;paint-order:stroke fill markers"
               d="M 156.59863,73.675001 V 88.359659"
               id="path4777"
               inkscape:connector-curvature="0" />
            <path
               style="fill:none;stroke:#ff0000;stroke-width:0.189;stroke-linecap:round;stroke-linejoin:miter;stroke-miterlimit:4;stroke-dasharray:none;stroke-opacity:1;paint-order:stroke fill markers"
               d="m 156.59863,88.359659 v 1.862468"
               id="path4779"
               inkscape:connector-curvature="0" />
          </g>
          <path
             inkscape:connector-curvature="0"
             id="path4781"
             d="m 166.12365,93.697538 v -3.475411 h -9.52502"
             style="fill:none;stroke:#ff0000;stroke-width:0.189;stroke-linecap:round;stroke-linejoin:miter;stroke-miterlimit:4;stroke-dasharray:none;stroke-opacity:1;paint-order:stroke fill markers" />
          <path
             style="fill:none;stroke:#ff0000;stroke-width:0.189;stroke-linecap:butt;stroke-linejoin:miter;stroke-miterlimit:4;stroke-dasharray:none;stroke-opacity:1;paint-order:stroke fill markers"
             d="M 161.41516,42.808027 V 9.9087551"
             id="path4699"
             inkscape:connector-curvature="0" />
          <path
             style="fill:none;stroke:#ff0000;stroke-width:0.189;stroke-linecap:round;stroke-linejoin:miter;stroke-miterlimit:4;stroke-dasharray:none;stroke-opacity:1;paint-order:stroke fill markers"
             d="M 161.41516,51.881746 V 42.808027"
             id="path4699-5"
             inkscape:connector-curvature="0" />
          <g
             id="g4879"
             style="stroke:#ff0000;stroke-width:0.189;stroke-miterlimit:4;stroke-dasharray:none;stroke-opacity:1">
            <path
               style="fill:none;stroke:#ff0000;stroke-width:0.189;stroke-linecap:round;stroke-linejoin:miter;stroke-miterlimit:4;stroke-dasharray:none;stroke-opacity:1;paint-order:stroke fill markers"
               d="m 161.41516,51.881746 v 0.24761"
               id="path4790"
               inkscape:connector-curvature="0" />
            <path
               style="fill:none;stroke:#ff0000;stroke-width:0.189;stroke-linecap:round;stroke-linejoin:miter;stroke-miterlimit:4;stroke-dasharray:none;stroke-opacity:1;paint-order:stroke fill markers"
               d="m 161.41516,52.129356 h -9.59148 v 18.061601"
               id="path4796"
               inkscape:connector-curvature="0" />
          </g>
          <path
             inkscape:connector-curvature="0"
             id="path4798"
             d="m 156.59863,73.675001 v -2.490473 h -4.78101 l 0.006,-0.993571"
             style="fill:none;stroke:#ff0000;stroke-width:0.189;stroke-linecap:butt;stroke-linejoin:miter;stroke-miterlimit:4;stroke-dasharray:none;stroke-opacity:1;paint-order:stroke fill markers" />
        </g>
        <path
           style="fill:none;stroke:#ff0000;stroke-width:0.189;stroke-linecap:butt;stroke-linejoin:miter;stroke-miterlimit:4;stroke-dasharray:none;stroke-opacity:1"
           d="M 161.41516,9.908755 V 4.9887735"
           id="path5094"
           inkscape:connector-curvature="0" />
        <path
           style="fill:none;stroke:#ff0000;stroke-width:0.189;stroke-linecap:butt;stroke-linejoin:miter;stroke-miterlimit:4;stroke-dasharray:none;stroke-opacity:1"
           d="m 170.96336,132.25069 v 4.98123"
           id="path5096"
           inkscape:connector-curvature="0" />
      </g>
      <path
         inkscape:connector-curvature="0"
         id="path4828"
         d="M 192.30173,9.9904453 H 208.706"
         style="fill:none;stroke:#ff0000;stroke-width:0.189;stroke-linecap:butt;stroke-linejoin:miter;stroke-miterlimit:4;stroke-dasharray:none;stroke-opacity:1" />
      <path
         inkscape:connector-curvature="0"
         id="path5076"
         d="m 196.77559,137.24115 4.98139,-4.98139 2.31042,0.0307"
         style="fill:none;stroke:#ff0000;stroke-width:0.189;stroke-linecap:butt;stroke-linejoin:miter;stroke-miterlimit:4;stroke-dasharray:none;stroke-opacity:1" />
      <polygon
         id="polygon192-2-8-7"
         style="fill:none;stroke:#ff0000;stroke-width:0.189;stroke-miterlimit:4;stroke-dasharray:none;stroke-opacity:1"
         points="323.236,7.925 323.187,7.819 323.129,7.716 323.064,7.618 322.991,7.525 322.911,7.439 322.825,7.359 322.732,7.286 322.634,7.221 322.531,7.163 322.425,7.114 322.314,7.073 322.201,7.041 322.085,7.017 321.968,7.004 321.851,7 321.733,7.004 321.616,7.017 321.5,7.041 321.387,7.073 321.276,7.114 321.17,7.163 321.067,7.221 320.969,7.286 320.876,7.359 320.79,7.439 320.71,7.525 320.637,7.618 320.572,7.716 320.514,7.819 320.465,7.925 320.424,8.036 320.392,8.149 320.369,8.265 320.355,8.382 320.351,8.5 320.355,8.617 320.369,8.734 320.392,8.85 320.424,8.963 320.465,9.074 320.514,9.18 320.572,9.283 320.637,9.381 320.71,9.474 320.79,9.56 320.876,9.64 320.969,9.713 321.067,9.778 321.17,9.836 321.276,9.885 321.387,9.926 321.5,9.958 321.616,9.981 321.733,9.995 321.851,10 321.968,9.995 322.085,9.981 322.201,9.958 322.314,9.926 322.425,9.885 322.531,9.836 322.634,9.778 322.732,9.713 322.825,9.64 322.911,9.56 322.991,9.474 323.064,9.381 323.129,9.283 323.187,9.18 323.236,9.074 323.277,8.963 323.309,8.85 323.332,8.734 323.346,8.617 323.351,8.5 323.346,8.382 323.332,8.265 323.309,8.149 323.277,8.036 "
         transform="matrix(1,0,0,-1,-135.07538,142.24116)" />
    </g>
  </g>
</svg>
