<?xml version="1.0"?>
<!-- Generated by SVGo -->
<svg width="367.190mm" height="124.302mm"
     viewBox="0.000 0.000 367.190 124.302"
     xmlns="http://www.w3.org/2000/svg" 
     xmlns:xlink="http://www.w3.org/1999/xlink">
<polygon points="362.189,119.301 5.001,119.301 5.001,5.001 362.189,5.001" style="fill:none;stroke-width:0.050000mm;stroke:black"/>
<polygon points="17.051,102.775 17.051,107.476 15.526,107.476 15.526,104.245 13.801,104.245 13.801,103.325 10.501,103.325 10.501,104.245 8.776,104.245 8.776,107.476 7.950,107.476 7.950,110.275 8.776,110.275 8.776,116.545 10.501,116.545 10.501,117.525 13.801,117.525 13.801,116.545 15.526,116.545 15.526,112.075 17.051,112.075 17.051,116.775 31.051,116.775 31.051,112.075 32.576,112.075 32.576,116.545 34.301,116.545 34.301,117.525 37.601,117.525 37.601,116.545 39.326,116.545 39.326,110.275 40.151,110.275 40.151,107.476 39.326,107.476 39.326,104.245 37.601,104.245 37.601,103.325 34.301,103.325 34.301,104.245 32.576,104.245 32.576,107.476 31.051,107.476 31.051,102.775" style="fill:none;stroke-width:0.050000mm;stroke:black"/>
<polygon points="133.732,102.775 133.732,107.476 132.207,107.476 132.207,104.245 130.482,104.245 130.482,103.325 127.182,103.325 127.182,104.245 125.457,104.245 125.457,107.476 124.632,107.476 124.632,110.275 125.457,110.275 125.457,116.545 127.182,116.545 127.182,117.525 130.482,117.525 130.482,116.545 132.207,116.545 132.207,112.075 133.732,112.075 133.732,116.775 147.732,116.775 147.732,112.075 149.257,112.075 149.257,116.545 150.982,116.545 150.982,117.525 154.282,117.525 154.282,116.545 156.007,116.545 156.007,110.275 156.832,110.275 156.832,107.476 156.007,107.476 156.007,104.245 154.282,104.245 154.282,103.325 150.982,103.325 150.982,104.245 149.257,104.245 149.257,107.476 147.732,107.476 147.732,102.775" style="fill:none;stroke-width:0.050000mm;stroke:black"/>
<polygon points="48.007,102.775 48.007,116.775 62.007,116.775 62.007,102.775" style="fill:none;stroke-width:0.050000mm;stroke:black"/>
<polygon points="71.819,102.775 71.819,116.775 85.819,116.775 85.819,102.775" style="fill:none;stroke-width:0.050000mm;stroke:black"/>
<polygon points="95.632,102.775 95.632,116.775 109.632,116.775 109.632,102.775" style="fill:none;stroke-width:0.050000mm;stroke:black"/>
<polygon points="202.788,102.775 202.788,116.775 216.788,116.775 216.788,102.775" style="fill:none;stroke-width:0.050000mm;stroke:black"/>
<polygon points="221.838,102.775 221.838,116.775 235.838,116.775 235.838,102.775" style="fill:none;stroke-width:0.050000mm;stroke:black"/>
<polygon points="240.888,102.775 240.888,116.775 254.888,116.775 254.888,102.775" style="fill:none;stroke-width:0.050000mm;stroke:black"/>
<polygon points="262.319,102.775 262.319,116.775 276.319,116.775 276.319,102.775" style="fill:none;stroke-width:0.050000mm;stroke:black"/>
<polygon points="286.132,102.775 286.132,116.775 300.132,116.775 300.132,102.775" style="fill:none;stroke-width:0.050000mm;stroke:black"/>
<polygon points="307.563,102.775 307.563,116.775 321.563,116.775 321.563,102.775" style="fill:none;stroke-width:0.050000mm;stroke:black"/>
<polygon points="326.613,102.775 326.613,116.775 340.613,116.775 340.613,102.775" style="fill:none;stroke-width:0.050000mm;stroke:black"/>
<polygon points="345.663,102.775 345.663,116.775 359.663,116.775 359.663,102.775" style="fill:none;stroke-width:0.050000mm;stroke:black"/>
<polygon points="38.482,83.726 38.482,88.426 36.957,88.426 36.957,85.196 35.232,85.196 35.232,84.275 31.932,84.275 31.932,85.196 30.207,85.196 30.207,88.426 29.382,88.426 29.382,91.226 30.207,91.226 30.207,97.495 31.932,97.495 31.932,98.476 35.232,98.476 35.232,97.495 36.957,97.495 36.957,93.025 38.482,93.025 38.482,97.726 52.482,97.726 52.482,93.025 54.007,93.025 54.007,97.495 55.732,97.495 55.732,98.476 59.032,98.476 59.032,97.495 60.757,97.495 60.757,91.226 61.582,91.226 61.582,88.426 60.757,88.426 60.757,85.196 59.032,85.196 59.032,84.275 55.732,84.275 55.732,85.196 54.007,85.196 54.007,88.426 52.482,88.426 52.482,83.726" style="fill:none;stroke-width:0.050000mm;stroke:black"/>
<polygon points="7.526,83.726 7.526,97.726 21.526,97.726 21.526,83.726" style="fill:none;stroke-width:0.050000mm;stroke:black"/>
<polygon points="69.438,83.726 69.438,97.726 83.438,97.726 83.438,83.726" style="fill:none;stroke-width:0.050000mm;stroke:black"/>
<polygon points="88.488,83.726 88.488,97.726 102.488,97.726 102.488,83.726" style="fill:none;stroke-width:0.050000mm;stroke:black"/>
<polygon points="107.538,83.726 107.538,97.726 121.538,97.726 121.538,83.726" style="fill:none;stroke-width:0.050000mm;stroke:black"/>
<polygon points="126.588,83.726 126.588,97.726 140.588,97.726 140.588,83.726" style="fill:none;stroke-width:0.050000mm;stroke:black"/>
<polygon points="145.638,83.726 145.638,97.726 159.638,97.726 159.638,83.726" style="fill:none;stroke-width:0.050000mm;stroke:black"/>
<polygon points="198.026,83.726 198.026,97.726 212.026,97.726 212.026,83.726" style="fill:none;stroke-width:0.050000mm;stroke:black"/>
<polygon points="217.076,83.726 217.076,97.726 231.076,97.726 231.076,83.726" style="fill:none;stroke-width:0.050000mm;stroke:black"/>
<polygon points="236.126,83.726 236.126,97.726 250.126,97.726 250.126,83.726" style="fill:none;stroke-width:0.050000mm;stroke:black"/>
<polygon points="255.176,83.726 255.176,97.726 269.176,97.726 269.176,83.726" style="fill:none;stroke-width:0.050000mm;stroke:black"/>
<polygon points="274.226,83.726 274.226,97.726 288.226,97.726 288.226,83.726" style="fill:none;stroke-width:0.050000mm;stroke:black"/>
<polygon points="300.419,83.726 300.419,97.726 314.419,97.726 314.419,83.726" style="fill:none;stroke-width:0.050000mm;stroke:black"/>
<polygon points="326.613,83.726 326.613,97.726 340.613,97.726 340.613,83.726" style="fill:none;stroke-width:0.050000mm;stroke:black"/>
<polygon points="352.163,65.100 352.163,65.926 345.893,65.926 345.893,67.651 344.913,67.651 344.913,70.951 345.893,70.951 345.893,72.676 350.363,72.676 350.363,74.201 345.663,74.201 345.663,88.201 350.363,88.201 350.363,89.726 345.893,89.726 345.893,91.451 344.913,91.451 344.913,94.751 345.893,94.751 345.893,96.476 352.163,96.476 352.163,97.301 354.963,97.301 354.963,96.476 358.193,96.476 358.193,94.751 359.113,94.751 359.113,91.451 358.193,91.451 358.193,89.726 354.963,89.726 354.963,88.201 359.663,88.201 359.663,74.201 354.963,74.201 354.963,72.676 358.193,72.676 358.193,70.951 359.113,70.951 359.113,67.651 358.193,67.651 358.193,65.926 354.963,65.926 354.963,65.100" style="fill:none;stroke-width:0.050000mm;stroke:black"/>
<polygon points="314.707,64.676 314.707,69.376 313.182,69.376 313.182,66.146 311.457,66.146 311.457,65.225 308.157,65.225 308.157,66.146 306.432,66.146 306.432,69.376 305.607,69.376 305.607,72.176 306.432,72.176 306.432,78.446 308.157,78.446 308.157,79.426 311.457,79.426 311.457,78.446 313.182,78.446 313.182,73.976 314.707,73.976 314.707,78.676 328.707,78.676 328.707,73.976 330.232,73.976 330.232,78.446 331.957,78.446 331.957,79.426 335.257,79.426 335.257,78.446 336.982,78.446 336.982,72.176 337.807,72.176 337.807,69.376 336.982,69.376 336.982,66.146 335.257,66.146 335.257,65.225 331.957,65.225 331.957,66.146 330.232,66.146 330.232,69.376 328.707,69.376 328.707,64.676" style="fill:none;stroke-width:0.050000mm;stroke:black"/>
<polygon points="7.526,64.676 7.526,78.676 21.526,78.676 21.526,64.676" style="fill:none;stroke-width:0.050000mm;stroke:black"/>
<polygon points="33.719,64.676 33.719,78.676 47.719,78.676 47.719,64.676" style="fill:none;stroke-width:0.050000mm;stroke:black"/>
<polygon points="59.913,64.676 59.913,78.676 73.913,78.676 73.913,64.676" style="fill:none;stroke-width:0.050000mm;stroke:black"/>
<polygon points="78.963,64.676 78.963,78.676 92.963,78.676 92.963,64.676" style="fill:none;stroke-width:0.050000mm;stroke:black"/>
<polygon points="98.013,64.676 98.013,78.676 112.013,78.676 112.013,64.676" style="fill:none;stroke-width:0.050000mm;stroke:black"/>
<polygon points="117.063,64.676 117.063,78.676 131.063,78.676 131.063,64.676" style="fill:none;stroke-width:0.050000mm;stroke:black"/>
<polygon points="136.113,64.676 136.113,78.676 150.113,78.676 150.113,64.676" style="fill:none;stroke-width:0.050000mm;stroke:black"/>
<polygon points="188.500,64.676 188.500,78.676 202.500,78.676 202.500,64.676" style="fill:none;stroke-width:0.050000mm;stroke:black"/>
<polygon points="207.550,64.676 207.550,78.676 221.550,78.676 221.550,64.676" style="fill:none;stroke-width:0.050000mm;stroke:black"/>
<polygon points="226.601,64.676 226.601,78.676 240.601,78.676 240.601,64.676" style="fill:none;stroke-width:0.050000mm;stroke:black"/>
<polygon points="245.651,64.676 245.651,78.676 259.650,78.676 259.650,64.676" style="fill:none;stroke-width:0.050000mm;stroke:black"/>
<polygon points="264.701,64.676 264.701,78.676 278.701,78.676 278.701,64.676" style="fill:none;stroke-width:0.050000mm;stroke:black"/>
<polygon points="283.751,64.676 283.751,78.676 297.751,78.676 297.751,64.676" style="fill:none;stroke-width:0.050000mm;stroke:black"/>
<polygon points="7.526,45.626 7.526,59.626 21.526,59.626 21.526,45.626" style="fill:none;stroke-width:0.050000mm;stroke:black"/>
<polygon points="31.338,45.626 31.338,59.626 45.338,59.626 45.338,45.626" style="fill:none;stroke-width:0.050000mm;stroke:black"/>
<polygon points="55.151,45.626 55.151,59.626 69.151,59.626 69.151,45.626" style="fill:none;stroke-width:0.050000mm;stroke:black"/>
<polygon points="74.201,45.626 74.201,59.626 88.201,59.626 88.201,45.626" style="fill:none;stroke-width:0.050000mm;stroke:black"/>
<polygon points="93.251,45.626 93.251,59.626 107.251,59.626 107.251,45.626" style="fill:none;stroke-width:0.050000mm;stroke:black"/>
<polygon points="112.301,45.626 112.301,59.626 126.301,59.626 126.301,45.626" style="fill:none;stroke-width:0.050000mm;stroke:black"/>
<polygon points="131.351,45.626 131.351,59.626 145.351,59.626 145.351,45.626" style="fill:none;stroke-width:0.050000mm;stroke:black"/>
<polygon points="183.738,45.626 183.738,59.626 197.738,59.626 197.738,45.626" style="fill:none;stroke-width:0.050000mm;stroke:black"/>
<polygon points="202.788,45.626 202.788,59.626 216.788,59.626 216.788,45.626" style="fill:none;stroke-width:0.050000mm;stroke:black"/>
<polygon points="221.838,45.626 221.838,59.626 235.838,59.626 235.838,45.626" style="fill:none;stroke-width:0.050000mm;stroke:black"/>
<polygon points="240.888,45.626 240.888,59.626 254.888,59.626 254.888,45.626" style="fill:none;stroke-width:0.050000mm;stroke:black"/>
<polygon points="259.938,45.626 259.938,59.626 273.938,59.626 273.938,45.626" style="fill:none;stroke-width:0.050000mm;stroke:black"/>
<polygon points="278.988,45.626 278.988,59.626 292.988,59.626 292.988,45.626" style="fill:none;stroke-width:0.050000mm;stroke:black"/>
<polygon points="298.038,45.626 298.038,59.626 312.038,59.626 312.038,45.626" style="fill:none;stroke-width:0.050000mm;stroke:black"/>
<polygon points="321.851,45.626 321.851,59.626 335.851,59.626 335.851,45.626" style="fill:none;stroke-width:0.050000mm;stroke:black"/>
<polygon points="345.663,45.626 345.663,59.626 359.663,59.626 359.663,45.626" style="fill:none;stroke-width:0.050000mm;stroke:black"/>
<polygon points="317.088,26.576 317.088,31.276 315.563,31.276 315.563,28.046 313.838,28.046 313.838,27.126 310.538,27.126 310.538,28.046 308.813,28.046 308.813,31.276 307.988,31.276 307.988,34.076 308.813,34.076 308.813,40.346 310.538,40.346 310.538,41.326 313.838,41.326 313.838,40.346 315.563,40.346 315.563,35.876 317.088,35.876 317.088,40.576 331.088,40.576 331.088,35.876 332.613,35.876 332.613,40.346 334.338,40.346 334.338,41.326 337.638,41.326 337.638,40.346 339.363,40.346 339.363,34.076 340.188,34.076 340.188,31.276 339.363,31.276 339.363,28.046 337.638,28.046 337.638,27.126 334.338,27.126 334.338,28.046 332.613,28.046 332.613,31.276 331.088,31.276 331.088,26.576" style="fill:none;stroke-width:0.050000mm;stroke:black"/>
<polygon points="7.526,26.576 7.526,40.576 21.526,40.576 21.526,26.576" style="fill:none;stroke-width:0.050000mm;stroke:black"/>
<polygon points="26.576,26.576 26.576,40.576 40.576,40.576 40.576,26.576" style="fill:none;stroke-width:0.050000mm;stroke:black"/>
<polygon points="45.626,26.576 45.626,40.576 59.626,40.576 59.626,26.576" style="fill:none;stroke-width:0.050000mm;stroke:black"/>
<polygon points="64.676,26.576 64.676,40.576 78.676,40.576 78.676,26.576" style="fill:none;stroke-width:0.050000mm;stroke:black"/>
<polygon points="83.726,26.576 83.726,40.576 97.726,40.576 97.726,26.576" style="fill:none;stroke-width:0.050000mm;stroke:black"/>
<polygon points="102.775,26.576 102.775,40.576 116.775,40.576 116.775,26.576" style="fill:none;stroke-width:0.050000mm;stroke:black"/>
<polygon points="121.825,26.576 121.825,40.576 135.826,40.576 135.826,26.576" style="fill:none;stroke-width:0.050000mm;stroke:black"/>
<polygon points="140.876,26.576 140.876,40.576 154.876,40.576 154.876,26.576" style="fill:none;stroke-width:0.050000mm;stroke:black"/>
<polygon points="193.263,26.576 193.263,40.576 207.263,40.576 207.263,26.576" style="fill:none;stroke-width:0.050000mm;stroke:black"/>
<polygon points="212.313,26.576 212.313,40.576 226.313,40.576 226.313,26.576" style="fill:none;stroke-width:0.050000mm;stroke:black"/>
<polygon points="231.363,26.576 231.363,40.576 245.363,40.576 245.363,26.576" style="fill:none;stroke-width:0.050000mm;stroke:black"/>
<polygon points="250.413,26.576 250.413,40.576 264.413,40.576 264.413,26.576" style="fill:none;stroke-width:0.050000mm;stroke:black"/>
<polygon points="269.463,26.576 269.463,40.576 283.463,40.576 283.463,26.576" style="fill:none;stroke-width:0.050000mm;stroke:black"/>
<polygon points="288.513,26.576 288.513,40.576 302.513,40.576 302.513,26.576" style="fill:none;stroke-width:0.050000mm;stroke:black"/>
<polygon points="345.663,26.576 345.663,40.576 359.663,40.576 359.663,26.576" style="fill:none;stroke-width:0.050000mm;stroke:black"/>
<polygon points="7.526,7.526 7.526,21.526 21.526,21.526 21.526,7.526" style="fill:none;stroke-width:0.050000mm;stroke:black"/>
<polygon points="26.576,7.526 26.576,21.526 40.576,21.526 40.576,7.526" style="fill:none;stroke-width:0.050000mm;stroke:black"/>
<polygon points="45.626,7.526 45.626,21.526 59.626,21.526 59.626,7.526" style="fill:none;stroke-width:0.050000mm;stroke:black"/>
<polygon points="64.676,7.526 64.676,21.526 78.676,21.526 78.676,7.526" style="fill:none;stroke-width:0.050000mm;stroke:black"/>
<polygon points="83.726,7.526 83.726,21.526 97.726,21.526 97.726,7.526" style="fill:none;stroke-width:0.050000mm;stroke:black"/>
<polygon points="102.775,7.526 102.775,21.526 116.775,21.526 116.775,7.526" style="fill:none;stroke-width:0.050000mm;stroke:black"/>
<polygon points="121.825,7.526 121.825,21.526 135.826,21.526 135.826,7.526" style="fill:none;stroke-width:0.050000mm;stroke:black"/>
<polygon points="140.876,7.526 140.876,21.526 154.876,21.526 154.876,7.526" style="fill:none;stroke-width:0.050000mm;stroke:black"/>
<polygon points="193.263,7.526 193.263,21.526 207.263,21.526 207.263,7.526" style="fill:none;stroke-width:0.050000mm;stroke:black"/>
<polygon points="212.313,7.526 212.313,21.526 226.313,21.526 226.313,7.526" style="fill:none;stroke-width:0.050000mm;stroke:black"/>
<polygon points="231.363,7.526 231.363,21.526 245.363,21.526 245.363,7.526" style="fill:none;stroke-width:0.050000mm;stroke:black"/>
<polygon points="250.413,7.526 250.413,21.526 264.413,21.526 264.413,7.526" style="fill:none;stroke-width:0.050000mm;stroke:black"/>
<polygon points="269.463,7.526 269.463,21.526 283.463,21.526 283.463,7.526" style="fill:none;stroke-width:0.050000mm;stroke:black"/>
<polygon points="288.513,7.526 288.513,21.526 302.513,21.526 302.513,7.526" style="fill:none;stroke-width:0.050000mm;stroke:black"/>
<polygon points="307.563,7.526 307.563,21.526 321.563,21.526 321.563,7.526" style="fill:none;stroke-width:0.050000mm;stroke:black"/>
<polygon points="326.613,7.526 326.613,21.526 340.613,21.526 340.613,7.526" style="fill:none;stroke-width:0.050000mm;stroke:black"/>
<polygon points="345.663,7.526 345.663,21.526 359.663,21.526 359.663,7.526" style="fill:none;stroke-width:0.050000mm;stroke:black"/>
</svg>
