<?xml version="1.0"?>
<!-- Generated by SVGo -->
<svg width="341.851mm" height="142.301mm"
     viewBox="0.000 0.000 341.851 142.301"
     xmlns="http://www.w3.org/2000/svg" 
     xmlns:xlink="http://www.w3.org/1999/xlink">
<polygon points="35.000,10.000 306.851,10.000 311.851,5.000 331.851,5.000 336.851,10.000 336.851,132.300 331.851,137.301 311.851,137.301 306.851,132.300 35.000,132.300 30.000,137.301 10.000,137.301 5.000,132.300 5.000,10.000 10.000,5.000 30.000,5.000" style="fill:none;stroke-width:0.050000mm;stroke:black"/>
<polygon points="19.882,132.305 19.765,132.319 19.649,132.342 19.536,132.374 19.425,132.415 19.319,132.464 19.216,132.522 19.118,132.587 19.025,132.660 18.939,132.740 18.859,132.826 18.786,132.919 18.721,133.017 18.663,133.120 18.614,133.226 18.573,133.336 18.541,133.449 18.518,133.566 18.504,133.683 18.499,133.800 18.504,133.918 18.518,134.035 18.541,134.151 18.573,134.264 18.614,134.375 18.663,134.481 18.721,134.584 18.786,134.681 18.859,134.775 18.939,134.860 19.025,134.941 19.118,135.014 19.216,135.079 19.319,135.137 19.425,135.186 19.536,135.227 19.649,135.258 19.765,135.282 19.882,135.295 20.000,135.300 20.117,135.295 20.234,135.282 20.350,135.258 20.463,135.227 20.574,135.186 20.680,135.137 20.783,135.079 20.881,135.014 20.974,134.941 21.060,134.860 21.140,134.775 21.213,134.681 21.278,134.584 21.336,134.481 21.385,134.375 21.426,134.264 21.458,134.151 21.481,134.035 21.495,133.918 21.500,133.800 21.495,133.683 21.481,133.566 21.458,133.449 21.426,133.336 21.385,133.226 21.336,133.120 21.278,133.017 21.213,132.919 21.140,132.826 21.060,132.740 20.974,132.660 20.881,132.587 20.783,132.522 20.680,132.464 20.574,132.415 20.463,132.374 20.350,132.342 20.234,132.319 20.117,132.305 20.000,132.300" style="fill:none;stroke-width:0.050000mm;stroke:black"/>
<polygon points="321.733,132.305 321.616,132.319 321.500,132.342 321.387,132.374 321.276,132.415 321.170,132.464 321.067,132.522 320.969,132.587 320.876,132.660 320.790,132.740 320.710,132.826 320.637,132.919 320.572,133.017 320.514,133.120 320.465,133.226 320.424,133.336 320.392,133.449 320.369,133.566 320.355,133.683 320.351,133.800 320.355,133.918 320.369,134.035 320.392,134.151 320.424,134.264 320.465,134.375 320.514,134.481 320.572,134.584 320.637,134.681 320.710,134.775 320.790,134.860 320.876,134.941 320.969,135.014 321.067,135.079 321.170,135.137 321.276,135.186 321.387,135.227 321.500,135.258 321.616,135.282 321.733,135.295 321.851,135.300 321.968,135.295 322.085,135.282 322.201,135.258 322.314,135.227 322.425,135.186 322.531,135.137 322.634,135.079 322.732,135.014 322.825,134.941 322.911,134.860 322.991,134.775 323.064,134.681 323.129,134.584 323.187,134.481 323.236,134.375 323.277,134.264 323.309,134.151 323.332,134.035 323.346,133.918 323.351,133.800 323.346,133.683 323.332,133.566 323.309,133.449 323.277,133.336 323.236,133.226 323.187,133.120 323.129,133.017 323.064,132.919 322.991,132.826 322.911,132.740 322.825,132.660 322.732,132.587 322.634,132.522 322.531,132.464 322.425,132.415 322.314,132.374 322.201,132.342 322.085,132.319 321.968,132.305 321.851,132.300" style="fill:none;stroke-width:0.050000mm;stroke:black"/>
<polygon points="9.000,14.000 9.000,128.300 332.851,128.300 332.851,14.000" style="fill:none;stroke-width:0.050000mm;stroke:black"/>
<polygon points="19.882,7.004 19.765,7.017 19.649,7.041 19.536,7.073 19.425,7.114 19.319,7.163 19.216,7.221 19.118,7.286 19.025,7.359 18.939,7.439 18.859,7.525 18.786,7.618 18.721,7.716 18.663,7.819 18.614,7.925 18.573,8.036 18.541,8.149 18.518,8.265 18.504,8.382 18.499,8.500 18.504,8.617 18.518,8.734 18.541,8.850 18.573,8.963 18.614,9.074 18.663,9.180 18.721,9.283 18.786,9.381 18.859,9.474 18.939,9.560 19.025,9.640 19.118,9.713 19.216,9.778 19.319,9.836 19.425,9.885 19.536,9.926 19.649,9.958 19.765,9.981 19.882,9.995 20.000,10.000 20.117,9.995 20.234,9.981 20.350,9.958 20.463,9.926 20.574,9.885 20.680,9.836 20.783,9.778 20.881,9.713 20.974,9.640 21.060,9.560 21.140,9.474 21.213,9.381 21.278,9.283 21.336,9.180 21.385,9.074 21.426,8.963 21.458,8.850 21.481,8.734 21.495,8.617 21.500,8.500 21.495,8.382 21.481,8.265 21.458,8.149 21.426,8.036 21.385,7.925 21.336,7.819 21.278,7.716 21.213,7.618 21.140,7.525 21.060,7.439 20.974,7.359 20.881,7.286 20.783,7.221 20.680,7.163 20.574,7.114 20.463,7.073 20.350,7.041 20.234,7.017 20.117,7.004 20.000,7.000" style="fill:none;stroke-width:0.050000mm;stroke:black"/>
<polygon points="321.733,7.004 321.616,7.017 321.500,7.041 321.387,7.073 321.276,7.114 321.170,7.163 321.067,7.221 320.969,7.286 320.876,7.359 320.790,7.439 320.710,7.525 320.637,7.618 320.572,7.716 320.514,7.819 320.465,7.925 320.424,8.036 320.392,8.149 320.369,8.265 320.355,8.382 320.351,8.500 320.355,8.617 320.369,8.734 320.392,8.850 320.424,8.963 320.465,9.074 320.514,9.180 320.572,9.283 320.637,9.381 320.710,9.474 320.790,9.560 320.876,9.640 320.969,9.713 321.067,9.778 321.170,9.836 321.276,9.885 321.387,9.926 321.500,9.958 321.616,9.981 321.733,9.995 321.851,10.000 321.968,9.995 322.085,9.981 322.201,9.958 322.314,9.926 322.425,9.885 322.531,9.836 322.634,9.778 322.732,9.713 322.825,9.640 322.911,9.560 322.991,9.474 323.064,9.381 323.129,9.283 323.187,9.180 323.236,9.074 323.277,8.963 323.309,8.850 323.332,8.734 323.346,8.617 323.351,8.500 323.346,8.382 323.332,8.265 323.309,8.149 323.277,8.036 323.236,7.925 323.187,7.819 323.129,7.716 323.064,7.618 322.991,7.525 322.911,7.439 322.825,7.359 322.732,7.286 322.634,7.221 322.531,7.163 322.425,7.114 322.314,7.073 322.201,7.041 322.085,7.017 321.968,7.004 321.851,7.000" style="fill:none;stroke-width:0.050000mm;stroke:black"/>
</svg>
