<?xml version="1.0"?>
<!-- Generated by SVGo -->
<svg width="341.851mm" height="142.301mm"
     viewBox="0.000 0.000 341.851 142.301"
     xmlns="http://www.w3.org/2000/svg" 
     xmlns:xlink="http://www.w3.org/1999/xlink">
<polygon points="35.000,10.000 306.851,10.000 311.851,5.000 331.851,5.000 336.851,10.000 336.851,132.300 331.851,137.301 311.851,137.301 306.851,132.300 35.000,132.300 30.000,137.301 10.000,137.301 5.000,132.300 5.000,10.000 10.000,5.000 30.000,5.000" style="fill:none;stroke-width:0.050000mm;stroke:black"/>
<polygon points="19.882,132.305 19.765,132.319 19.649,132.342 19.536,132.374 19.425,132.415 19.319,132.464 19.216,132.522 19.118,132.587 19.025,132.660 18.939,132.740 18.859,132.826 18.786,132.919 18.721,133.017 18.663,133.120 18.614,133.226 18.573,133.336 18.541,133.449 18.518,133.566 18.504,133.683 18.499,133.800 18.504,133.918 18.518,134.035 18.541,134.151 18.573,134.264 18.614,134.375 18.663,134.481 18.721,134.584 18.786,134.681 18.859,134.775 18.939,134.860 19.025,134.941 19.118,135.014 19.216,135.079 19.319,135.137 19.425,135.186 19.536,135.227 19.649,135.258 19.765,135.282 19.882,135.295 20.000,135.300 20.117,135.295 20.234,135.282 20.350,135.258 20.463,135.227 20.574,135.186 20.680,135.137 20.783,135.079 20.881,135.014 20.974,134.941 21.060,134.860 21.140,134.775 21.213,134.681 21.278,134.584 21.336,134.481 21.385,134.375 21.426,134.264 21.458,134.151 21.481,134.035 21.495,133.918 21.500,133.800 21.495,133.683 21.481,133.566 21.458,133.449 21.426,133.336 21.385,133.226 21.336,133.120 21.278,133.017 21.213,132.919 21.140,132.826 21.060,132.740 20.974,132.660 20.881,132.587 20.783,132.522 20.680,132.464 20.574,132.415 20.463,132.374 20.350,132.342 20.234,132.319 20.117,132.305 20.000,132.300" style="fill:none;stroke-width:0.050000mm;stroke:black"/>
<polygon points="321.733,132.305 321.616,132.319 321.500,132.342 321.387,132.374 321.276,132.415 321.170,132.464 321.067,132.522 320.969,132.587 320.876,132.660 320.790,132.740 320.710,132.826 320.637,132.919 320.572,133.017 320.514,133.120 320.465,133.226 320.424,133.336 320.392,133.449 320.369,133.566 320.355,133.683 320.351,133.800 320.355,133.918 320.369,134.035 320.392,134.151 320.424,134.264 320.465,134.375 320.514,134.481 320.572,134.584 320.637,134.681 320.710,134.775 320.790,134.860 320.876,134.941 320.969,135.014 321.067,135.079 321.170,135.137 321.276,135.186 321.387,135.227 321.500,135.258 321.616,135.282 321.733,135.295 321.851,135.300 321.968,135.295 322.085,135.282 322.201,135.258 322.314,135.227 322.425,135.186 322.531,135.137 322.634,135.079 322.732,135.014 322.825,134.941 322.911,134.860 322.991,134.775 323.064,134.681 323.129,134.584 323.187,134.481 323.236,134.375 323.277,134.264 323.309,134.151 323.332,134.035 323.346,133.918 323.351,133.800 323.346,133.683 323.332,133.566 323.309,133.449 323.277,133.336 323.236,133.226 323.187,133.120 323.129,133.017 323.064,132.919 322.991,132.826 322.911,132.740 322.825,132.660 322.732,132.587 322.634,132.522 322.531,132.464 322.425,132.415 322.314,132.374 322.201,132.342 322.085,132.319 321.968,132.305 321.851,132.300" style="fill:none;stroke-width:0.050000mm;stroke:black"/>
<polygon points="21.050,111.774 21.050,116.475 19.525,116.475 19.525,113.244 17.800,113.244 17.800,112.324 14.500,112.324 14.500,113.244 12.775,113.244 12.775,116.475 11.950,116.475 11.950,119.274 12.775,119.274 12.775,125.544 14.500,125.544 14.500,126.524 17.800,126.524 17.800,125.544 19.525,125.544 19.525,121.074 21.050,121.074 21.050,125.774 35.050,125.774 35.050,121.074 36.575,121.074 36.575,125.544 38.300,125.544 38.300,126.524 41.600,126.524 41.600,125.544 43.325,125.544 43.325,119.274 44.150,119.274 44.150,116.475 43.325,116.475 43.325,113.244 41.600,113.244 41.600,112.324 38.300,112.324 38.300,113.244 36.575,113.244 36.575,116.475 35.050,116.475 35.050,111.774" style="fill:none;stroke-width:0.050000mm;stroke:black"/>
<polygon points="137.731,111.774 137.731,116.475 136.206,116.475 136.206,113.244 134.481,113.244 134.481,112.324 131.181,112.324 131.181,113.244 129.455,113.244 129.455,116.475 128.631,116.475 128.631,119.274 129.455,119.274 129.455,125.544 131.181,125.544 131.181,126.524 134.481,126.524 134.481,125.544 136.206,125.544 136.206,121.074 137.731,121.074 137.731,125.774 151.731,125.774 151.731,121.074 153.256,121.074 153.256,125.544 154.981,125.544 154.981,126.524 158.281,126.524 158.281,125.544 160.006,125.544 160.006,119.274 160.831,119.274 160.831,116.475 160.006,116.475 160.006,113.244 158.281,113.244 158.281,112.324 154.981,112.324 154.981,113.244 153.256,113.244 153.256,116.475 151.731,116.475 151.731,111.774" style="fill:none;stroke-width:0.050000mm;stroke:black"/>
<polygon points="52.006,111.774 52.006,125.774 66.006,125.774 66.006,111.774" style="fill:none;stroke-width:0.050000mm;stroke:black"/>
<polygon points="75.818,111.774 75.818,125.774 89.818,125.774 89.818,111.774" style="fill:none;stroke-width:0.050000mm;stroke:black"/>
<polygon points="99.631,111.774 99.631,125.774 113.631,125.774 113.631,111.774" style="fill:none;stroke-width:0.050000mm;stroke:black"/>
<polygon points="173.450,111.774 173.450,125.774 187.450,125.774 187.450,111.774" style="fill:none;stroke-width:0.050000mm;stroke:black"/>
<polygon points="192.500,111.774 192.500,125.774 206.500,125.774 206.500,111.774" style="fill:none;stroke-width:0.050000mm;stroke:black"/>
<polygon points="211.550,111.774 211.550,125.774 225.550,125.774 225.550,111.774" style="fill:none;stroke-width:0.050000mm;stroke:black"/>
<polygon points="232.981,111.774 232.981,125.774 246.981,125.774 246.981,111.774" style="fill:none;stroke-width:0.050000mm;stroke:black"/>
<polygon points="256.793,111.774 256.793,125.774 270.793,125.774 270.793,111.774" style="fill:none;stroke-width:0.050000mm;stroke:black"/>
<polygon points="278.225,111.774 278.225,125.774 292.225,125.774 292.225,111.774" style="fill:none;stroke-width:0.050000mm;stroke:black"/>
<polygon points="297.275,111.774 297.275,125.774 311.275,125.774 311.275,111.774" style="fill:none;stroke-width:0.050000mm;stroke:black"/>
<polygon points="316.325,111.774 316.325,125.774 330.325,125.774 330.325,111.774" style="fill:none;stroke-width:0.050000mm;stroke:black"/>
<polygon points="42.481,92.725 42.481,97.425 40.956,97.425 40.956,94.195 39.231,94.195 39.231,93.274 35.931,93.274 35.931,94.195 34.206,94.195 34.206,97.425 33.381,97.425 33.381,100.225 34.206,100.225 34.206,106.494 35.931,106.494 35.931,107.475 39.231,107.475 39.231,106.494 40.956,106.494 40.956,102.024 42.481,102.024 42.481,106.725 56.481,106.725 56.481,102.024 58.006,102.024 58.006,106.494 59.731,106.494 59.731,107.475 63.031,107.475 63.031,106.494 64.756,106.494 64.756,100.225 65.581,100.225 65.581,97.425 64.756,97.425 64.756,94.195 63.031,94.195 63.031,93.274 59.731,93.274 59.731,94.195 58.006,94.195 58.006,97.425 56.481,97.425 56.481,92.725" style="fill:none;stroke-width:0.050000mm;stroke:black"/>
<polygon points="11.524,92.725 11.524,106.725 25.525,106.725 25.525,92.725" style="fill:none;stroke-width:0.050000mm;stroke:black"/>
<polygon points="73.437,92.725 73.437,106.725 87.437,106.725 87.437,92.725" style="fill:none;stroke-width:0.050000mm;stroke:black"/>
<polygon points="92.487,92.725 92.487,106.725 106.487,106.725 106.487,92.725" style="fill:none;stroke-width:0.050000mm;stroke:black"/>
<polygon points="111.537,92.725 111.537,106.725 125.537,106.725 125.537,92.725" style="fill:none;stroke-width:0.050000mm;stroke:black"/>
<polygon points="130.586,92.725 130.586,106.725 144.587,106.725 144.587,92.725" style="fill:none;stroke-width:0.050000mm;stroke:black"/>
<polygon points="149.637,92.725 149.637,106.725 163.637,106.725 163.637,92.725" style="fill:none;stroke-width:0.050000mm;stroke:black"/>
<polygon points="168.687,92.725 168.687,106.725 182.687,106.725 182.687,92.725" style="fill:none;stroke-width:0.050000mm;stroke:black"/>
<polygon points="187.737,92.725 187.737,106.725 201.737,106.725 201.737,92.725" style="fill:none;stroke-width:0.050000mm;stroke:black"/>
<polygon points="206.787,92.725 206.787,106.725 220.787,106.725 220.787,92.725" style="fill:none;stroke-width:0.050000mm;stroke:black"/>
<polygon points="225.837,92.725 225.837,106.725 239.837,106.725 239.837,92.725" style="fill:none;stroke-width:0.050000mm;stroke:black"/>
<polygon points="244.887,92.725 244.887,106.725 258.887,106.725 258.887,92.725" style="fill:none;stroke-width:0.050000mm;stroke:black"/>
<polygon points="271.081,92.725 271.081,106.725 285.081,106.725 285.081,92.725" style="fill:none;stroke-width:0.050000mm;stroke:black"/>
<polygon points="297.275,92.725 297.275,106.725 311.275,106.725 311.275,92.725" style="fill:none;stroke-width:0.050000mm;stroke:black"/>
<polygon points="322.825,74.100 322.825,74.925 316.555,74.925 316.555,76.650 315.575,76.650 315.575,79.950 316.555,79.950 316.555,81.675 321.025,81.675 321.025,83.200 316.325,83.200 316.325,97.200 321.025,97.200 321.025,98.725 316.555,98.725 316.555,100.450 315.575,100.450 315.575,103.750 316.555,103.750 316.555,105.475 322.825,105.475 322.825,106.300 325.625,106.300 325.625,105.475 328.855,105.475 328.855,103.750 329.775,103.750 329.775,100.450 328.855,100.450 328.855,98.725 325.625,98.725 325.625,97.200 330.325,97.200 330.325,83.200 325.625,83.200 325.625,81.675 328.855,81.675 328.855,79.950 329.775,79.950 329.775,76.650 328.855,76.650 328.855,74.925 325.625,74.925 325.625,74.100" style="fill:none;stroke-width:0.050000mm;stroke:black"/>
<polygon points="285.368,73.675 285.368,78.375 283.843,78.375 283.843,75.145 282.118,75.145 282.118,74.225 278.818,74.225 278.818,75.145 277.093,75.145 277.093,78.375 276.268,78.375 276.268,81.175 277.093,81.175 277.093,87.445 278.818,87.445 278.818,88.425 282.118,88.425 282.118,87.445 283.843,87.445 283.843,82.975 285.368,82.975 285.368,87.675 299.368,87.675 299.368,82.975 300.893,82.975 300.893,87.445 302.618,87.445 302.618,88.425 305.918,88.425 305.918,87.445 307.643,87.445 307.643,81.175 308.468,81.175 308.468,78.375 307.643,78.375 307.643,75.145 305.918,75.145 305.918,74.225 302.618,74.225 302.618,75.145 300.893,75.145 300.893,78.375 299.368,78.375 299.368,73.675" style="fill:none;stroke-width:0.050000mm;stroke:black"/>
<polygon points="11.524,73.675 11.524,87.675 25.525,87.675 25.525,73.675" style="fill:none;stroke-width:0.050000mm;stroke:black"/>
<polygon points="37.718,73.675 37.718,87.675 51.718,87.675 51.718,73.675" style="fill:none;stroke-width:0.050000mm;stroke:black"/>
<polygon points="63.912,73.675 63.912,87.675 77.912,87.675 77.912,73.675" style="fill:none;stroke-width:0.050000mm;stroke:black"/>
<polygon points="82.962,73.675 82.962,87.675 96.962,87.675 96.962,73.675" style="fill:none;stroke-width:0.050000mm;stroke:black"/>
<polygon points="102.012,73.675 102.012,87.675 116.012,87.675 116.012,73.675" style="fill:none;stroke-width:0.050000mm;stroke:black"/>
<polygon points="121.062,73.675 121.062,87.675 135.062,87.675 135.062,73.675" style="fill:none;stroke-width:0.050000mm;stroke:black"/>
<polygon points="140.112,73.675 140.112,87.675 154.112,87.675 154.112,73.675" style="fill:none;stroke-width:0.050000mm;stroke:black"/>
<polygon points="159.162,73.675 159.162,87.675 173.162,87.675 173.162,73.675" style="fill:none;stroke-width:0.050000mm;stroke:black"/>
<polygon points="178.212,73.675 178.212,87.675 192.212,87.675 192.212,73.675" style="fill:none;stroke-width:0.050000mm;stroke:black"/>
<polygon points="197.262,73.675 197.262,87.675 211.262,87.675 211.262,73.675" style="fill:none;stroke-width:0.050000mm;stroke:black"/>
<polygon points="216.312,73.675 216.312,87.675 230.312,87.675 230.312,73.675" style="fill:none;stroke-width:0.050000mm;stroke:black"/>
<polygon points="235.362,73.675 235.362,87.675 249.362,87.675 249.362,73.675" style="fill:none;stroke-width:0.050000mm;stroke:black"/>
<polygon points="254.412,73.675 254.412,87.675 268.412,87.675 268.412,73.675" style="fill:none;stroke-width:0.050000mm;stroke:black"/>
<polygon points="11.524,54.625 11.524,68.625 25.525,68.625 25.525,54.625" style="fill:none;stroke-width:0.050000mm;stroke:black"/>
<polygon points="35.337,54.625 35.337,68.625 49.337,68.625 49.337,54.625" style="fill:none;stroke-width:0.050000mm;stroke:black"/>
<polygon points="59.150,54.625 59.150,68.625 73.150,68.625 73.150,54.625" style="fill:none;stroke-width:0.050000mm;stroke:black"/>
<polygon points="78.200,54.625 78.200,68.625 92.200,68.625 92.200,54.625" style="fill:none;stroke-width:0.050000mm;stroke:black"/>
<polygon points="97.250,54.625 97.250,68.625 111.250,68.625 111.250,54.625" style="fill:none;stroke-width:0.050000mm;stroke:black"/>
<polygon points="116.300,54.625 116.300,68.625 130.300,68.625 130.300,54.625" style="fill:none;stroke-width:0.050000mm;stroke:black"/>
<polygon points="135.350,54.625 135.350,68.625 149.350,68.625 149.350,54.625" style="fill:none;stroke-width:0.050000mm;stroke:black"/>
<polygon points="154.400,54.625 154.400,68.625 168.400,68.625 168.400,54.625" style="fill:none;stroke-width:0.050000mm;stroke:black"/>
<polygon points="173.450,54.625 173.450,68.625 187.450,68.625 187.450,54.625" style="fill:none;stroke-width:0.050000mm;stroke:black"/>
<polygon points="192.500,54.625 192.500,68.625 206.500,68.625 206.500,54.625" style="fill:none;stroke-width:0.050000mm;stroke:black"/>
<polygon points="211.550,54.625 211.550,68.625 225.550,68.625 225.550,54.625" style="fill:none;stroke-width:0.050000mm;stroke:black"/>
<polygon points="230.600,54.625 230.600,68.625 244.600,68.625 244.600,54.625" style="fill:none;stroke-width:0.050000mm;stroke:black"/>
<polygon points="249.650,54.625 249.650,68.625 263.650,68.625 263.650,54.625" style="fill:none;stroke-width:0.050000mm;stroke:black"/>
<polygon points="268.700,54.625 268.700,68.625 282.700,68.625 282.700,54.625" style="fill:none;stroke-width:0.050000mm;stroke:black"/>
<polygon points="292.512,54.625 292.512,68.625 306.512,68.625 306.512,54.625" style="fill:none;stroke-width:0.050000mm;stroke:black"/>
<polygon points="316.325,54.625 316.325,68.625 330.325,68.625 330.325,54.625" style="fill:none;stroke-width:0.050000mm;stroke:black"/>
<polygon points="287.750,35.575 287.750,40.275 286.225,40.275 286.225,37.045 284.500,37.045 284.500,36.125 281.200,36.125 281.200,37.045 279.475,37.045 279.475,40.275 278.650,40.275 278.650,43.075 279.475,43.075 279.475,49.345 281.200,49.345 281.200,50.325 284.500,50.325 284.500,49.345 286.225,49.345 286.225,44.875 287.750,44.875 287.750,49.575 301.750,49.575 301.750,44.875 303.275,44.875 303.275,49.345 305.000,49.345 305.000,50.325 308.300,50.325 308.300,49.345 310.025,49.345 310.025,43.075 310.850,43.075 310.850,40.275 310.025,40.275 310.025,37.045 308.300,37.045 308.300,36.125 305.000,36.125 305.000,37.045 303.275,37.045 303.275,40.275 301.750,40.275 301.750,35.575" style="fill:none;stroke-width:0.050000mm;stroke:black"/>
<polygon points="11.524,35.575 11.524,49.575 25.525,49.575 25.525,35.575" style="fill:none;stroke-width:0.050000mm;stroke:black"/>
<polygon points="30.575,35.575 30.575,49.575 44.575,49.575 44.575,35.575" style="fill:none;stroke-width:0.050000mm;stroke:black"/>
<polygon points="49.625,35.575 49.625,49.575 63.625,49.575 63.625,35.575" style="fill:none;stroke-width:0.050000mm;stroke:black"/>
<polygon points="68.675,35.575 68.675,49.575 82.675,49.575 82.675,35.575" style="fill:none;stroke-width:0.050000mm;stroke:black"/>
<polygon points="87.725,35.575 87.725,49.575 101.725,49.575 101.725,35.575" style="fill:none;stroke-width:0.050000mm;stroke:black"/>
<polygon points="106.774,35.575 106.774,49.575 120.774,49.575 120.774,35.575" style="fill:none;stroke-width:0.050000mm;stroke:black"/>
<polygon points="125.824,35.575 125.824,49.575 139.825,49.575 139.825,35.575" style="fill:none;stroke-width:0.050000mm;stroke:black"/>
<polygon points="144.875,35.575 144.875,49.575 158.875,49.575 158.875,35.575" style="fill:none;stroke-width:0.050000mm;stroke:black"/>
<polygon points="163.925,35.575 163.925,49.575 177.925,49.575 177.925,35.575" style="fill:none;stroke-width:0.050000mm;stroke:black"/>
<polygon points="182.975,35.575 182.975,49.575 196.975,49.575 196.975,35.575" style="fill:none;stroke-width:0.050000mm;stroke:black"/>
<polygon points="202.025,35.575 202.025,49.575 216.025,49.575 216.025,35.575" style="fill:none;stroke-width:0.050000mm;stroke:black"/>
<polygon points="221.075,35.575 221.075,49.575 235.075,49.575 235.075,35.575" style="fill:none;stroke-width:0.050000mm;stroke:black"/>
<polygon points="240.125,35.575 240.125,49.575 254.125,49.575 254.125,35.575" style="fill:none;stroke-width:0.050000mm;stroke:black"/>
<polygon points="259.175,35.575 259.175,49.575 273.175,49.575 273.175,35.575" style="fill:none;stroke-width:0.050000mm;stroke:black"/>
<polygon points="316.325,35.575 316.325,49.575 330.325,49.575 330.325,35.575" style="fill:none;stroke-width:0.050000mm;stroke:black"/>
<polygon points="11.524,16.524 11.524,30.525 25.525,30.525 25.525,16.524" style="fill:none;stroke-width:0.050000mm;stroke:black"/>
<polygon points="30.575,16.524 30.575,30.525 44.575,30.525 44.575,16.524" style="fill:none;stroke-width:0.050000mm;stroke:black"/>
<polygon points="49.625,16.524 49.625,30.525 63.625,30.525 63.625,16.524" style="fill:none;stroke-width:0.050000mm;stroke:black"/>
<polygon points="68.675,16.524 68.675,30.525 82.675,30.525 82.675,16.524" style="fill:none;stroke-width:0.050000mm;stroke:black"/>
<polygon points="87.725,16.524 87.725,30.525 101.725,30.525 101.725,16.524" style="fill:none;stroke-width:0.050000mm;stroke:black"/>
<polygon points="106.774,16.524 106.774,30.525 120.774,30.525 120.774,16.524" style="fill:none;stroke-width:0.050000mm;stroke:black"/>
<polygon points="125.824,16.524 125.824,30.525 139.825,30.525 139.825,16.524" style="fill:none;stroke-width:0.050000mm;stroke:black"/>
<polygon points="144.875,16.524 144.875,30.525 158.875,30.525 158.875,16.524" style="fill:none;stroke-width:0.050000mm;stroke:black"/>
<polygon points="163.925,16.524 163.925,30.525 177.925,30.525 177.925,16.524" style="fill:none;stroke-width:0.050000mm;stroke:black"/>
<polygon points="182.975,16.524 182.975,30.525 196.975,30.525 196.975,16.524" style="fill:none;stroke-width:0.050000mm;stroke:black"/>
<polygon points="202.025,16.524 202.025,30.525 216.025,30.525 216.025,16.524" style="fill:none;stroke-width:0.050000mm;stroke:black"/>
<polygon points="221.075,16.524 221.075,30.525 235.075,30.525 235.075,16.524" style="fill:none;stroke-width:0.050000mm;stroke:black"/>
<polygon points="240.125,16.524 240.125,30.525 254.125,30.525 254.125,16.524" style="fill:none;stroke-width:0.050000mm;stroke:black"/>
<polygon points="259.175,16.524 259.175,30.525 273.175,30.525 273.175,16.524" style="fill:none;stroke-width:0.050000mm;stroke:black"/>
<polygon points="278.225,16.524 278.225,30.525 292.225,30.525 292.225,16.524" style="fill:none;stroke-width:0.050000mm;stroke:black"/>
<polygon points="297.275,16.524 297.275,30.525 311.275,30.525 311.275,16.524" style="fill:none;stroke-width:0.050000mm;stroke:black"/>
<polygon points="316.325,16.524 316.325,30.525 330.325,30.525 330.325,16.524" style="fill:none;stroke-width:0.050000mm;stroke:black"/>
<polygon points="19.882,7.004 19.765,7.017 19.649,7.041 19.536,7.073 19.425,7.114 19.319,7.163 19.216,7.221 19.118,7.286 19.025,7.359 18.939,7.439 18.859,7.525 18.786,7.618 18.721,7.716 18.663,7.819 18.614,7.925 18.573,8.036 18.541,8.149 18.518,8.265 18.504,8.382 18.499,8.500 18.504,8.617 18.518,8.734 18.541,8.850 18.573,8.963 18.614,9.074 18.663,9.180 18.721,9.283 18.786,9.381 18.859,9.474 18.939,9.560 19.025,9.640 19.118,9.713 19.216,9.778 19.319,9.836 19.425,9.885 19.536,9.926 19.649,9.958 19.765,9.981 19.882,9.995 20.000,10.000 20.117,9.995 20.234,9.981 20.350,9.958 20.463,9.926 20.574,9.885 20.680,9.836 20.783,9.778 20.881,9.713 20.974,9.640 21.060,9.560 21.140,9.474 21.213,9.381 21.278,9.283 21.336,9.180 21.385,9.074 21.426,8.963 21.458,8.850 21.481,8.734 21.495,8.617 21.500,8.500 21.495,8.382 21.481,8.265 21.458,8.149 21.426,8.036 21.385,7.925 21.336,7.819 21.278,7.716 21.213,7.618 21.140,7.525 21.060,7.439 20.974,7.359 20.881,7.286 20.783,7.221 20.680,7.163 20.574,7.114 20.463,7.073 20.350,7.041 20.234,7.017 20.117,7.004 20.000,7.000" style="fill:none;stroke-width:0.050000mm;stroke:black"/>
<polygon points="321.733,7.004 321.616,7.017 321.500,7.041 321.387,7.073 321.276,7.114 321.170,7.163 321.067,7.221 320.969,7.286 320.876,7.359 320.790,7.439 320.710,7.525 320.637,7.618 320.572,7.716 320.514,7.819 320.465,7.925 320.424,8.036 320.392,8.149 320.369,8.265 320.355,8.382 320.351,8.500 320.355,8.617 320.369,8.734 320.392,8.850 320.424,8.963 320.465,9.074 320.514,9.180 320.572,9.283 320.637,9.381 320.710,9.474 320.790,9.560 320.876,9.640 320.969,9.713 321.067,9.778 321.170,9.836 321.276,9.885 321.387,9.926 321.500,9.958 321.616,9.981 321.733,9.995 321.851,10.000 321.968,9.995 322.085,9.981 322.201,9.958 322.314,9.926 322.425,9.885 322.531,9.836 322.634,9.778 322.732,9.713 322.825,9.640 322.911,9.560 322.991,9.474 323.064,9.381 323.129,9.283 323.187,9.180 323.236,9.074 323.277,8.963 323.309,8.850 323.332,8.734 323.346,8.617 323.351,8.500 323.346,8.382 323.332,8.265 323.309,8.149 323.277,8.036 323.236,7.925 323.187,7.819 323.129,7.716 323.064,7.618 322.991,7.525 322.911,7.439 322.825,7.359 322.732,7.286 322.634,7.221 322.531,7.163 322.425,7.114 322.314,7.073 322.201,7.041 322.085,7.017 321.968,7.004 321.851,7.000" style="fill:none;stroke-width:0.050000mm;stroke:black"/>
</svg>
