<?xml version="1.0"?>
<!-- Generated by SVGo -->
<svg width="308.513mm" height="137.063mm"
     viewBox="0.000 0.000 308.513 137.063"
     xmlns="http://www.w3.org/2000/svg" 
     xmlns:xlink="http://www.w3.org/1999/xlink">
<polygon points="303.513,132.063 5.000,132.063 5.000,5.000 303.513,5.000" style="fill:none;stroke-width:0.050000mm;stroke:black"/>
<polygon points="11.524,111.537 11.524,125.537 25.525,125.537 25.525,111.537" style="fill:none;stroke-width:0.050000mm;stroke:black"/>
<polygon points="30.575,111.537 30.575,125.537 44.575,125.537 44.575,111.537" style="fill:none;stroke-width:0.050000mm;stroke:black"/>
<polygon points="49.625,111.537 49.625,125.537 63.625,125.537 63.625,111.537" style="fill:none;stroke-width:0.050000mm;stroke:black"/>
<polygon points="68.675,111.537 68.675,125.537 82.675,125.537 82.675,111.537" style="fill:none;stroke-width:0.050000mm;stroke:black"/>
<polygon points="87.725,111.537 87.725,125.537 101.725,125.537 101.725,111.537" style="fill:none;stroke-width:0.050000mm;stroke:black"/>
<polygon points="106.774,111.537 106.774,125.537 120.774,125.537 120.774,111.537" style="fill:none;stroke-width:0.050000mm;stroke:black"/>
<polygon points="125.824,111.537 125.824,125.537 139.825,125.537 139.825,111.537" style="fill:none;stroke-width:0.050000mm;stroke:black"/>
<polygon points="168.687,111.537 168.687,125.537 182.687,125.537 182.687,111.537" style="fill:none;stroke-width:0.050000mm;stroke:black"/>
<polygon points="187.737,111.537 187.737,125.537 201.737,125.537 201.737,111.537" style="fill:none;stroke-width:0.050000mm;stroke:black"/>
<polygon points="206.787,111.537 206.787,125.537 220.787,125.537 220.787,111.537" style="fill:none;stroke-width:0.050000mm;stroke:black"/>
<polygon points="225.837,111.537 225.837,125.537 239.837,125.537 239.837,111.537" style="fill:none;stroke-width:0.050000mm;stroke:black"/>
<polygon points="244.887,111.537 244.887,125.537 258.887,125.537 258.887,111.537" style="fill:none;stroke-width:0.050000mm;stroke:black"/>
<polygon points="263.937,111.537 263.937,125.537 277.937,125.537 277.937,111.537" style="fill:none;stroke-width:0.050000mm;stroke:black"/>
<polygon points="282.987,111.537 282.987,125.537 296.987,125.537 296.987,111.537" style="fill:none;stroke-width:0.050000mm;stroke:black"/>
<polygon points="11.524,92.487 11.524,106.487 25.525,106.487 25.525,92.487" style="fill:none;stroke-width:0.050000mm;stroke:black"/>
<polygon points="30.575,92.487 30.575,106.487 44.575,106.487 44.575,92.487" style="fill:none;stroke-width:0.050000mm;stroke:black"/>
<polygon points="49.625,92.487 49.625,106.487 63.625,106.487 63.625,92.487" style="fill:none;stroke-width:0.050000mm;stroke:black"/>
<polygon points="68.675,92.487 68.675,106.487 82.675,106.487 82.675,92.487" style="fill:none;stroke-width:0.050000mm;stroke:black"/>
<polygon points="87.725,92.487 87.725,106.487 101.725,106.487 101.725,92.487" style="fill:none;stroke-width:0.050000mm;stroke:black"/>
<polygon points="106.774,92.487 106.774,106.487 120.774,106.487 120.774,92.487" style="fill:none;stroke-width:0.050000mm;stroke:black"/>
<polygon points="125.824,92.487 125.824,106.487 139.825,106.487 139.825,92.487" style="fill:none;stroke-width:0.050000mm;stroke:black"/>
<polygon points="168.687,92.487 168.687,106.487 182.687,106.487 182.687,92.487" style="fill:none;stroke-width:0.050000mm;stroke:black"/>
<polygon points="187.737,92.487 187.737,106.487 201.737,106.487 201.737,92.487" style="fill:none;stroke-width:0.050000mm;stroke:black"/>
<polygon points="206.787,92.487 206.787,106.487 220.787,106.487 220.787,92.487" style="fill:none;stroke-width:0.050000mm;stroke:black"/>
<polygon points="225.837,92.487 225.837,106.487 239.837,106.487 239.837,92.487" style="fill:none;stroke-width:0.050000mm;stroke:black"/>
<polygon points="244.887,92.487 244.887,106.487 258.887,106.487 258.887,92.487" style="fill:none;stroke-width:0.050000mm;stroke:black"/>
<polygon points="263.937,92.487 263.937,106.487 277.937,106.487 277.937,92.487" style="fill:none;stroke-width:0.050000mm;stroke:black"/>
<polygon points="282.987,92.487 282.987,106.487 296.987,106.487 296.987,92.487" style="fill:none;stroke-width:0.050000mm;stroke:black"/>
<polygon points="11.524,73.437 11.524,87.437 25.525,87.437 25.525,73.437" style="fill:none;stroke-width:0.050000mm;stroke:black"/>
<polygon points="30.575,73.437 30.575,87.437 44.575,87.437 44.575,73.437" style="fill:none;stroke-width:0.050000mm;stroke:black"/>
<polygon points="49.625,73.437 49.625,87.437 63.625,87.437 63.625,73.437" style="fill:none;stroke-width:0.050000mm;stroke:black"/>
<polygon points="68.675,73.437 68.675,87.437 82.675,87.437 82.675,73.437" style="fill:none;stroke-width:0.050000mm;stroke:black"/>
<polygon points="87.725,73.437 87.725,87.437 101.725,87.437 101.725,73.437" style="fill:none;stroke-width:0.050000mm;stroke:black"/>
<polygon points="106.774,73.437 106.774,87.437 120.774,87.437 120.774,73.437" style="fill:none;stroke-width:0.050000mm;stroke:black"/>
<polygon points="125.824,73.437 125.824,87.437 139.825,87.437 139.825,73.437" style="fill:none;stroke-width:0.050000mm;stroke:black"/>
<polygon points="168.687,73.437 168.687,87.437 182.687,87.437 182.687,73.437" style="fill:none;stroke-width:0.050000mm;stroke:black"/>
<polygon points="187.737,73.437 187.737,87.437 201.737,87.437 201.737,73.437" style="fill:none;stroke-width:0.050000mm;stroke:black"/>
<polygon points="206.787,73.437 206.787,87.437 220.787,87.437 220.787,73.437" style="fill:none;stroke-width:0.050000mm;stroke:black"/>
<polygon points="225.837,73.437 225.837,87.437 239.837,87.437 239.837,73.437" style="fill:none;stroke-width:0.050000mm;stroke:black"/>
<polygon points="244.887,73.437 244.887,87.437 258.887,87.437 258.887,73.437" style="fill:none;stroke-width:0.050000mm;stroke:black"/>
<polygon points="263.937,73.437 263.937,87.437 277.937,87.437 277.937,73.437" style="fill:none;stroke-width:0.050000mm;stroke:black"/>
<polygon points="282.987,73.437 282.987,87.437 296.987,87.437 296.987,73.437" style="fill:none;stroke-width:0.050000mm;stroke:black"/>
<polygon points="11.524,54.387 11.524,68.387 25.525,68.387 25.525,54.387" style="fill:none;stroke-width:0.050000mm;stroke:black"/>
<polygon points="30.575,54.387 30.575,68.387 44.575,68.387 44.575,54.387" style="fill:none;stroke-width:0.050000mm;stroke:black"/>
<polygon points="49.625,54.387 49.625,68.387 63.625,68.387 63.625,54.387" style="fill:none;stroke-width:0.050000mm;stroke:black"/>
<polygon points="68.675,54.387 68.675,68.387 82.675,68.387 82.675,54.387" style="fill:none;stroke-width:0.050000mm;stroke:black"/>
<polygon points="87.725,54.387 87.725,68.387 101.725,68.387 101.725,54.387" style="fill:none;stroke-width:0.050000mm;stroke:black"/>
<polygon points="106.774,54.387 106.774,68.387 120.774,68.387 120.774,54.387" style="fill:none;stroke-width:0.050000mm;stroke:black"/>
<polygon points="125.824,54.387 125.824,68.387 139.825,68.387 139.825,54.387" style="fill:none;stroke-width:0.050000mm;stroke:black"/>
<polygon points="168.687,54.387 168.687,68.387 182.687,68.387 182.687,54.387" style="fill:none;stroke-width:0.050000mm;stroke:black"/>
<polygon points="187.737,54.387 187.737,68.387 201.737,68.387 201.737,54.387" style="fill:none;stroke-width:0.050000mm;stroke:black"/>
<polygon points="206.787,54.387 206.787,68.387 220.787,68.387 220.787,54.387" style="fill:none;stroke-width:0.050000mm;stroke:black"/>
<polygon points="225.837,54.387 225.837,68.387 239.837,68.387 239.837,54.387" style="fill:none;stroke-width:0.050000mm;stroke:black"/>
<polygon points="244.887,54.387 244.887,68.387 258.887,68.387 258.887,54.387" style="fill:none;stroke-width:0.050000mm;stroke:black"/>
<polygon points="263.937,54.387 263.937,68.387 277.937,68.387 277.937,54.387" style="fill:none;stroke-width:0.050000mm;stroke:black"/>
<polygon points="282.987,54.387 282.987,68.387 296.987,68.387 296.987,54.387" style="fill:none;stroke-width:0.050000mm;stroke:black"/>
<polygon points="11.524,35.337 11.524,49.337 25.525,49.337 25.525,35.337" style="fill:none;stroke-width:0.050000mm;stroke:black"/>
<polygon points="30.575,35.337 30.575,49.337 44.575,49.337 44.575,35.337" style="fill:none;stroke-width:0.050000mm;stroke:black"/>
<polygon points="49.625,35.337 49.625,49.337 63.625,49.337 63.625,35.337" style="fill:none;stroke-width:0.050000mm;stroke:black"/>
<polygon points="68.675,35.337 68.675,49.337 82.675,49.337 82.675,35.337" style="fill:none;stroke-width:0.050000mm;stroke:black"/>
<polygon points="87.725,35.337 87.725,49.337 101.725,49.337 101.725,35.337" style="fill:none;stroke-width:0.050000mm;stroke:black"/>
<polygon points="106.774,35.337 106.774,49.337 120.774,49.337 120.774,35.337" style="fill:none;stroke-width:0.050000mm;stroke:black"/>
<polygon points="125.824,35.337 125.824,49.337 139.825,49.337 139.825,35.337" style="fill:none;stroke-width:0.050000mm;stroke:black"/>
<polygon points="168.687,35.337 168.687,49.337 182.687,49.337 182.687,35.337" style="fill:none;stroke-width:0.050000mm;stroke:black"/>
<polygon points="187.737,35.337 187.737,49.337 201.737,49.337 201.737,35.337" style="fill:none;stroke-width:0.050000mm;stroke:black"/>
<polygon points="206.787,35.337 206.787,49.337 220.787,49.337 220.787,35.337" style="fill:none;stroke-width:0.050000mm;stroke:black"/>
<polygon points="225.837,35.337 225.837,49.337 239.837,49.337 239.837,35.337" style="fill:none;stroke-width:0.050000mm;stroke:black"/>
<polygon points="244.887,35.337 244.887,49.337 258.887,49.337 258.887,35.337" style="fill:none;stroke-width:0.050000mm;stroke:black"/>
<polygon points="263.937,35.337 263.937,49.337 277.937,49.337 277.937,35.337" style="fill:none;stroke-width:0.050000mm;stroke:black"/>
<polygon points="282.987,35.337 282.987,49.337 296.987,49.337 296.987,35.337" style="fill:none;stroke-width:0.050000mm;stroke:black"/>
</svg>
