solid Untitled-5959bd15
facet normal -1.0 0.0 0.0
  outer loop
    vertex -18.525 -185.45 1.127986593019159e-14
    vertex -18.525 -204.45 -1.4999999999999973
    vertex -18.525 -204.45000000000002 0.0
  endloop
endfacet
facet normal -1.0 0.0 0.0
  outer loop
    vertex -18.525 -204.45 -1.4999999999999973
    vertex -18.525 -185.45 1.127986593019159e-14
    vertex -18.525 -164.89999999999992 -1.4999999999999634
  endloop
endfacet
facet normal -1.0 0.0 0.0
  outer loop
    vertex -18.525 -164.89999999999992 -1.4999999999999634
    vertex -18.525 -185.45 1.127986593019159e-14
    vertex -18.525 -183.44999999999996 0.0
  endloop
endfacet
facet normal -1.0 0.0 0.0
  outer loop
    vertex -18.525 -183.44999999999996 0.0
    vertex -18.525 -185.45 1.127986593019159e-14
    vertex -18.525 -185.44999999999996 4.900000000000025
  endloop
endfacet
facet normal -1.0 0.0 0.0
  outer loop
    vertex -18.525 -183.44999999999996 0.0
    vertex -18.525 -185.44999999999996 4.900000000000025
    vertex -18.525 -183.45000000000002 4.900000000000014
  endloop
endfacet
facet normal -1.0 0.0 0.0
  outer loop
    vertex -18.525 -164.89999999999992 -1.4999999999999634
    vertex -18.525 -183.44999999999996 0.0
    vertex -18.525 -164.89999999999992 6.767919558114953e-14
  endloop
endfacet
facet normal 0.0 -1.0 -2.220446049250313e-16
  outer loop
    vertex 18.525 -204.45000000000002 0.0
    vertex -18.525 -204.45 -1.4999999999999973
    vertex 18.525 -204.45 -1.4999999999999973
  endloop
endfacet
facet normal 0.0 -1.0 -2.220446049250313e-16
  outer loop
    vertex -18.525 -204.45 -1.4999999999999973
    vertex 18.525 -204.45000000000002 0.0
    vertex -18.525 -204.45000000000002 0.0
  endloop
endfacet
facet normal 1.0 0.0 0.0
  outer loop
    vertex 18.525 -204.45 -1.4999999999999973
    vertex 18.525 -185.45 1.127986593019159e-14
    vertex 18.525 -204.45000000000002 0.0
  endloop
endfacet
facet normal 1.0 0.0 0.0
  outer loop
    vertex 18.525 -185.45 1.127986593019159e-14
    vertex 18.525 -204.45 -1.4999999999999973
    vertex 18.525 -164.89999999999992 -1.4999999999999634
  endloop
endfacet
facet normal 1.0 0.0 0.0
  outer loop
    vertex 18.525 -185.45 1.127986593019159e-14
    vertex 18.525 -164.89999999999992 -1.4999999999999634
    vertex 18.525 -183.44999999999996 0.0
  endloop
endfacet
facet normal 1.0 0.0 0.0
  outer loop
    vertex 18.525 -185.45 1.127986593019159e-14
    vertex 18.525 -183.44999999999996 0.0
    vertex 18.525 -185.44999999999996 4.900000000000025
  endloop
endfacet
facet normal 1.0 0.0 0.0
  outer loop
    vertex 18.525 -185.44999999999996 4.900000000000025
    vertex 18.525 -183.44999999999996 0.0
    vertex 18.525 -183.45000000000002 4.900000000000014
  endloop
endfacet
facet normal 1.0 0.0 0.0
  outer loop
    vertex 18.525 -183.44999999999996 0.0
    vertex 18.525 -164.89999999999992 -1.4999999999999634
    vertex 18.525 -164.89999999999992 6.767919558114953e-14
  endloop
endfacet
facet normal -1.0 0.0 0.0
  outer loop
    vertex -2.125 -182.29999999999995 -1.127986593019159e-14
    vertex -2.125 -167.49999999999991 -1.4999999999999296
    vertex -2.125 -182.29999999999998 -1.5000000000000084
  endloop
endfacet
facet normal -1.0 0.0 0.0
  outer loop
    vertex -2.125 -167.49999999999991 -1.4999999999999296
    vertex -2.125 -182.29999999999995 -1.127986593019159e-14
    vertex -2.125 -167.5 1.127986593019159e-14
  endloop
endfacet
facet normal 0.0 1.0 2.220446049250313e-16
  outer loop
    vertex -16.925 -182.29999999999995 -1.127986593019159e-14
    vertex -2.125 -182.29999999999998 -1.5000000000000084
    vertex -16.925 -182.29999999999998 -1.5000000000000084
  endloop
endfacet
facet normal 0.0 1.0 2.220446049250313e-16
  outer loop
    vertex -2.125 -182.29999999999998 -1.5000000000000084
    vertex -16.925 -182.29999999999995 -1.127986593019159e-14
    vertex -2.125 -182.29999999999995 -1.127986593019159e-14
  endloop
endfacet
facet normal 1.0 0.0 0.0
  outer loop
    vertex -16.925 -167.49999999999991 -1.4999999999999296
    vertex -16.925 -182.29999999999995 -1.127986593019159e-14
    vertex -16.925 -182.29999999999998 -1.5000000000000084
  endloop
endfacet
facet normal 1.0 0.0 0.0
  outer loop
    vertex -16.925 -182.29999999999995 -1.127986593019159e-14
    vertex -16.925 -167.49999999999991 -1.4999999999999296
    vertex -16.925 -167.5 1.127986593019159e-14
  endloop
endfacet
facet normal 0.0 -1.0 -2.220446049250313e-16
  outer loop
    vertex -2.125 -167.5 1.127986593019159e-14
    vertex -16.925 -167.49999999999991 -1.4999999999999296
    vertex -2.125 -167.49999999999991 -1.4999999999999296
  endloop
endfacet
facet normal 0.0 -1.0 -2.220446049250313e-16
  outer loop
    vertex -16.925 -167.49999999999991 -1.4999999999999296
    vertex -2.125 -167.5 1.127986593019159e-14
    vertex -16.925 -167.5 1.127986593019159e-14
  endloop
endfacet
facet normal 0.0 -1.0 -2.220446049250313e-16
  outer loop
    vertex 16.925 -167.5 1.127986593019159e-14
    vertex 2.125 -167.49999999999991 -1.4999999999999296
    vertex 16.925 -167.49999999999991 -1.4999999999999296
  endloop
endfacet
facet normal 0.0 -1.0 -2.220446049250313e-16
  outer loop
    vertex 2.125 -167.49999999999991 -1.4999999999999296
    vertex 16.925 -167.5 1.127986593019159e-14
    vertex 2.125 -167.5 1.127986593019159e-14
  endloop
endfacet
facet normal 1.0 0.0 0.0
  outer loop
    vertex 2.125 -186.54999999999995 -1.5000000000000084
    vertex 2.125 -201.34999999999994 1.127986593019159e-14
    vertex 2.125 -201.34999999999994 -1.5000000000000084
  endloop
endfacet
facet normal 1.0 0.0 0.0
  outer loop
    vertex 2.125 -201.34999999999994 1.127986593019159e-14
    vertex 2.125 -186.54999999999995 -1.5000000000000084
    vertex 2.125 -186.54999999999993 2.255973186038318e-14
  endloop
endfacet
facet normal 0.0 1.0 2.220446049250313e-16
  outer loop
    vertex -16.925 -201.34999999999994 1.127986593019159e-14
    vertex -2.125 -201.34999999999994 -1.5000000000000084
    vertex -16.925 -201.34999999999994 -1.5000000000000084
  endloop
endfacet
facet normal 0.0 1.0 2.220446049250313e-16
  outer loop
    vertex -2.125 -201.34999999999994 -1.5000000000000084
    vertex -16.925 -201.34999999999994 1.127986593019159e-14
    vertex -2.125 -201.34999999999994 1.127986593019159e-14
  endloop
endfacet
facet normal -1.0 0.0 0.0
  outer loop
    vertex 16.925 -186.54999999999993 2.255973186038318e-14
    vertex 16.925 -201.34999999999994 -1.5000000000000084
    vertex 16.925 -201.34999999999994 1.127986593019159e-14
  endloop
endfacet
facet normal -1.0 0.0 0.0
  outer loop
    vertex 16.925 -201.34999999999994 -1.5000000000000084
    vertex 16.925 -186.54999999999993 2.255973186038318e-14
    vertex 16.925 -186.54999999999995 -1.5000000000000084
  endloop
endfacet
facet normal 1.0 0.0 0.0
  outer loop
    vertex 2.125 -167.49999999999991 -1.4999999999999296
    vertex 2.125 -182.29999999999995 -1.127986593019159e-14
    vertex 2.125 -182.29999999999998 -1.5000000000000084
  endloop
endfacet
facet normal 1.0 0.0 0.0
  outer loop
    vertex 2.125 -182.29999999999995 -1.127986593019159e-14
    vertex 2.125 -167.49999999999991 -1.4999999999999296
    vertex 2.125 -167.5 1.127986593019159e-14
  endloop
endfacet
facet normal 0.0 -1.0 -2.220446049250313e-16
  outer loop
    vertex -2.125 -186.54999999999993 2.255973186038318e-14
    vertex -16.925 -186.54999999999995 -1.5000000000000084
    vertex -2.125 -186.54999999999995 -1.5000000000000084
  endloop
endfacet
facet normal 0.0 -1.0 -2.220446049250313e-16
  outer loop
    vertex -16.925 -186.54999999999995 -1.5000000000000084
    vertex -2.125 -186.54999999999993 2.255973186038318e-14
    vertex -16.925 -186.54999999999993 2.255973186038318e-14
  endloop
endfacet
facet normal 0.0 1.0 2.220446049250313e-16
  outer loop
    vertex 2.125 -201.34999999999994 1.127986593019159e-14
    vertex 16.925 -201.34999999999994 -1.5000000000000084
    vertex 2.125 -201.34999999999994 -1.5000000000000084
  endloop
endfacet
facet normal 0.0 1.0 2.220446049250313e-16
  outer loop
    vertex 16.925 -201.34999999999994 -1.5000000000000084
    vertex 2.125 -201.34999999999994 1.127986593019159e-14
    vertex 16.925 -201.34999999999994 1.127986593019159e-14
  endloop
endfacet
facet normal -1.0 0.0 0.0
  outer loop
    vertex -2.125 -186.54999999999993 2.255973186038318e-14
    vertex -2.125 -201.34999999999994 -1.5000000000000084
    vertex -2.125 -201.34999999999994 1.127986593019159e-14
  endloop
endfacet
facet normal -1.0 0.0 0.0
  outer loop
    vertex -2.125 -201.34999999999994 -1.5000000000000084
    vertex -2.125 -186.54999999999993 2.255973186038318e-14
    vertex -2.125 -186.54999999999995 -1.5000000000000084
  endloop
endfacet
facet normal 1.0 0.0 0.0
  outer loop
    vertex -16.925 -186.54999999999995 -1.5000000000000084
    vertex -16.925 -201.34999999999994 1.127986593019159e-14
    vertex -16.925 -201.34999999999994 -1.5000000000000084
  endloop
endfacet
facet normal 1.0 0.0 0.0
  outer loop
    vertex -16.925 -201.34999999999994 1.127986593019159e-14
    vertex -16.925 -186.54999999999995 -1.5000000000000084
    vertex -16.925 -186.54999999999993 2.255973186038318e-14
  endloop
endfacet
facet normal -1.0 0.0 0.0
  outer loop
    vertex 16.925 -182.29999999999995 -1.127986593019159e-14
    vertex 16.925 -167.49999999999991 -1.4999999999999296
    vertex 16.925 -182.29999999999998 -1.5000000000000084
  endloop
endfacet
facet normal -1.0 0.0 0.0
  outer loop
    vertex 16.925 -167.49999999999991 -1.4999999999999296
    vertex 16.925 -182.29999999999995 -1.127986593019159e-14
    vertex 16.925 -167.5 1.127986593019159e-14
  endloop
endfacet
facet normal 0.0 1.0 2.220446049250313e-16
  outer loop
    vertex 2.125 -182.29999999999995 -1.127986593019159e-14
    vertex 16.925 -182.29999999999998 -1.5000000000000084
    vertex 2.125 -182.29999999999998 -1.5000000000000084
  endloop
endfacet
facet normal 0.0 1.0 2.220446049250313e-16
  outer loop
    vertex 16.925 -182.29999999999998 -1.5000000000000084
    vertex 2.125 -182.29999999999995 -1.127986593019159e-14
    vertex 16.925 -182.29999999999995 -1.127986593019159e-14
  endloop
endfacet
facet normal 0.0 2.220446049250313e-16 -1.0
  outer loop
    vertex -18.525 -164.89999999999992 -1.4999999999999634
    vertex -16.925 -167.49999999999991 -1.4999999999999296
    vertex -18.525 -204.45 -1.4999999999999973
  endloop
endfacet
facet normal 0.0 2.220446049250313e-16 -1.0
  outer loop
    vertex -16.925 -167.49999999999991 -1.4999999999999296
    vertex -18.525 -164.89999999999992 -1.4999999999999634
    vertex 18.525 -164.89999999999992 -1.4999999999999634
  endloop
endfacet
facet normal 0.0 2.220446049250313e-16 -1.0
  outer loop
    vertex -16.925 -167.49999999999991 -1.4999999999999296
    vertex 18.525 -164.89999999999992 -1.4999999999999634
    vertex -2.125 -167.49999999999991 -1.4999999999999296
  endloop
endfacet
facet normal 0.0 2.220446049250313e-16 -1.0
  outer loop
    vertex -2.125 -167.49999999999991 -1.4999999999999296
    vertex 18.525 -164.89999999999992 -1.4999999999999634
    vertex 2.125 -167.49999999999991 -1.4999999999999296
  endloop
endfacet
facet normal 0.0 2.220446049250313e-16 -1.0
  outer loop
    vertex -2.125 -167.49999999999991 -1.4999999999999296
    vertex 2.125 -167.49999999999991 -1.4999999999999296
    vertex -2.125 -182.29999999999998 -1.5000000000000084
  endloop
endfacet
facet normal 0.0 2.220446049250313e-16 -1.0
  outer loop
    vertex -2.125 -182.29999999999998 -1.5000000000000084
    vertex 2.125 -167.49999999999991 -1.4999999999999296
    vertex -2.125 -186.54999999999995 -1.5000000000000084
  endloop
endfacet
facet normal 0.0 2.220446049250313e-16 -1.0
  outer loop
    vertex -2.125 -186.54999999999995 -1.5000000000000084
    vertex 2.125 -167.49999999999991 -1.4999999999999296
    vertex -2.125 -201.34999999999994 -1.5000000000000084
  endloop
endfacet
facet normal 0.0 2.220446049250313e-16 -1.0
  outer loop
    vertex 2.125 -167.49999999999991 -1.4999999999999296
    vertex 18.525 -164.89999999999992 -1.4999999999999634
    vertex 16.925 -167.49999999999991 -1.4999999999999296
  endloop
endfacet
facet normal 0.0 2.220446049250313e-16 -1.0
  outer loop
    vertex 16.925 -167.49999999999991 -1.4999999999999296
    vertex 18.525 -164.89999999999992 -1.4999999999999634
    vertex 16.925 -182.29999999999998 -1.5000000000000084
  endloop
endfacet
facet normal 0.0 2.220446049250313e-16 -1.0
  outer loop
    vertex 16.925 -182.29999999999998 -1.5000000000000084
    vertex 18.525 -164.89999999999992 -1.4999999999999634
    vertex 16.925 -186.54999999999995 -1.5000000000000084
  endloop
endfacet
facet normal 0.0 2.220446049250313e-16 -1.0
  outer loop
    vertex 16.925 -186.54999999999995 -1.5000000000000084
    vertex 18.525 -164.89999999999992 -1.4999999999999634
    vertex 16.925 -201.34999999999994 -1.5000000000000084
  endloop
endfacet
facet normal 0.0 2.220446049250313e-16 -1.0
  outer loop
    vertex -18.525 -204.45 -1.4999999999999973
    vertex -16.925 -201.34999999999994 -1.5000000000000084
    vertex 18.525 -204.45 -1.4999999999999973
  endloop
endfacet
facet normal 0.0 2.220446049250313e-16 -1.0
  outer loop
    vertex -16.925 -201.34999999999994 -1.5000000000000084
    vertex -18.525 -204.45 -1.4999999999999973
    vertex -16.925 -167.49999999999991 -1.4999999999999296
  endloop
endfacet
facet normal 0.0 2.220446049250313e-16 -1.0
  outer loop
    vertex -16.925 -201.34999999999994 -1.5000000000000084
    vertex -16.925 -167.49999999999991 -1.4999999999999296
    vertex -16.925 -182.29999999999998 -1.5000000000000084
  endloop
endfacet
facet normal 0.0 2.220446049250313e-16 -1.0
  outer loop
    vertex -16.925 -201.34999999999994 -1.5000000000000084
    vertex -16.925 -182.29999999999998 -1.5000000000000084
    vertex -16.925 -186.54999999999995 -1.5000000000000084
  endloop
endfacet
facet normal 0.0 2.220446049250313e-16 -1.0
  outer loop
    vertex 18.525 -204.45 -1.4999999999999973
    vertex -16.925 -201.34999999999994 -1.5000000000000084
    vertex -2.125 -201.34999999999994 -1.5000000000000084
  endloop
endfacet
facet normal 0.0 2.220446049250313e-16 -1.0
  outer loop
    vertex 18.525 -204.45 -1.4999999999999973
    vertex -2.125 -201.34999999999994 -1.5000000000000084
    vertex 2.125 -201.34999999999994 -1.5000000000000084
  endloop
endfacet
facet normal 0.0 2.220446049250313e-16 -1.0
  outer loop
    vertex 2.125 -201.34999999999994 -1.5000000000000084
    vertex -2.125 -201.34999999999994 -1.5000000000000084
    vertex 2.125 -167.49999999999991 -1.4999999999999296
  endloop
endfacet
facet normal 0.0 2.220446049250313e-16 -1.0
  outer loop
    vertex 2.125 -201.34999999999994 -1.5000000000000084
    vertex 2.125 -167.49999999999991 -1.4999999999999296
    vertex 2.125 -182.29999999999998 -1.5000000000000084
  endloop
endfacet
facet normal 0.0 2.220446049250313e-16 -1.0
  outer loop
    vertex 2.125 -201.34999999999994 -1.5000000000000084
    vertex 2.125 -182.29999999999998 -1.5000000000000084
    vertex 2.125 -186.54999999999995 -1.5000000000000084
  endloop
endfacet
facet normal 0.0 2.220446049250313e-16 -1.0
  outer loop
    vertex 18.525 -204.45 -1.4999999999999973
    vertex 2.125 -201.34999999999994 -1.5000000000000084
    vertex 16.925 -201.34999999999994 -1.5000000000000084
  endloop
endfacet
facet normal 0.0 2.220446049250313e-16 -1.0
  outer loop
    vertex 18.525 -204.45 -1.4999999999999973
    vertex 16.925 -201.34999999999994 -1.5000000000000084
    vertex 18.525 -164.89999999999992 -1.4999999999999634
  endloop
endfacet
facet normal 0.0 2.220446049250313e-16 -1.0
  outer loop
    vertex 16.925 -182.29999999999998 -1.5000000000000084
    vertex 2.125 -186.54999999999995 -1.5000000000000084
    vertex 2.125 -182.29999999999998 -1.5000000000000084
  endloop
endfacet
facet normal 0.0 2.220446049250313e-16 -1.0
  outer loop
    vertex 2.125 -186.54999999999995 -1.5000000000000084
    vertex 16.925 -182.29999999999998 -1.5000000000000084
    vertex 16.925 -186.54999999999995 -1.5000000000000084
  endloop
endfacet
facet normal 0.0 2.220446049250313e-16 -1.0
  outer loop
    vertex -2.125 -182.29999999999998 -1.5000000000000084
    vertex -16.925 -186.54999999999995 -1.5000000000000084
    vertex -16.925 -182.29999999999998 -1.5000000000000084
  endloop
endfacet
facet normal 0.0 2.220446049250313e-16 -1.0
  outer loop
    vertex -16.925 -186.54999999999995 -1.5000000000000084
    vertex -2.125 -182.29999999999998 -1.5000000000000084
    vertex -2.125 -186.54999999999995 -1.5000000000000084
  endloop
endfacet
facet normal 0.0 -1.0 -2.220446049250313e-16
  outer loop
    vertex 16.925 -186.54999999999993 2.255973186038318e-14
    vertex 2.125 -186.54999999999995 -1.5000000000000084
    vertex 16.925 -186.54999999999995 -1.5000000000000084
  endloop
endfacet
facet normal 0.0 -1.0 -2.220446049250313e-16
  outer loop
    vertex 2.125 -186.54999999999995 -1.5000000000000084
    vertex 16.925 -186.54999999999993 2.255973186038318e-14
    vertex 2.125 -186.54999999999993 2.255973186038318e-14
  endloop
endfacet
facet normal 0.0 -2.220446049250313e-16 1.0
  outer loop
    vertex -18.525 -183.44999999999996 0.0
    vertex -16.925 -182.29999999999995 -1.127986593019159e-14
    vertex -18.525 -164.89999999999992 6.767919558114953e-14
  endloop
endfacet
facet normal 0.0 -2.220446049250313e-16 1.0
  outer loop
    vertex -16.925 -182.29999999999995 -1.127986593019159e-14
    vertex -18.525 -183.44999999999996 0.0
    vertex -0.975 -183.44999999999996 0.0
  endloop
endfacet
facet normal 0.0 -2.220446049250313e-16 1.0
  outer loop
    vertex -16.925 -182.29999999999995 -1.127986593019159e-14
    vertex -0.975 -183.44999999999996 0.0
    vertex -2.125 -182.29999999999995 -1.127986593019159e-14
  endloop
endfacet
facet normal 0.0 -2.220446049250313e-16 1.0
  outer loop
    vertex -2.125 -182.29999999999995 -1.127986593019159e-14
    vertex -0.975 -183.44999999999996 0.0
    vertex -2.125 -167.5 1.127986593019159e-14
  endloop
endfacet
facet normal 0.0 -2.220446049250313e-16 1.0
  outer loop
    vertex 1.025 -183.44999999999996 0.0
    vertex 2.125 -182.29999999999995 -1.127986593019159e-14
    vertex 1.025 -165.44999999999993 3.3839597790574766e-14
  endloop
endfacet
facet normal 0.0 -2.220446049250313e-16 1.0
  outer loop
    vertex 2.125 -182.29999999999995 -1.127986593019159e-14
    vertex 1.025 -183.44999999999996 0.0
    vertex 18.525 -183.44999999999996 0.0
  endloop
endfacet
facet normal 0.0 -2.220446049250313e-16 1.0
  outer loop
    vertex 2.125 -182.29999999999995 -1.127986593019159e-14
    vertex 18.525 -183.44999999999996 0.0
    vertex 16.925 -182.29999999999995 -1.127986593019159e-14
  endloop
endfacet
facet normal 0.0 -2.220446049250313e-16 1.0
  outer loop
    vertex 16.925 -182.29999999999995 -1.127986593019159e-14
    vertex 18.525 -183.44999999999996 0.0
    vertex 16.925 -167.5 1.127986593019159e-14
  endloop
endfacet
facet normal 0.0 -2.220446049250313e-16 1.0
  outer loop
    vertex -18.525 -164.89999999999992 6.767919558114953e-14
    vertex -0.975 -165.44999999999993 3.3839597790574766e-14
    vertex 18.525 -164.89999999999992 6.767919558114953e-14
  endloop
endfacet
facet normal 0.0 -2.220446049250313e-16 1.0
  outer loop
    vertex -0.975 -165.44999999999993 3.3839597790574766e-14
    vertex -18.525 -164.89999999999992 6.767919558114953e-14
    vertex -16.925 -167.5 1.127986593019159e-14
  endloop
endfacet
facet normal 0.0 -2.220446049250313e-16 1.0
  outer loop
    vertex -16.925 -167.5 1.127986593019159e-14
    vertex -18.525 -164.89999999999992 6.767919558114953e-14
    vertex -16.925 -182.29999999999995 -1.127986593019159e-14
  endloop
endfacet
facet normal 0.0 -2.220446049250313e-16 1.0
  outer loop
    vertex -0.975 -165.44999999999993 3.3839597790574766e-14
    vertex -16.925 -167.5 1.127986593019159e-14
    vertex -2.125 -167.5 1.127986593019159e-14
  endloop
endfacet
facet normal 0.0 -2.220446049250313e-16 1.0
  outer loop
    vertex -0.975 -165.44999999999993 3.3839597790574766e-14
    vertex -2.125 -167.5 1.127986593019159e-14
    vertex -0.975 -183.44999999999996 0.0
  endloop
endfacet
facet normal 0.0 -2.220446049250313e-16 1.0
  outer loop
    vertex 18.525 -164.89999999999992 6.767919558114953e-14
    vertex -0.975 -165.44999999999993 3.3839597790574766e-14
    vertex 1.025 -165.44999999999993 3.3839597790574766e-14
  endloop
endfacet
facet normal 0.0 -2.220446049250313e-16 1.0
  outer loop
    vertex 18.525 -164.89999999999992 6.767919558114953e-14
    vertex 1.025 -165.44999999999993 3.3839597790574766e-14
    vertex 2.125 -167.5 1.127986593019159e-14
  endloop
endfacet
facet normal 0.0 -2.220446049250313e-16 1.0
  outer loop
    vertex 2.125 -167.5 1.127986593019159e-14
    vertex 1.025 -165.44999999999993 3.3839597790574766e-14
    vertex 2.125 -182.29999999999995 -1.127986593019159e-14
  endloop
endfacet
facet normal 0.0 -2.220446049250313e-16 1.0
  outer loop
    vertex 18.525 -164.89999999999992 6.767919558114953e-14
    vertex 2.125 -167.5 1.127986593019159e-14
    vertex 16.925 -167.5 1.127986593019159e-14
  endloop
endfacet
facet normal 0.0 -2.220446049250313e-16 1.0
  outer loop
    vertex 18.525 -164.89999999999992 6.767919558114953e-14
    vertex 16.925 -167.5 1.127986593019159e-14
    vertex 18.525 -183.44999999999996 0.0
  endloop
endfacet
facet normal 0.0 1.0 2.220446049250313e-16
  outer loop
    vertex -18.525 -164.89999999999992 6.767919558114953e-14
    vertex 18.525 -164.89999999999992 -1.4999999999999634
    vertex -18.525 -164.89999999999992 -1.4999999999999634
  endloop
endfacet
facet normal 0.0 1.0 2.220446049250313e-16
  outer loop
    vertex 18.525 -164.89999999999992 -1.4999999999999634
    vertex -18.525 -164.89999999999992 6.767919558114953e-14
    vertex 18.525 -164.89999999999992 6.767919558114953e-14
  endloop
endfacet
facet normal 0.0 -1.0 -2.220446049250313e-16
  outer loop
    vertex 1.025 -203.45000000000002 4.899999999999923
    vertex -0.975 -203.45000000000002 -2.255973186038318e-14
    vertex 1.025 -203.45000000000002 -2.255973186038318e-14
  endloop
endfacet
facet normal 0.0 -1.0 -2.220446049250313e-16
  outer loop
    vertex -0.975 -203.45000000000002 -2.255973186038318e-14
    vertex 1.025 -203.45000000000002 4.899999999999923
    vertex -0.975 -203.45000000000002 4.899999999999923
  endloop
endfacet
facet normal 1.0 0.0 0.0
  outer loop
    vertex 1.025 -185.45 1.127986593019159e-14
    vertex 1.025 -203.45000000000002 4.899999999999923
    vertex 1.025 -203.45000000000002 -2.255973186038318e-14
  endloop
endfacet
facet normal 1.0 0.0 0.0
  outer loop
    vertex 1.025 -203.45000000000002 4.899999999999923
    vertex 1.025 -185.45 1.127986593019159e-14
    vertex 1.025 -185.44999999999996 4.900000000000025
  endloop
endfacet
facet normal -1.0 0.0 0.0
  outer loop
    vertex -0.975 -165.45000000000002 4.89999999999998
    vertex -0.975 -183.44999999999996 0.0
    vertex -0.975 -183.45000000000002 4.900000000000014
  endloop
endfacet
facet normal -1.0 0.0 0.0
  outer loop
    vertex -0.975 -183.44999999999996 0.0
    vertex -0.975 -165.45000000000002 4.89999999999998
    vertex -0.975 -165.44999999999993 3.3839597790574766e-14
  endloop
endfacet
facet normal 1.0 0.0 0.0
  outer loop
    vertex 1.025 -183.44999999999996 0.0
    vertex 1.025 -165.45000000000002 4.89999999999998
    vertex 1.025 -183.45000000000002 4.900000000000014
  endloop
endfacet
facet normal 1.0 0.0 0.0
  outer loop
    vertex 1.025 -165.45000000000002 4.89999999999998
    vertex 1.025 -183.44999999999996 0.0
    vertex 1.025 -165.44999999999993 3.3839597790574766e-14
  endloop
endfacet
facet normal 0.0 -2.220446049250313e-16 1.0
  outer loop
    vertex -18.525 -185.45 1.127986593019159e-14
    vertex -16.925 -186.54999999999993 2.255973186038318e-14
    vertex -0.975 -185.45 1.127986593019159e-14
  endloop
endfacet
facet normal 0.0 -2.220446049250313e-16 1.0
  outer loop
    vertex -16.925 -186.54999999999993 2.255973186038318e-14
    vertex -18.525 -185.45 1.127986593019159e-14
    vertex -16.925 -201.34999999999994 1.127986593019159e-14
  endloop
endfacet
facet normal 0.0 -2.220446049250313e-16 1.0
  outer loop
    vertex -0.975 -185.45 1.127986593019159e-14
    vertex -16.925 -186.54999999999993 2.255973186038318e-14
    vertex -2.125 -186.54999999999993 2.255973186038318e-14
  endloop
endfacet
facet normal 0.0 -2.220446049250313e-16 1.0
  outer loop
    vertex -0.975 -185.45 1.127986593019159e-14
    vertex -2.125 -186.54999999999993 2.255973186038318e-14
    vertex -0.975 -203.45000000000002 -2.255973186038318e-14
  endloop
endfacet
facet normal 0.0 -2.220446049250313e-16 1.0
  outer loop
    vertex -18.525 -204.45000000000002 0.0
    vertex -16.925 -201.34999999999994 1.127986593019159e-14
    vertex -18.525 -185.45 1.127986593019159e-14
  endloop
endfacet
facet normal 0.0 -2.220446049250313e-16 1.0
  outer loop
    vertex -16.925 -201.34999999999994 1.127986593019159e-14
    vertex -18.525 -204.45000000000002 0.0
    vertex -0.975 -203.45000000000002 -2.255973186038318e-14
  endloop
endfacet
facet normal 0.0 -2.220446049250313e-16 1.0
  outer loop
    vertex -0.975 -203.45000000000002 -2.255973186038318e-14
    vertex -18.525 -204.45000000000002 0.0
    vertex 18.525 -204.45000000000002 0.0
  endloop
endfacet
facet normal 0.0 -2.220446049250313e-16 1.0
  outer loop
    vertex -16.925 -201.34999999999994 1.127986593019159e-14
    vertex -0.975 -203.45000000000002 -2.255973186038318e-14
    vertex -2.125 -201.34999999999994 1.127986593019159e-14
  endloop
endfacet
facet normal 0.0 -2.220446049250313e-16 1.0
  outer loop
    vertex -2.125 -201.34999999999994 1.127986593019159e-14
    vertex -0.975 -203.45000000000002 -2.255973186038318e-14
    vertex -2.125 -186.54999999999993 2.255973186038318e-14
  endloop
endfacet
facet normal 0.0 -2.220446049250313e-16 1.0
  outer loop
    vertex -0.975 -203.45000000000002 -2.255973186038318e-14
    vertex 18.525 -204.45000000000002 0.0
    vertex 1.025 -203.45000000000002 -2.255973186038318e-14
  endloop
endfacet
facet normal 0.0 -2.220446049250313e-16 1.0
  outer loop
    vertex 1.025 -203.45000000000002 -2.255973186038318e-14
    vertex 18.525 -204.45000000000002 0.0
    vertex 2.125 -201.34999999999994 1.127986593019159e-14
  endloop
endfacet
facet normal 0.0 -2.220446049250313e-16 1.0
  outer loop
    vertex 1.025 -203.45000000000002 -2.255973186038318e-14
    vertex 2.125 -201.34999999999994 1.127986593019159e-14
    vertex 1.025 -185.45 1.127986593019159e-14
  endloop
endfacet
facet normal 0.0 -2.220446049250313e-16 1.0
  outer loop
    vertex 2.125 -201.34999999999994 1.127986593019159e-14
    vertex 18.525 -204.45000000000002 0.0
    vertex 16.925 -201.34999999999994 1.127986593019159e-14
  endloop
endfacet
facet normal 0.0 -2.220446049250313e-16 1.0
  outer loop
    vertex 16.925 -201.34999999999994 1.127986593019159e-14
    vertex 18.525 -204.45000000000002 0.0
    vertex 16.925 -186.54999999999993 2.255973186038318e-14
  endloop
endfacet
facet normal 0.0 -2.220446049250313e-16 1.0
  outer loop
    vertex 1.025 -185.45 1.127986593019159e-14
    vertex 2.125 -186.54999999999993 2.255973186038318e-14
    vertex 18.525 -185.45 1.127986593019159e-14
  endloop
endfacet
facet normal 0.0 -2.220446049250313e-16 1.0
  outer loop
    vertex 2.125 -186.54999999999993 2.255973186038318e-14
    vertex 1.025 -185.45 1.127986593019159e-14
    vertex 2.125 -201.34999999999994 1.127986593019159e-14
  endloop
endfacet
facet normal 0.0 -2.220446049250313e-16 1.0
  outer loop
    vertex 18.525 -185.45 1.127986593019159e-14
    vertex 2.125 -186.54999999999993 2.255973186038318e-14
    vertex 16.925 -186.54999999999993 2.255973186038318e-14
  endloop
endfacet
facet normal 0.0 -2.220446049250313e-16 1.0
  outer loop
    vertex 18.525 -185.45 1.127986593019159e-14
    vertex 16.925 -186.54999999999993 2.255973186038318e-14
    vertex 18.525 -204.45000000000002 0.0
  endloop
endfacet
facet normal -1.0 0.0 0.0
  outer loop
    vertex -0.975 -185.44999999999996 4.900000000000025
    vertex -0.975 -203.45000000000002 -2.255973186038318e-14
    vertex -0.975 -203.45000000000002 4.899999999999923
  endloop
endfacet
facet normal -1.0 0.0 0.0
  outer loop
    vertex -0.975 -203.45000000000002 -2.255973186038318e-14
    vertex -0.975 -185.44999999999996 4.900000000000025
    vertex -0.975 -185.45 1.127986593019159e-14
  endloop
endfacet
facet normal 0.0 -1.0 -2.220446049250313e-16
  outer loop
    vertex 18.525 -185.44999999999996 4.900000000000025
    vertex 1.025 -185.45 1.127986593019159e-14
    vertex 18.525 -185.45 1.127986593019159e-14
  endloop
endfacet
facet normal 0.0 -1.0 -2.220446049250313e-16
  outer loop
    vertex 1.025 -185.45 1.127986593019159e-14
    vertex 18.525 -185.44999999999996 4.900000000000025
    vertex 1.025 -185.44999999999996 4.900000000000025
  endloop
endfacet
facet normal 0.0 -1.0 -2.220446049250313e-16
  outer loop
    vertex -0.975 -185.44999999999996 4.900000000000025
    vertex -18.525 -185.45 1.127986593019159e-14
    vertex -0.975 -185.45 1.127986593019159e-14
  endloop
endfacet
facet normal 0.0 -1.0 -2.220446049250313e-16
  outer loop
    vertex -18.525 -185.45 1.127986593019159e-14
    vertex -0.975 -185.44999999999996 4.900000000000025
    vertex -18.525 -185.44999999999996 4.900000000000025
  endloop
endfacet
facet normal 0.0 -2.220446049250313e-16 1.0
  outer loop
    vertex 18.525 -185.44999999999996 4.900000000000025
    vertex 1.025 -183.45000000000002 4.900000000000014
    vertex 1.025 -185.44999999999996 4.900000000000025
  endloop
endfacet
facet normal 0.0 -2.220446049250313e-16 1.0
  outer loop
    vertex 1.025 -183.45000000000002 4.900000000000014
    vertex 18.525 -185.44999999999996 4.900000000000025
    vertex 18.525 -183.45000000000002 4.900000000000014
  endloop
endfacet
facet normal 0.0 -2.220446049250313e-16 1.0
  outer loop
    vertex 1.025 -203.45000000000002 4.899999999999923
    vertex -0.975 -185.44999999999996 4.900000000000025
    vertex -0.975 -203.45000000000002 4.899999999999923
  endloop
endfacet
facet normal 0.0 -2.220446049250313e-16 1.0
  outer loop
    vertex -0.975 -185.44999999999996 4.900000000000025
    vertex 1.025 -203.45000000000002 4.899999999999923
    vertex -0.975 -183.45000000000002 4.900000000000014
  endloop
endfacet
facet normal 0.0 -2.220446049250313e-16 1.0
  outer loop
    vertex -0.975 -183.45000000000002 4.900000000000014
    vertex 1.025 -203.45000000000002 4.899999999999923
    vertex -0.975 -165.45000000000002 4.89999999999998
  endloop
endfacet
facet normal 0.0 -2.220446049250313e-16 1.0
  outer loop
    vertex -0.975 -165.45000000000002 4.89999999999998
    vertex 1.025 -203.45000000000002 4.899999999999923
    vertex 1.025 -165.45000000000002 4.89999999999998
  endloop
endfacet
facet normal 0.0 -2.220446049250313e-16 1.0
  outer loop
    vertex 1.025 -165.45000000000002 4.89999999999998
    vertex 1.025 -203.45000000000002 4.899999999999923
    vertex 1.025 -185.44999999999996 4.900000000000025
  endloop
endfacet
facet normal 0.0 -2.220446049250313e-16 1.0
  outer loop
    vertex 1.025 -165.45000000000002 4.89999999999998
    vertex 1.025 -185.44999999999996 4.900000000000025
    vertex 1.025 -183.45000000000002 4.900000000000014
  endloop
endfacet
facet normal 0.0 -2.220446049250313e-16 1.0
  outer loop
    vertex -0.975 -185.44999999999996 4.900000000000025
    vertex -18.525 -183.45000000000002 4.900000000000014
    vertex -18.525 -185.44999999999996 4.900000000000025
  endloop
endfacet
facet normal 0.0 -2.220446049250313e-16 1.0
  outer loop
    vertex -18.525 -183.45000000000002 4.900000000000014
    vertex -0.975 -185.44999999999996 4.900000000000025
    vertex -0.975 -183.45000000000002 4.900000000000014
  endloop
endfacet
facet normal 0.0 1.0 2.220446049250313e-16
  outer loop
    vertex -18.525 -183.45000000000002 4.900000000000014
    vertex -0.975 -183.44999999999996 0.0
    vertex -18.525 -183.44999999999996 0.0
  endloop
endfacet
facet normal 0.0 1.0 2.220446049250313e-16
  outer loop
    vertex -0.975 -183.44999999999996 0.0
    vertex -18.525 -183.45000000000002 4.900000000000014
    vertex -0.975 -183.45000000000002 4.900000000000014
  endloop
endfacet
facet normal 0.0 1.0 2.220446049250313e-16
  outer loop
    vertex 1.025 -183.45000000000002 4.900000000000014
    vertex 18.525 -183.44999999999996 0.0
    vertex 1.025 -183.44999999999996 0.0
  endloop
endfacet
facet normal 0.0 1.0 2.220446049250313e-16
  outer loop
    vertex 18.525 -183.44999999999996 0.0
    vertex 1.025 -183.45000000000002 4.900000000000014
    vertex 18.525 -183.45000000000002 4.900000000000014
  endloop
endfacet
facet normal 0.0 1.0 2.220446049250313e-16
  outer loop
    vertex -0.975 -165.45000000000002 4.89999999999998
    vertex 1.025 -165.44999999999993 3.3839597790574766e-14
    vertex -0.975 -165.44999999999993 3.3839597790574766e-14
  endloop
endfacet
facet normal 0.0 1.0 2.220446049250313e-16
  outer loop
    vertex 1.025 -165.44999999999993 3.3839597790574766e-14
    vertex -0.975 -165.45000000000002 4.89999999999998
    vertex 1.025 -165.45000000000002 4.89999999999998
  endloop
endfacet
endsolid Untitled-5959bd15
