solid microcontrollerholder
facet normal 1.0 -0.0 -0.0
  outer loop
    vertex 1.7500000000000138 38.50000000000009 2.5
    vertex 1.7500000000000138 35.49999999999978 5.0
    vertex 1.7500000000000138 35.49999999999978 2.5
  endloop
endfacet
facet normal 1.0 -0.0 -0.0
  outer loop
    vertex 1.7500000000000138 35.49999999999978 5.0
    vertex 1.7500000000000138 38.50000000000009 2.5
    vertex 1.7500000000000138 38.50000000000009 5.0
  endloop
endfacet
facet normal 0.0 0.0 -1.0
  outer loop
    vertex 9.25000000000003 38.50000000000009 5.0
    vertex 1.7500000000000138 35.49999999999978 5.0
    vertex 1.7500000000000138 38.50000000000009 5.0
  endloop
endfacet
facet normal 0.0 0.0 -1.0
  outer loop
    vertex 1.7500000000000138 35.49999999999978 5.0
    vertex 9.25000000000003 38.50000000000009 5.0
    vertex 9.25000000000003 35.49999999999978 5.0
  endloop
endfacet
facet normal -1.0 0.0 0.0
  outer loop
    vertex 9.25000000000003 38.50000000000009 5.0
    vertex 9.25000000000003 35.49999999999978 2.5
    vertex 9.25000000000003 35.49999999999978 5.0
  endloop
endfacet
facet normal -1.0 0.0 0.0
  outer loop
    vertex 9.25000000000003 35.49999999999978 2.5
    vertex 9.25000000000003 38.50000000000009 5.0
    vertex 9.25000000000003 38.50000000000009 2.5
  endloop
endfacet
facet normal -0.0 -0.0 1.0
  outer loop
    vertex 9.25000000000003 35.49999999999978 2.5
    vertex 1.7500000000000138 38.50000000000009 2.5
    vertex 1.7500000000000138 35.49999999999978 2.5
  endloop
endfacet
facet normal -0.0 -0.0 1.0
  outer loop
    vertex 1.7500000000000138 38.50000000000009 2.5
    vertex 9.25000000000003 35.49999999999978 2.5
    vertex 9.25000000000003 38.50000000000009 2.5
  endloop
endfacet
facet normal -0.0 -1.0 -0.0
  outer loop
    vertex 13.000000000000012 35.50000000000006 0.9999999999999996
    vertex 11.000000000000014 35.50000000000006 0.0
    vertex 13.000000000000012 35.50000000000006 0.0
  endloop
endfacet
facet normal -0.0 -1.0 -0.0
  outer loop
    vertex 11.000000000000014 35.50000000000006 0.0
    vertex 13.000000000000012 35.50000000000006 0.9999999999999996
    vertex 11.000000000000014 35.50000000000006 0.9999999999999996
  endloop
endfacet
facet normal 1.0 -0.0 -0.0
  outer loop
    vertex 11.000000000000014 0.0 0.0
    vertex 11.000000000000014 1.9999999999999962 1.0000000000000002
    vertex 11.000000000000014 0.0 3.5
  endloop
endfacet
facet normal 1.0 -0.0 -0.0
  outer loop
    vertex 11.000000000000014 1.9999999999999962 1.0000000000000002
    vertex 11.000000000000014 0.0 0.0
    vertex 11.000000000000014 35.50000000000006 0.0
  endloop
endfacet
facet normal 1.0 -0.0 -0.0
  outer loop
    vertex 11.000000000000014 1.9999999999999962 1.0000000000000002
    vertex 11.000000000000014 35.50000000000006 0.0
    vertex 11.000000000000014 35.50000000000006 0.9999999999999996
  endloop
endfacet
facet normal 1.0 -0.0 -0.0
  outer loop
    vertex 11.000000000000014 1.9999999999999962 3.5
    vertex 11.000000000000014 0.0 3.5
    vertex 11.000000000000014 1.9999999999999962 1.0000000000000002
  endloop
endfacet
facet normal 1.0 0.0 0.0
  outer loop
    vertex 13.000000000000012 38.50000000000009 0.0
    vertex 13.000000000000012 35.50000000000006 0.9999999999999996
    vertex 13.000000000000012 35.50000000000006 0.0
  endloop
endfacet
facet normal 1.0 0.0 0.0
  outer loop
    vertex 13.000000000000012 35.50000000000006 0.9999999999999996
    vertex 13.000000000000012 38.50000000000009 0.0
    vertex 13.000000000000012 35.50000000000006 5.999999999999999
  endloop
endfacet
facet normal 1.0 0.0 0.0
  outer loop
    vertex 13.000000000000012 35.50000000000006 5.999999999999999
    vertex 13.000000000000012 38.50000000000009 0.0
    vertex 13.000000000000012 38.50000000000009 5.999999999999999
  endloop
endfacet
facet normal 0.0 -1.0 5.639932965095797e-15
  outer loop
    vertex 0.0 35.50000000000006 0.9999999999999996
    vertex -1.9999999999999998 35.50000000000005 0.0
    vertex 0.0 35.50000000000005 0.0
  endloop
endfacet
facet normal 0.0 -1.0 5.639932965095797e-15
  outer loop
    vertex -1.9999999999999998 35.50000000000005 0.0
    vertex 0.0 35.50000000000006 0.9999999999999996
    vertex -1.9999999999999998 35.50000000000006 0.9999999999999996
  endloop
endfacet
facet normal -1.0 0.0 0.0
  outer loop
    vertex -1.9999999999999998 38.50000000000009 5.999999999999999
    vertex -1.9999999999999998 35.50000000000006 0.9999999999999996
    vertex -1.9999999999999998 35.50000000000006 5.999999999999999
  endloop
endfacet
facet normal -1.0 0.0 0.0
  outer loop
    vertex -1.9999999999999998 35.50000000000006 0.9999999999999996
    vertex -1.9999999999999998 38.50000000000009 0.0
    vertex -1.9999999999999998 35.50000000000005 0.0
  endloop
endfacet
facet normal -1.0 0.0 0.0
  outer loop
    vertex -1.9999999999999998 38.50000000000009 0.0
    vertex -1.9999999999999998 35.50000000000006 0.9999999999999996
    vertex -1.9999999999999998 38.50000000000009 5.999999999999999
  endloop
endfacet
facet normal 0.0 1.0 0.0
  outer loop
    vertex -1.9999999999999998 38.50000000000009 0.0
    vertex 1.7500000000000138 38.50000000000009 2.5
    vertex 13.000000000000012 38.50000000000009 0.0
  endloop
endfacet
facet normal 0.0 1.0 0.0
  outer loop
    vertex 1.7500000000000138 38.50000000000009 2.5
    vertex -1.9999999999999998 38.50000000000009 0.0
    vertex -1.9999999999999998 38.50000000000009 5.999999999999999
  endloop
endfacet
facet normal 0.0 1.0 0.0
  outer loop
    vertex 1.7500000000000138 38.50000000000009 2.5
    vertex -1.9999999999999998 38.50000000000009 5.999999999999999
    vertex 1.7500000000000138 38.50000000000009 5.0
  endloop
endfacet
facet normal 0.0 1.0 0.0
  outer loop
    vertex 1.7500000000000138 38.50000000000009 5.0
    vertex -1.9999999999999998 38.50000000000009 5.999999999999999
    vertex 9.25000000000003 38.50000000000009 5.0
  endloop
endfacet
facet normal 0.0 1.0 0.0
  outer loop
    vertex 13.000000000000012 38.50000000000009 0.0
    vertex 9.25000000000003 38.50000000000009 2.5
    vertex 13.000000000000012 38.50000000000009 5.999999999999999
  endloop
endfacet
facet normal 0.0 1.0 0.0
  outer loop
    vertex 9.25000000000003 38.50000000000009 2.5
    vertex 13.000000000000012 38.50000000000009 0.0
    vertex 1.7500000000000138 38.50000000000009 2.5
  endloop
endfacet
facet normal 0.0 1.0 0.0
  outer loop
    vertex 13.000000000000012 38.50000000000009 5.999999999999999
    vertex 9.25000000000003 38.50000000000009 2.5
    vertex 9.25000000000003 38.50000000000009 5.0
  endloop
endfacet
facet normal 0.0 1.0 0.0
  outer loop
    vertex 13.000000000000012 38.50000000000009 5.999999999999999
    vertex 9.25000000000003 38.50000000000009 5.0
    vertex -1.9999999999999998 38.50000000000009 5.999999999999999
  endloop
endfacet
facet normal -0.0 -0.0 1.0
  outer loop
    vertex 13.000000000000012 35.50000000000006 5.999999999999999
    vertex -1.9999999999999998 38.50000000000009 5.999999999999999
    vertex -1.9999999999999998 35.50000000000006 5.999999999999999
  endloop
endfacet
facet normal -0.0 -0.0 1.0
  outer loop
    vertex -1.9999999999999998 38.50000000000009 5.999999999999999
    vertex 13.000000000000012 35.50000000000006 5.999999999999999
    vertex 13.000000000000012 38.50000000000009 5.999999999999999
  endloop
endfacet
facet normal -1.0 0.0 0.0
  outer loop
    vertex 0.0 1.9999999999999962 3.5
    vertex 0.0 0.0 0.0
    vertex 0.0 0.0 3.5
  endloop
endfacet
facet normal -1.0 0.0 0.0
  outer loop
    vertex 0.0 0.0 0.0
    vertex 0.0 1.9999999999999962 3.5
    vertex 0.0 1.9999999999999962 1.0000000000000002
  endloop
endfacet
facet normal -1.0 0.0 0.0
  outer loop
    vertex 0.0 0.0 0.0
    vertex 0.0 1.9999999999999962 1.0000000000000002
    vertex 0.0 35.50000000000005 0.0
  endloop
endfacet
facet normal -1.0 0.0 0.0
  outer loop
    vertex 0.0 35.50000000000005 0.0
    vertex 0.0 1.9999999999999962 1.0000000000000002
    vertex 0.0 35.50000000000006 0.9999999999999996
  endloop
endfacet
facet normal 0.0 0.0 -1.0
  outer loop
    vertex 13.000000000000012 38.50000000000009 0.0
    vertex -1.9999999999999998 35.50000000000005 0.0
    vertex -1.9999999999999998 38.50000000000009 0.0
  endloop
endfacet
facet normal 0.0 0.0 -1.0
  outer loop
    vertex -1.9999999999999998 35.50000000000005 0.0
    vertex 13.000000000000012 38.50000000000009 0.0
    vertex 0.0 35.50000000000005 0.0
  endloop
endfacet
facet normal 0.0 0.0 -1.0
  outer loop
    vertex 0.0 35.50000000000005 0.0
    vertex 13.000000000000012 38.50000000000009 0.0
    vertex 11.000000000000014 35.50000000000006 0.0
  endloop
endfacet
facet normal 0.0 0.0 -1.0
  outer loop
    vertex 0.0 35.50000000000005 0.0
    vertex 11.000000000000014 35.50000000000006 0.0
    vertex 0.0 0.0 0.0
  endloop
endfacet
facet normal 0.0 0.0 -1.0
  outer loop
    vertex 11.000000000000014 35.50000000000006 0.0
    vertex 13.000000000000012 38.50000000000009 0.0
    vertex 13.000000000000012 35.50000000000006 0.0
  endloop
endfacet
facet normal 0.0 0.0 -1.0
  outer loop
    vertex 11.000000000000014 0.0 0.0
    vertex 0.0 0.0 0.0
    vertex 11.000000000000014 35.50000000000006 0.0
  endloop
endfacet
facet normal -0.0 1.0 -0.0
  outer loop
    vertex 0.0 1.9999999999999962 3.5
    vertex 11.000000000000014 1.9999999999999962 1.0000000000000002
    vertex 0.0 1.9999999999999962 1.0000000000000002
  endloop
endfacet
facet normal -0.0 1.0 -0.0
  outer loop
    vertex 11.000000000000014 1.9999999999999962 1.0000000000000002
    vertex 0.0 1.9999999999999962 3.5
    vertex 11.000000000000014 1.9999999999999962 3.5
  endloop
endfacet
facet normal 0.0 -1.0 0.0
  outer loop
    vertex 13.000000000000012 35.50000000000006 5.999999999999999
    vertex 11.000000000000014 35.50000000000006 0.9999999999999996
    vertex 13.000000000000012 35.50000000000006 0.9999999999999996
  endloop
endfacet
facet normal 0.0 -1.0 0.0
  outer loop
    vertex 11.000000000000014 35.50000000000006 0.9999999999999996
    vertex 13.000000000000012 35.50000000000006 5.999999999999999
    vertex 9.25000000000003 35.49999999999978 2.5
  endloop
endfacet
facet normal 0.0 -1.0 0.0
  outer loop
    vertex 11.000000000000014 35.50000000000006 0.9999999999999996
    vertex 9.25000000000003 35.49999999999978 2.5
    vertex 0.0 35.50000000000006 0.9999999999999996
  endloop
endfacet
facet normal 0.0 -1.0 0.0
  outer loop
    vertex 0.0 35.50000000000006 0.9999999999999996
    vertex 9.25000000000003 35.49999999999978 2.5
    vertex -1.9999999999999998 35.50000000000006 0.9999999999999996
  endloop
endfacet
facet normal 0.0 -1.0 0.0
  outer loop
    vertex 9.25000000000003 35.49999999999978 2.5
    vertex 13.000000000000012 35.50000000000006 5.999999999999999
    vertex 9.25000000000003 35.49999999999978 5.0
  endloop
endfacet
facet normal 0.0 -1.0 0.0
  outer loop
    vertex 9.25000000000003 35.49999999999978 5.0
    vertex 13.000000000000012 35.50000000000006 5.999999999999999
    vertex 1.7500000000000138 35.49999999999978 5.0
  endloop
endfacet
facet normal 0.0 -1.0 0.0
  outer loop
    vertex -1.9999999999999998 35.50000000000006 0.9999999999999996
    vertex 1.7500000000000138 35.49999999999978 2.5
    vertex -1.9999999999999998 35.50000000000006 5.999999999999999
  endloop
endfacet
facet normal 0.0 -1.0 0.0
  outer loop
    vertex 1.7500000000000138 35.49999999999978 2.5
    vertex -1.9999999999999998 35.50000000000006 0.9999999999999996
    vertex 9.25000000000003 35.49999999999978 2.5
  endloop
endfacet
facet normal 0.0 -1.0 0.0
  outer loop
    vertex -1.9999999999999998 35.50000000000006 5.999999999999999
    vertex 1.7500000000000138 35.49999999999978 2.5
    vertex 1.7500000000000138 35.49999999999978 5.0
  endloop
endfacet
facet normal 0.0 -1.0 0.0
  outer loop
    vertex -1.9999999999999998 35.50000000000006 5.999999999999999
    vertex 1.7500000000000138 35.49999999999978 5.0
    vertex 13.000000000000012 35.50000000000006 5.999999999999999
  endloop
endfacet
facet normal -0.0 -0.0 1.0
  outer loop
    vertex 11.000000000000014 0.0 3.5
    vertex 0.0 1.9999999999999962 3.5
    vertex 0.0 0.0 3.5
  endloop
endfacet
facet normal -0.0 -0.0 1.0
  outer loop
    vertex 0.0 1.9999999999999962 3.5
    vertex 11.000000000000014 0.0 3.5
    vertex 11.000000000000014 1.9999999999999962 3.5
  endloop
endfacet
facet normal 0.0 -1.0 0.0
  outer loop
    vertex 11.000000000000014 0.0 3.5
    vertex 0.0 0.0 0.0
    vertex 11.000000000000014 0.0 0.0
  endloop
endfacet
facet normal 0.0 -1.0 0.0
  outer loop
    vertex 0.0 0.0 0.0
    vertex 11.000000000000014 0.0 3.5
    vertex 0.0 0.0 3.5
  endloop
endfacet
facet normal -0.0 2.1044525989163377e-17 1.0
  outer loop
    vertex 11.000000000000014 1.9999999999999962 1.0000000000000002
    vertex 0.0 35.50000000000006 0.9999999999999996
    vertex 0.0 1.9999999999999962 1.0000000000000002
  endloop
endfacet
facet normal -0.0 2.1044525989163377e-17 1.0
  outer loop
    vertex 0.0 35.50000000000006 0.9999999999999996
    vertex 11.000000000000014 1.9999999999999962 1.0000000000000002
    vertex 11.000000000000014 35.50000000000006 0.9999999999999996
  endloop
endfacet
endsolid microcontrollerholder
